<svg xmlns="http://www.w3.org/2000/svg" viewBox="0 0 119.66 31.81"><title>enroll_now</title><g id="Layer_2" data-name="Layer 2"><g id="Artboard_2" data-name="Artboard 2" style="isolation:isolate"><g id="CTA"><g id="Rectangle_1" data-name="Rectangle 1"><rect width="119.66" height="31.81" fill="none"/></g><g id="Enroll_now" data-name="Enroll now"><path d="M22.73,10.84h7.16v1.93H25.21v2.57H29v1.81H25.21v2.74h4.93v1.94H22.73Z" transform="translate(0)" fill="#262626"/><path d="M31.44,13.79h2.23v1.27a2.8,2.8,0,0,1,2.61-1.46c1.59,0,2.71,1,2.71,3.11v5.12H36.76V17c0-1.09-.43-1.61-1.41-1.61a1.59,1.59,0,0,0-1.68,1.76v4.65H31.44Z" transform="translate(0)" fill="#262626"/><path d="M40.66,13.79h2.23v1.54a2.63,2.63,0,0,1,2.6-1.66v2.07c-1.65,0-2.6.52-2.6,2.06v4H40.66Z" transform="translate(0)" fill="#262626"/><path d="M46.09,17.89v-.12a4.23,4.23,0,0,1,8.46-.05v.13a4.23,4.23,0,0,1-8.46,0Zm6.2,0v-.11c0-1.53-.72-2.46-2-2.46s-2,.9-2,2.43v.13c0,1.53.71,2.45,2,2.45S52.29,19.38,52.29,17.86Z" transform="translate(0)" fill="#262626"/><path d="M55.87,10.15h2.21V21.83H55.87Z" transform="translate(0)" fill="#262626"/><path d="M59.94,10.15h2.22V21.83H59.94Z" transform="translate(0)" fill="#262626"/><path d="M67.13,13.79h2.23v1.27A2.8,2.8,0,0,1,72,13.6c1.59,0,2.71,1,2.71,3.11v5.12H72.45V17c0-1.09-.43-1.61-1.41-1.61a1.59,1.59,0,0,0-1.68,1.76v4.65H67.13Z" transform="translate(0)" fill="#262626"/><path d="M75.86,17.89v-.12a4.24,4.24,0,0,1,8.47-.05v.13a4.24,4.24,0,0,1-8.47,0Zm6.21,0v-.11c0-1.53-.72-2.46-2-2.46s-2,.9-2,2.43v.13c0,1.53.71,2.45,2,2.45S82.07,19.38,82.07,17.86Z" transform="translate(0)" fill="#262626"/><path d="M84.63,13.79H87L88.4,19.2,90,13.79h1.83l1.41,5.41,1.52-5.41h2.14l-2.54,8H92.13l-1.37-5-1.47,5H87.08Z" transform="translate(0)" fill="#262626"/></g></g></g></g></svg>