<svg xmlns="http://www.w3.org/2000/svg" viewBox="0 0 728 90"><title>H4</title><g id="Layer_2" data-name="Layer 2"><g id="Artboard_3" data-name="Artboard 3" style="isolation:isolate"><g id="headline"><g id="Extra_income._Flexible_hours._Take_our_virtual_tax_course._" data-name="Extra income. Flexible hours. Take our virtual tax course.     "><path d="M131.56,24.53h11.15V28.1h-6.54v2.77h5.21v3.3h-5.21v2.94h6.91v3.57H131.56Z" fill="#14aa40"/><path d="M147.71,34.67,144,28.86h4.65L150.51,32l1.78-3.12h4.16l-3.73,5.49,4.09,6.33h-4.65l-2.1-3.53-2.15,3.53h-4.13Z" fill="#14aa40"/><path d="M158.32,36.88V31.62H156.9V28.86h1.42V26.4h4.05v2.46h2.32v2.76h-2.32V36.5c0,.86.43,1.24,1.19,1.24a3.24,3.24,0,0,0,1.16-.2v3.07a8.74,8.74,0,0,1-2.24.34C159.82,41,158.32,39.66,158.32,36.88Z" fill="#14aa40"/><path d="M166.23,28.86h4v2.35a3.72,3.72,0,0,1,3.82-2.5v3.77c-2.46-.07-3.82.7-3.82,2.59v5.61h-4Z" fill="#14aa40"/><path d="M174.61,37.4c0-2.78,2.35-3.86,6.28-3.86H182v-.27c0-1.13-.27-1.88-1.56-1.88a1.45,1.45,0,0,0-1.6,1.4h-3.8c.18-2.84,2.42-4.24,5.65-4.24S186,29.88,186,33v7.66h-3.93V39.3a3.89,3.89,0,0,1-3.5,1.65C176.49,41,174.61,39.91,174.61,37.4Zm7.41-.86v-.72H181c-1.63,0-2.35.32-2.35,1.29,0,.67.45,1.1,1.4,1.1C181.16,38.21,182,37.56,182,36.54Z" fill="#14aa40"/><path d="M192,25.66a2.1,2.1,0,0,1,2.21-2.1,2.09,2.09,0,1,1,0,4.18A2.09,2.09,0,0,1,192,25.66Zm.2,3.2h4V40.68h-4Z" fill="#14aa40"/><path d="M198.44,28.86h4v1.9a4.18,4.18,0,0,1,3.89-2.21c2.28,0,3.86,1.42,3.86,4.45v7.68h-4V33.81c0-1.33-.52-2-1.7-2s-2,.73-2,2.24v6.62h-4Z" fill="#14aa40"/><path d="M211.56,34.92v-.18a6,6,0,0,1,6.31-6.19c2.89,0,5.55,1.26,5.78,4.85h-3.8A1.74,1.74,0,0,0,218,31.69c-1.43,0-2.26,1-2.26,3v.18c0,2.06.79,3.12,2.32,3.12a2,2,0,0,0,2.06-2h3.63c-.11,3-2.12,4.93-5.94,4.93C214.25,41,211.56,38.89,211.56,34.92Z" fill="#14aa40"/><path d="M224.39,34.92v-.18c0-3.8,2.83-6.19,6.49-6.19s6.43,2.32,6.43,6.07v.18c0,3.84-2.82,6.15-6.46,6.15S224.39,38.73,224.39,34.92Zm8.81-.07v-.18c0-2-.79-3.1-2.32-3.1s-2.35,1.07-2.35,3v.18c0,2,.79,3.14,2.35,3.14S233.2,36.81,233.2,34.85Z" fill="#14aa40"/><path d="M238.74,28.86h4v1.81a4.12,4.12,0,0,1,3.7-2.12,3.22,3.22,0,0,1,3.21,2,4.71,4.71,0,0,1,3.91-2c2.23,0,3.86,1.44,3.86,4.4v7.73h-4v-7c0-1.2-.59-1.78-1.52-1.78a1.75,1.75,0,0,0-1.8,2v6.85h-4v-7c0-1.2-.59-1.78-1.51-1.78a1.75,1.75,0,0,0-1.81,2v6.85h-4Z" fill="#14aa40"/><path d="M258.8,34.92v-.18a6,6,0,0,1,6.39-6.19c3.23,0,6,1.85,6,6.1v1.06h-8.31a2.36,2.36,0,0,0,2.46,2.46c1.34,0,1.9-.61,2.06-1.4h3.79c-.36,2.66-2.41,4.18-6,4.18S258.8,38.78,258.8,34.92Zm8.46-1.49c-.06-1.43-.76-2.22-2.07-2.22a2.25,2.25,0,0,0-2.26,2.22Z" fill="#14aa40"/><path d="M272.33,38.64a2.25,2.25,0,0,1,2.3-2.28,2.28,2.28,0,1,1,0,4.56A2.25,2.25,0,0,1,272.33,38.64Z" fill="#14aa40"/><path d="M283.37,24.53h10.91v3.59H288v3.43h5V35h-5v5.72h-4.65Z" fill="#14aa40"/><path d="M295.86,23.67h4v17h-4Z" fill="#14aa40"/><path d="M301.42,34.92v-.18a6,6,0,0,1,6.39-6.19c3.23,0,6,1.85,6,6.1v1.06h-8.31A2.35,2.35,0,0,0,308,38.17c1.33,0,1.9-.61,2-1.4h3.8c-.36,2.66-2.42,4.18-6,4.18S301.42,38.78,301.42,34.92Zm8.47-1.49c-.07-1.43-.77-2.22-2.08-2.22a2.25,2.25,0,0,0-2.26,2.22Z" fill="#14aa40"/><path d="M317.57,34.67l-3.68-5.81h4.65L320.37,32l1.78-3.12h4.16l-3.73,5.49,4.09,6.33H322l-2.1-3.53-2.15,3.53h-4.13Z" fill="#14aa40"/><path d="M327.71,25.66a2.23,2.23,0,1,1,2.21,2.08A2.11,2.11,0,0,1,327.71,25.66Zm.2,3.2h4V40.68h-4Z" fill="#14aa40"/><path d="M338.17,38.85v1.83h-4v-17h4v7a4.16,4.16,0,0,1,3.68-2.08c2.75,0,5,2.08,5,6.12v.18c0,4.06-2.24,6.1-5,6.1A3.82,3.82,0,0,1,338.17,38.85Zm4.56-4v-.18c0-2.08-.9-3.07-2.33-3.07s-2.34,1.06-2.34,3v.18c0,2,.88,3,2.34,3S342.73,36.79,342.73,34.85Z" fill="#14aa40"/><path d="M348.42,23.67h4v17h-4Z" fill="#14aa40"/><path d="M354,34.92v-.18a6,6,0,0,1,6.39-6.19c3.23,0,6,1.85,6,6.1v1.06h-8.31a2.35,2.35,0,0,0,2.46,2.46c1.33,0,1.9-.61,2.05-1.4h3.8C366,39.43,364,41,360.39,41S354,38.78,354,34.92Zm8.47-1.49c-.07-1.43-.77-2.22-2.08-2.22a2.25,2.25,0,0,0-2.26,2.22Z" fill="#14aa40"/><path d="M371.89,23.67h4v7.09a4.18,4.18,0,0,1,3.89-2.21c2.28,0,3.86,1.42,3.86,4.45v7.68h-4V33.81c0-1.33-.52-2-1.7-2s-2,.73-2,2.24v6.62h-4Z" fill="#14aa40"/><path d="M385,34.92v-.18c0-3.8,2.83-6.19,6.49-6.19s6.43,2.32,6.43,6.07v.18c0,3.84-2.82,6.15-6.46,6.15S385,38.73,385,34.92Zm8.81-.07v-.18c0-2-.79-3.1-2.32-3.1s-2.35,1.07-2.35,3v.18c0,2,.79,3.14,2.35,3.14S393.82,36.81,393.82,34.85Z" fill="#14aa40"/><path d="M399.27,36.57V28.86h4v7c0,1.33.52,2,1.67,2s2-.73,2-2.24v-6.8h4V40.68h-4V38.85a3.87,3.87,0,0,1-3.75,2.1C401,41,399.27,39.55,399.27,36.57Z" fill="#14aa40"/><path d="M413.09,28.86h4v2.35a3.72,3.72,0,0,1,3.82-2.5v3.77c-2.46-.07-3.82.7-3.82,2.59v5.61h-4Z" fill="#14aa40"/><path d="M421.67,36.93h3.73c.14.85.52,1.33,1.67,1.33s1.45-.38,1.45-1-.57-.84-2.19-1.06c-3.16-.41-4.5-1.34-4.5-3.8,0-2.62,2.33-3.88,5.06-3.88,2.91,0,4.95,1,5.22,3.81h-3.66a1.32,1.32,0,0,0-1.51-1.17c-.88,0-1.34.38-1.34.93s.55.79,2,1c3.28.4,4.86,1.26,4.86,3.79,0,2.8-2.08,4.07-5.36,4.07S421.77,39.55,421.67,36.93Z" fill="#14aa40"/><path d="M433.6,38.64a2.25,2.25,0,0,1,2.3-2.28,2.28,2.28,0,1,1,0,4.56A2.25,2.25,0,0,1,433.6,38.64Z" fill="#14aa40"/><path d="M134.65,53.84h-4.18V50.27h13v3.57H139.3V66.42h-4.65Z" fill="#14aa40"/><path d="M142.67,63.14c0-2.78,2.35-3.86,6.28-3.86h1.13V59c0-1.13-.27-1.88-1.56-1.88a1.45,1.45,0,0,0-1.6,1.4h-3.8c.18-2.84,2.42-4.24,5.65-4.24s5.33,1.33,5.33,4.47v7.66h-3.93V65a3.87,3.87,0,0,1-3.5,1.65C144.55,66.69,142.67,65.65,142.67,63.14Zm7.41-.86v-.72H149c-1.63,0-2.35.32-2.35,1.29,0,.67.45,1.1,1.4,1.1C149.22,64,150.08,63.3,150.08,62.28Z" fill="#14aa40"/><path d="M156.07,49.41h4v9.87l3.18-4.68h4.2l-3.86,5.31,4.18,6.51h-4.52l-3.18-5.18v5.18h-4Z" fill="#14aa40"/><path d="M167.52,60.66v-.18a6,6,0,0,1,6.39-6.19c3.23,0,6,1.85,6,6.1v1.06h-8.31a2.36,2.36,0,0,0,2.46,2.46c1.33,0,1.89-.61,2.05-1.4h3.8c-.36,2.66-2.42,4.18-6,4.18S167.52,64.52,167.52,60.66ZM176,59.17c-.07-1.43-.77-2.22-2.08-2.22a2.25,2.25,0,0,0-2.26,2.22Z" fill="#14aa40"/><path d="M184.8,60.66v-.18c0-3.8,2.82-6.19,6.48-6.19s6.44,2.32,6.44,6.07v.18c0,3.84-2.83,6.15-6.46,6.15S184.8,64.47,184.8,60.66Zm8.81-.07v-.18c0-2-.8-3.1-2.33-3.1s-2.35,1.07-2.35,3v.18c0,2,.79,3.14,2.35,3.14S193.61,62.55,193.61,60.59Z" fill="#14aa40"/><path d="M199.05,62.3V54.6h4v7c0,1.33.52,2,1.67,2s2-.72,2-2.24V54.6h4V66.42h-4V64.59a3.87,3.87,0,0,1-3.74,2.1C200.75,66.69,199.05,65.29,199.05,62.3Z" fill="#14aa40"/><path d="M212.88,54.6h4V57a3.7,3.7,0,0,1,3.81-2.5v3.77c-2.46-.07-3.81.7-3.81,2.59v5.61h-4Z" fill="#14aa40"/><path d="M225.3,54.6h4.31l2.46,7.61,2.42-7.61h3.86L234,66.42h-4.41Z" fill="#14aa40"/><path d="M239.28,51.4a2.23,2.23,0,1,1,2.21,2.07A2.11,2.11,0,0,1,239.28,51.4Zm.2,3.2h4.05V66.42h-4.05Z" fill="#14aa40"/><path d="M245.69,54.6h4.05V57a3.7,3.7,0,0,1,3.81-2.5v3.77c-2.46-.07-3.81.7-3.81,2.59v5.61h-4.05Z" fill="#14aa40"/><path d="M255.75,62.62V57.36h-1.43V54.6h1.43V52.14h4V54.6h2.32v2.76h-2.32v4.88a1.08,1.08,0,0,0,1.2,1.24,3.19,3.19,0,0,0,1.15-.2v3.07a8.74,8.74,0,0,1-2.24.34C257.24,66.69,255.75,65.4,255.75,62.62Z" fill="#14aa40"/><path d="M263.56,62.3V54.6h4v7c0,1.33.52,2,1.68,2s2-.72,2-2.24V54.6h4V66.42h-4V64.59a3.89,3.89,0,0,1-3.75,2.1C265.26,66.69,263.56,65.29,263.56,62.3Z" fill="#14aa40"/><path d="M276.71,63.14c0-2.78,2.35-3.86,6.28-3.86h1.13V59c0-1.13-.28-1.88-1.56-1.88a1.46,1.46,0,0,0-1.61,1.4h-3.79c.18-2.84,2.42-4.24,5.65-4.24s5.32,1.33,5.32,4.47v7.66h-3.92V65a3.89,3.89,0,0,1-3.5,1.65C278.58,66.69,276.71,65.65,276.71,63.14Zm7.41-.86v-.72h-1.07c-1.62,0-2.34.32-2.34,1.29,0,.67.45,1.1,1.4,1.1C283.26,64,284.12,63.3,284.12,62.28Z" fill="#14aa40"/><path d="M290.21,49.41h4v17h-4Z" fill="#14aa40"/><path d="M301.06,62.62V57.36h-1.43V54.6h1.43V52.14h4V54.6h2.33v2.76H305.1v4.88a1.08,1.08,0,0,0,1.2,1.24,3.19,3.19,0,0,0,1.15-.2v3.07a8.74,8.74,0,0,1-2.24.34C302.55,66.69,301.06,65.4,301.06,62.62Z" fill="#14aa40"/><path d="M308.33,63.14c0-2.78,2.35-3.86,6.28-3.86h1.13V59c0-1.13-.27-1.88-1.56-1.88a1.45,1.45,0,0,0-1.6,1.4h-3.8c.18-2.84,2.42-4.24,5.65-4.24s5.33,1.33,5.33,4.47v7.66h-3.93V65a3.89,3.89,0,0,1-3.5,1.65C310.21,66.69,308.33,65.65,308.33,63.14Zm7.41-.86v-.72h-1.06c-1.63,0-2.35.32-2.35,1.29,0,.67.45,1.1,1.4,1.1C314.88,64,315.74,63.3,315.74,62.28Z" fill="#14aa40"/><path d="M324.71,60.41,321,54.6h4.66l1.83,3.12,1.78-3.12h4.16l-3.73,5.49,4.09,6.33h-4.66l-2.1-3.53-2.14,3.53h-4.13Z" fill="#14aa40"/><path d="M338.42,60.66v-.18a5.94,5.94,0,0,1,6.3-6.19c2.89,0,5.55,1.26,5.78,4.85h-3.79a1.75,1.75,0,0,0-1.9-1.71c-1.42,0-2.26,1-2.26,3v.18c0,2.06.79,3.12,2.33,3.12a2,2,0,0,0,2.05-2h3.64c-.12,3-2.13,4.93-5.94,4.93C341.1,66.69,338.42,64.63,338.42,60.66Z" fill="#14aa40"/><path d="M351.25,60.66v-.18c0-3.8,2.82-6.19,6.48-6.19s6.43,2.32,6.43,6.07v.18c0,3.84-2.82,6.15-6.45,6.15S351.25,64.47,351.25,60.66Zm8.8-.07v-.18c0-2-.79-3.1-2.32-3.1s-2.35,1.07-2.35,3v.18c0,2,.79,3.14,2.35,3.14S360.05,62.55,360.05,60.59Z" fill="#14aa40"/><path d="M365.5,62.3V54.6h4v7c0,1.33.52,2,1.67,2s2-.72,2-2.24V54.6h4V66.42h-4V64.59a3.87,3.87,0,0,1-3.75,2.1C367.19,66.69,365.5,65.29,365.5,62.3Z" fill="#14aa40"/><path d="M379.32,54.6h4.05V57a3.7,3.7,0,0,1,3.81-2.5v3.77c-2.46-.07-3.81.7-3.81,2.59v5.61h-4.05Z" fill="#14aa40"/><path d="M387.91,62.67h3.72c.14.85.52,1.33,1.67,1.33,1,0,1.45-.38,1.45-1s-.56-.84-2.19-1.06c-3.16-.41-4.49-1.34-4.49-3.8,0-2.62,2.32-3.88,5.05-3.88,2.92,0,4.95,1,5.22,3.81h-3.66a1.31,1.31,0,0,0-1.51-1.17c-.88,0-1.33.38-1.33.93s.54.79,2,1c3.28.4,4.86,1.26,4.86,3.79,0,2.8-2.08,4.07-5.35,4.07S388,65.29,387.91,62.67Z" fill="#14aa40"/><path d="M399.43,60.66v-.18a6,6,0,0,1,6.39-6.19c3.23,0,6,1.85,6,6.1v1.06h-8.32A2.37,2.37,0,0,0,406,63.91c1.33,0,1.89-.61,2-1.4h3.8c-.37,2.66-2.42,4.18-6,4.18S399.43,64.52,399.43,60.66Zm8.47-1.49c-.07-1.43-.77-2.22-2.08-2.22a2.25,2.25,0,0,0-2.26,2.22Z" fill="#14aa40"/><path d="M413,64.38a2.25,2.25,0,0,1,2.3-2.28,2.28,2.28,0,1,1,0,4.56A2.25,2.25,0,0,1,413,64.38Z" fill="#14aa40"/></g></g><g id="rect"><rect width="728" height="90" fill="none"/></g></g></g></svg>