<svg xmlns="http://www.w3.org/2000/svg" viewBox="0 0 300 250"><title>glasses</title><g id="Layer_2" data-name="Layer 2"><g id="rect"><rect width="300" height="250" fill="none"/></g><g id="glasses_base"><path d="M249.63,40.92v0a2.41,2.41,0,0,0-.08-.25c-.14-.31-.61-.29-.89-.34a1.57,1.57,0,0,1-.56-.16l-.2-.14c-.22-.12-.42-.27-.63-.41a5.1,5.1,0,0,0-1.69-.73c-.44-.09-.88-.23-1.33-.33a6.68,6.68,0,0,0-.87-.17c-.95-.1-1.89-.2-2.84-.27-.69,0-1.38,0-2.08,0-.51,0-1,0-1.54,0a13.7,13.7,0,0,0-2.85.34c-.49.1-1,.2-1.46.34a7.4,7.4,0,0,0-1.12.48,7,7,0,0,0-.86.45c-.25.15-.47.35-.72.51a5,5,0,0,1-.68.37c-.61,0-1.2-.1-1.81-.09s-1.09.1-1.63.13l0,0a4.36,4.36,0,0,1-.74-.39c-.25-.16-.47-.36-.72-.51a14.18,14.18,0,0,0-2-.93c-.48-.14-1-.24-1.46-.34A13.7,13.7,0,0,0,218,38c-.51,0-1,0-1.54,0-.7,0-1.39,0-2.08,0-1,.07-1.89.17-2.84.27a6.68,6.68,0,0,0-.87.17c-.45.1-.89.24-1.34.33a5.14,5.14,0,0,0-1.68.73c-.21.14-.41.29-.63.41l-.2.14a1.57,1.57,0,0,1-.56.16c-.28.05-.75,0-.89.34a2.41,2.41,0,0,0-.08.25v0a3.75,3.75,0,0,0,.14,1.49c.06.17.13.3.33.28s.68-.08,1-.1c.11,0,.3,0,.33.08a9.55,9.55,0,0,1,.48,1.36,10.9,10.9,0,0,0,1,2.28,8.84,8.84,0,0,0,1.69,2.2,5,5,0,0,0,.9.77c.64.39,1.3.73,2,1.07a5,5,0,0,0,1.72.57,14.39,14.39,0,0,0,1.74.12,10.11,10.11,0,0,0,1.23,0,4.83,4.83,0,0,0,1.15-.15,10.18,10.18,0,0,0,2.2-.87c.42-.26.86-.49,1.26-.77a7.79,7.79,0,0,0,1.44-1.54,9.24,9.24,0,0,0,.79-1.1,9.45,9.45,0,0,0,.52-1.17c.16-.43.31-.86.43-1.3a2.57,2.57,0,0,1,.86-1.54,1.58,1.58,0,0,1,.68-.29l.34,0,.35,0a1.58,1.58,0,0,1,.68.29,2.57,2.57,0,0,1,.86,1.54c.12.44.27.87.43,1.3a8.17,8.17,0,0,0,.52,1.17,9.24,9.24,0,0,0,.79,1.1,7.51,7.51,0,0,0,1.44,1.54c.4.28.84.51,1.26.77a10.18,10.18,0,0,0,2.2.87,4.83,4.83,0,0,0,1.15.15,10.11,10.11,0,0,0,1.23,0,14.39,14.39,0,0,0,1.74-.12,5.06,5.06,0,0,0,1.72-.57c.66-.34,1.32-.68,2-1.07a5,5,0,0,0,.9-.77,8.84,8.84,0,0,0,1.69-2.2,10.87,10.87,0,0,0,.95-2.28,9.6,9.6,0,0,1,.49-1.36c0-.06.22-.09.33-.08.34,0,.68.06,1,.1s.28-.11.34-.28a3.75,3.75,0,0,0,.14-1.49m-.4.79c0,.35-.18.57-.56.56s-.89-.06-1.34-.09a.43.43,0,0,0-.31.34c-.18.66-.33,1.33-.56,2a10.91,10.91,0,0,1-.77,1.62,7.66,7.66,0,0,1-1.2,1.58c-.55.58-1.17,1.08-1.75,1.61a9.3,9.3,0,0,1-2,1.19,2.83,2.83,0,0,1-.92.23,11.67,11.67,0,0,1-1.56.1c-.61,0-1.22-.11-1.84-.15a5,5,0,0,1-1.62-.47,19.91,19.91,0,0,1-1.89-1l0,0a2.3,2.3,0,0,1-.46-.42h0l-.06-.06,0-.06h0l0,0,0,0a3.93,3.93,0,0,1-.44-.55,5,5,0,0,1-.74-1.14c-.09-.19-.19-.36-.29-.54a9.68,9.68,0,0,1-.65-2,5.28,5.28,0,0,0-1-2,2,2,0,0,0-.64-.48,3.34,3.34,0,0,0-1-.19,3.71,3.71,0,0,0-1.2.24,2.09,2.09,0,0,0-.52.43,5.28,5.28,0,0,0-1,2,9.68,9.68,0,0,1-.65,2c-.1.18-.2.35-.29.54a5.3,5.3,0,0,1-.74,1.14c-.08.12-.17.24-.26.35s-.35.34-.53.5-.55.39-.8.61c-.47.26-.95.52-1.44.73a5.1,5.1,0,0,1-1.63.47c-.61,0-1.22.13-1.83.15a11.67,11.67,0,0,1-1.56-.1,2.77,2.77,0,0,1-.92-.23,9.3,9.3,0,0,1-2-1.19c-.59-.53-1.2-1-1.75-1.61a7.66,7.66,0,0,1-1.2-1.58,10.91,10.91,0,0,1-.77-1.62c-.24-.65-.38-1.32-.56-2a.43.43,0,0,0-.32-.34c-.44,0-.88.08-1.33.09s-.51-.21-.56-.56a.93.93,0,0,1,.38-1,1.24,1.24,0,0,1,.5-.13,2.71,2.71,0,0,0,.61-.09,6.19,6.19,0,0,1,1.4-.78,11.24,11.24,0,0,1,2.18-.68c.73-.14,1.48-.24,2.21-.36.44-.07.87-.15,1.31-.2s.72-.08,1.08-.1h1a14.87,14.87,0,0,1,2.11,0c.28,0,.65.06,1,.13a0,0,0,0,1,.05,0c.81.14,1.56.41,2.35.61a4.55,4.55,0,0,1,1.1.4c.31.12.59.3.9.43s.74.58,1.2.75A2.46,2.46,0,0,0,226,41a5,5,0,0,0,1.28-.08l.48,0h0a5.12,5.12,0,0,1,.81.1h.12a2.26,2.26,0,0,0,1.11-.2c.46-.17.77-.55,1.2-.75s.59-.31.9-.43a4.55,4.55,0,0,1,1.1-.4c.79-.2,1.54-.47,2.34-.61a.06.06,0,0,1,.06,0c.37-.07.74-.1,1-.13a14.87,14.87,0,0,1,2.11,0h1c.36,0,.72.05,1.08.1s.87.13,1.3.2c.74.12,1.48.22,2.22.36a11.24,11.24,0,0,1,2.18.68,6.19,6.19,0,0,1,1.4.78,2.7,2.7,0,0,0,.6.09,1.24,1.24,0,0,1,.51.13.93.93,0,0,1,.38,1" fill="#14aa40" fill-rule="evenodd"/><path d="M245.07,40.61a1.87,1.87,0,0,0-.35-.28,3.09,3.09,0,0,0-.44-.24,4,4,0,0,0-1-.29l-.24,0a6.36,6.36,0,0,0-1.2-.29,9.28,9.28,0,0,0-1.67-.18,20.25,20.25,0,0,0-2.91.08,5.29,5.29,0,0,0-.8.09,4.17,4.17,0,0,0-.8.08h0c-.44.05-.88.16-1.32.25-.2.05-.41.09-.61.15s-.52.12-.78.19-.79.22-1.17.36a7.17,7.17,0,0,0-.69.3l-.16.07,0,0a.78.78,0,0,0-.26.22l-.05.07a2.21,2.21,0,0,0-.14.55,6.38,6.38,0,0,0,0,1.07.34.34,0,0,1,0,.1c.07.29.13.57.19.85v.06a1,1,0,0,1,0,.24c0,.14.08.27.11.41s.09.38.14.57.2.5.31.74.36.7.52,1.06a7.49,7.49,0,0,0,.83,1.27,4,4,0,0,0,1.65,1.25,13.29,13.29,0,0,0,1.22.54,5.71,5.71,0,0,0,3.19.31c.49-.1,1-.18,1.47-.32a6.69,6.69,0,0,0,2.79-1.77A6.77,6.77,0,0,0,244,46.6a6.7,6.7,0,0,0,.9-2.41c.09-.69.17-1.39.25-2.08,0-.26,0-.51.06-.77a1.8,1.8,0,0,0,0-.22c0-.17-.07-.34-.11-.51m-.47,2a12.7,12.7,0,0,1-.36,2.15,14.7,14.7,0,0,1-.85,2.2,4.55,4.55,0,0,1-1.17,1.49,6.75,6.75,0,0,1-1.87,1.14,5.62,5.62,0,0,1-1.13.33,5.1,5.1,0,0,0-.77.11l-.64.08h0a7.91,7.91,0,0,1-.86-.06,7,7,0,0,1-1.67-.52,5.79,5.79,0,0,1-2-1.26A6.57,6.57,0,0,1,232,46.31a8.92,8.92,0,0,1-.54-1.28,19.18,19.18,0,0,1-.42-2,11.91,11.91,0,0,1-.12-1.34.2.2,0,0,1,.12-.14c.41-.2.83-.41,1.26-.58a11.86,11.86,0,0,1,1.61-.57c.89-.22,1.79-.39,2.69-.53.74-.12,1.49-.16,2.24-.22a4.56,4.56,0,0,1,.64,0c.52,0,1,.08,1.55.1a11.62,11.62,0,0,1,2.11.35,5.39,5.39,0,0,1,1.34.66c.06,0,.09.13.1.19a12.4,12.4,0,0,1,0,1.61" fill="#14aa40" fill-rule="evenodd"/><path d="M224.35,41.19l0-.07a.78.78,0,0,0-.26-.22l-.06,0-.15-.07a7.17,7.17,0,0,0-.69-.3c-.38-.14-.78-.25-1.17-.36l-.11,0a8.74,8.74,0,0,0-1.45-.34l-.55-.11-.44-.08a5.49,5.49,0,0,0-.8-.11l-.92-.11a18.21,18.21,0,0,0-2.56-.08H215a7.84,7.84,0,0,0-1.81.19h-.1c-.48.1-1,.23-1.45.31a4,4,0,0,0-1,.29,3.55,3.55,0,0,0-.39.2.84.84,0,0,0-.46.35,1.71,1.71,0,0,0,0,1.24c0,.08,0,.15,0,.23.08.69.16,1.39.25,2.08a6.7,6.7,0,0,0,.9,2.41A6.77,6.77,0,0,0,212,48.12a6.69,6.69,0,0,0,2.79,1.77c.48.14,1,.22,1.46.32a4.51,4.51,0,0,0,1.41.09,2.61,2.61,0,0,0,.85-.13,7.75,7.75,0,0,0,.94-.27,13.29,13.29,0,0,0,1.22-.54,4,4,0,0,0,1.65-1.25,7.49,7.49,0,0,0,.83-1.27c.15-.36.37-.7.52-1.06s.21-.49.31-.74.11-.38.14-.57.07-.27.1-.41a2,2,0,0,1,0-.24v-.06c.05-.28.12-.56.18-.85,0,0,0-.07,0-.1a7.65,7.65,0,0,0,0-1.07,2.21,2.21,0,0,0-.14-.55m-1.43,5.12a6.42,6.42,0,0,1-1.32,1.94,5.65,5.65,0,0,1-1.95,1.26,4.87,4.87,0,0,1-.53.21c-.44.07-.87.23-1.31.29s-.89,0-1.33,0l-.31,0a6.12,6.12,0,0,1-1.62-.41,6.85,6.85,0,0,1-1.86-1.14,4.55,4.55,0,0,1-1.17-1.49,14.7,14.7,0,0,1-.85-2.2,12.7,12.7,0,0,1-.36-2.15,12.4,12.4,0,0,1,0-1.61.24.24,0,0,1,.1-.19,5.39,5.39,0,0,1,1.34-.66,11.62,11.62,0,0,1,2.11-.35c.52,0,1-.07,1.55-.1a2.8,2.8,0,0,1,.41,0h.23c.75.06,1.5.1,2.24.22.9.14,1.8.31,2.69.53a11.86,11.86,0,0,1,1.61.57c.4.16.78.35,1.17.54a4.46,4.46,0,0,1,.06.54c0,.32,0,.65,0,1s-.1.75-.15,1.12a1.13,1.13,0,0,1,0,.18c0,.23-.11.45-.17.68a8.92,8.92,0,0,1-.54,1.28" fill="#14aa40" fill-rule="evenodd"/><path d="M208.19,41.13a1.81,1.81,0,0,0-.8-.11,1.92,1.92,0,0,0-1.23.25c0,.06,0,.1,0,.14s.31.17.37.18a3.49,3.49,0,0,0,1.47-.15.44.44,0,0,0,.15-.08h0a.08.08,0,0,0,0-.11s0-.07-.07-.11m-1.63.21h-.09l.06-.08.44-.07a3.57,3.57,0,0,1,.73,0,1.44,1.44,0,0,1,.27,0,8.39,8.39,0,0,1-1.41.12" fill="#14aa40" fill-rule="evenodd"/><path d="M247.52,41a1.79,1.79,0,0,0-.8.11c-.06,0-.08.07-.07.11a.08.08,0,0,0,0,.11h0a.53.53,0,0,0,.14.08,3.55,3.55,0,0,0,1.48.15c.06,0,.31-.08.37-.18s.07-.08,0-.14c-.25-.26-.88-.26-1.22-.25m.83.32a8.3,8.3,0,0,1-1.41-.12,1.44,1.44,0,0,1,.27,0,3.57,3.57,0,0,1,.73,0l.44.07.06.08h-.09" fill="#14aa40" fill-rule="evenodd"/></g><g id="glasses_lines"><path id="glasses_outline03" d="M231.32,41c3.58-2,11.2-1.59,13-.51.7.36.55.62.41,2.07s-.85,7.24-6.66,7.35-7.17-4.8-7.32-6.65S230.8,41.45,231.32,41Z" fill="none" stroke="#fff" stroke-miterlimit="10" fill-rule="evenodd"/><path id="glasses_outline02" d="M210.25,40.37c2.15-1.14,9.22-1.08,13.05.6,1.44.62.85,1.44.63,2.73s-1.37,6.28-6.88,6.21-6.58-4.72-7-7.28C209.81,41.34,209.81,40.67,210.25,40.37Z" fill="none" stroke="#fff" stroke-miterlimit="10" fill-rule="evenodd"/><path id="glasses_outline01" d="M205.52,40.78a22.38,22.38,0,0,1,11-2.59c5.62.26,6.1.85,7.32,1.48a7.14,7.14,0,0,0,3.55.93,6.56,6.56,0,0,0,3.81-1c1.25-.89,5.1-1.44,7.65-1.37s7.11.56,10,2.33c1.56,1,.52,2-1.33,1.89-.29,0-.44,2.33-1.62,4.1s-3.14,4.43-8.32,4.43a7.55,7.55,0,0,1-7.76-6.28c-.44-2.77-3.36-4.69-4.84.45s-5.69,6-8.61,5.91a9.31,9.31,0,0,1-8.06-5.62c-.7-1.81-.18-3.1-1.74-2.92C205.68,42.59,204.75,41.22,205.52,40.78Z" fill="none" stroke="#fff" stroke-miterlimit="10" fill-rule="evenodd"/><line id="glasses_detail02" x1="246.66" y1="41.26" x2="248.71" y2="41.33" fill="none" stroke="#fff" stroke-miterlimit="10" stroke-width="0.75"/><line id="glasses_detail01" x1="206.06" y1="41.41" x2="208.33" y2="41.23" fill="none" stroke="#fff" stroke-miterlimit="10" stroke-width="0.75"/></g></g></svg>