<svg xmlns="http://www.w3.org/2000/svg" viewBox="0 0 300 250"><title>H3</title><g id="Layer_2" data-name="Layer 2"><g id="Artboard_2" data-name="Artboard 2" style="isolation:isolate"><g id="Virtual_career_training_for_159." data-name="Virtual career training for $159."><path d="M20.25,20.45h4.52l3,10.29,3-10.29h3.93L29.88,35.1H25.1Z" fill="#14aa40"/><path d="M35.42,21.48a1.91,1.91,0,0,1,2-1.91,1.9,1.9,0,1,1,0,3.79A1.9,1.9,0,0,1,35.42,21.48Zm.18,2.91h3.67V35.1H35.6Z" fill="#14aa40"/><path d="M41.24,24.39h3.67v2.13a3.37,3.37,0,0,1,3.46-2.28v3.43c-2.24-.07-3.46.63-3.46,2.35V35.1H41.24Z" fill="#14aa40"/><path d="M50.36,31.66V26.89H49.07v-2.5h1.29V22.15H54v2.24h2.11v2.5H54v4.42c0,.78.39,1.13,1.08,1.13a2.89,2.89,0,0,0,1-.18V35a7.4,7.4,0,0,1-2,.31C51.71,35.35,50.36,34.18,50.36,31.66Z" fill="#14aa40"/><path d="M57.45,31.37v-7h3.67v6.39c0,1.21.47,1.8,1.52,1.8s1.82-.65,1.82-2V24.39h3.67V35.1H64.46V33.44a3.52,3.52,0,0,1-3.4,1.91C59,35.35,57.45,34.08,57.45,31.37Z" fill="#14aa40"/><path d="M69.38,32.13c0-2.52,2.13-3.5,5.7-3.5h1v-.25c0-1-.24-1.7-1.41-1.7A1.32,1.32,0,0,0,73.24,28H69.79C70,25.37,72,24.1,74.92,24.1s4.83,1.21,4.83,4.06V35.1H76.19V33.85A3.54,3.54,0,0,1,73,35.35C71.08,35.35,69.38,34.41,69.38,32.13Zm6.72-.78V30.7h-1C73.67,30.7,73,31,73,31.87c0,.61.41,1,1.27,1C75.33,32.87,76.1,32.28,76.1,31.35Z" fill="#14aa40"/><path d="M81.64,19.67h3.65V35.1H81.64Z" fill="#14aa40"/><path d="M90.42,29.88v-.17a5.39,5.39,0,0,1,5.71-5.61c2.63,0,5,1.15,5.25,4.41H97.94A1.59,1.59,0,0,0,96.21,27c-1.29,0-2,.92-2,2.72v.17c0,1.86.71,2.83,2.11,2.83a1.79,1.79,0,0,0,1.86-1.79h3.3c-.1,2.71-1.93,4.47-5.39,4.47C92.85,35.35,90.42,33.48,90.42,29.88Z" fill="#14aa40"/><path d="M102.08,32.13c0-2.52,2.13-3.5,5.7-3.5h1v-.25c0-1-.25-1.7-1.41-1.7A1.32,1.32,0,0,0,105.93,28h-3.44c.16-2.58,2.19-3.85,5.12-3.85s4.84,1.21,4.84,4.06V35.1h-3.57V33.85a3.51,3.51,0,0,1-3.17,1.5C103.78,35.35,102.08,34.41,102.08,32.13Zm6.72-.78V30.7h-1c-1.48,0-2.13.28-2.13,1.17,0,.61.41,1,1.27,1A1.61,1.61,0,0,0,108.8,31.35Z" fill="#14aa40"/><path d="M114.23,24.39h3.67v2.13a3.39,3.39,0,0,1,3.47-2.28v3.43c-2.24-.07-3.47.63-3.47,2.35V35.1h-3.67Z" fill="#14aa40"/><path d="M122,29.88v-.17a5.48,5.48,0,0,1,5.79-5.61c2.94,0,5.46,1.68,5.46,5.53v1h-7.55A2.15,2.15,0,0,0,128,32.83c1.21,0,1.72-.55,1.86-1.27h3.45c-.33,2.42-2.2,3.79-5.43,3.79S122,33.38,122,29.88Zm7.68-1.35c-.06-1.3-.7-2-1.89-2a2,2,0,0,0-2,2Z" fill="#14aa40"/><path d="M134,29.88v-.17a5.48,5.48,0,0,1,5.8-5.61c2.93,0,5.45,1.68,5.45,5.53v1h-7.54a2.14,2.14,0,0,0,2.23,2.23c1.21,0,1.72-.55,1.86-1.27h3.45c-.33,2.42-2.2,3.79-5.43,3.79S134,33.38,134,29.88Zm7.68-1.35c-.06-1.3-.7-2-1.88-2a2,2,0,0,0-2.05,2Z" fill="#14aa40"/><path d="M146.5,24.39h3.67v2.13a3.38,3.38,0,0,1,3.46-2.28v3.43c-2.23-.07-3.46.63-3.46,2.35V35.1H146.5Z" fill="#14aa40"/><path d="M21.58,54.15V49.38H20.29v-2.5h1.29V44.64h3.67v2.24h2.11v2.5H25.25V53.8c0,.78.39,1.13,1.08,1.13a2.89,2.89,0,0,0,1.05-.18v2.78a7.4,7.4,0,0,1-2,.31C22.93,57.84,21.58,56.67,21.58,54.15Z" fill="#14aa40"/><path d="M28.75,46.88h3.67V49a3.38,3.38,0,0,1,3.46-2.28v3.43c-2.23-.07-3.46.63-3.46,2.35V57.6H28.75Z" fill="#14aa40"/><path d="M36.36,54.62c0-2.52,2.13-3.5,5.7-3.5h1v-.25c0-1-.25-1.7-1.41-1.7a1.32,1.32,0,0,0-1.46,1.27H36.77c.16-2.58,2.19-3.85,5.12-3.85s4.84,1.21,4.84,4.06v7H43.16V56.35A3.52,3.52,0,0,1,40,57.84C38.06,57.84,36.36,56.9,36.36,54.62Zm6.72-.77v-.66h-1c-1.48,0-2.13.29-2.13,1.17,0,.61.41,1,1.27,1C42.3,55.36,43.08,54.77,43.08,53.85Z" fill="#14aa40"/><path d="M48.43,44a2,2,0,1,1,2,1.88A1.92,1.92,0,0,1,48.43,44Zm.19,2.91h3.67V57.6H48.62Z" fill="#14aa40"/><path d="M54.25,46.88h3.67V48.6a3.79,3.79,0,0,1,3.53-2c2.07,0,3.5,1.29,3.5,4v7H61.28V51.37c0-1.21-.47-1.81-1.53-1.81s-1.83.66-1.83,2v6H54.25Z" fill="#14aa40"/><path d="M66.66,44a1.91,1.91,0,0,1,2-1.91,1.9,1.9,0,1,1,0,3.79A1.9,1.9,0,0,1,66.66,44Zm.18,2.91h3.67V57.6H66.84Z" fill="#14aa40"/><path d="M72.48,46.88h3.67V48.6a3.77,3.77,0,0,1,3.52-2c2.07,0,3.51,1.29,3.51,4v7H79.51V51.37c0-1.21-.47-1.81-1.54-1.81s-1.82.66-1.82,2v6H72.48Z" fill="#14aa40"/><path d="M84.37,57.6H88c.16.77.63,1.39,2,1.39a2,2,0,0,0,2.28-2.26V55.1a3.76,3.76,0,0,1-3.32,2c-2.5,0-4.55-1.84-4.55-5.14v-.17c0-3.15,2-5.16,4.55-5.16a3.5,3.5,0,0,1,3.32,1.8V46.88h3.67v9.81c0,3.2-2.11,4.88-6,4.88C86.34,61.57,84.66,60,84.37,57.6Zm8-5.7v-.15c0-1.47-.76-2.41-2.11-2.41s-2.11,1-2.11,2.44v.16c0,1.47.78,2.42,2.09,2.42S92.36,53.41,92.36,51.9Z" fill="#14aa40"/><path d="M102.08,49.38h-1.35v-2.5h1.35v-.94c0-2.67,1.66-3.94,4.2-3.94a6.19,6.19,0,0,1,1.68.23v2.68a3.43,3.43,0,0,0-1-.14,1.08,1.08,0,0,0-1.23,1.17v.94h2.17v2.5h-2.17V57.6h-3.65Z" fill="#14aa40"/><path d="M108.19,52.37v-.16c0-3.45,2.56-5.62,5.88-5.62s5.84,2.11,5.84,5.51v.17c0,3.48-2.56,5.57-5.86,5.57S108.19,55.83,108.19,52.37Zm8-.06v-.17c0-1.8-.72-2.8-2.11-2.8s-2.13,1-2.13,2.76v.17c0,1.84.72,2.85,2.13,2.85S116.18,54.09,116.18,52.31Z" fill="#14aa40"/><path d="M121.21,46.88h3.66V49a3.39,3.39,0,0,1,3.47-2.28v3.43c-2.24-.07-3.47.63-3.47,2.35V57.6h-3.66Z" fill="#14aa40"/><path d="M136.4,54.57c-2.45-.17-3.64-1.47-3.74-3.34h2.62a1.34,1.34,0,0,0,1.12,1.33V50.49c-2.47-.35-3.52-1.24-3.52-3.21,0-1.72,1.35-3,3.52-3.1V42.92h1.1v1.27c2.05.17,3.27,1.12,3.44,3.06h-2.56a1.13,1.13,0,0,0-.88-1.06v2c2.17.31,3.58,1,3.58,3.1,0,1.73-1.12,3.17-3.58,3.33v1.77h-1.1Zm0-6.6V46.16c-.64.11-1,.45-1,.91S135.63,47.82,136.4,48Zm1.1,2.71v1.88a1,1,0,0,0,.95-1C138.45,51.09,138.25,50.85,137.5,50.68Z" fill="#14aa40"/><path d="M144.71,47.08l-2.79,1.72V45.3l3.37-2.36h3.62V57.6h-4.2Z" fill="#14aa40"/><path d="M157.54,54.79h-7.13V53.21l6.11-10.27h5.06v9h1.88v2.89h-1.88V57.6h-4Zm.1-2.89V46.1l-3.27,5.8Z" fill="#14aa40"/><path d="M164.45,53.46h3.85c.15.73.6,1.25,1.73,1.25,1.74,0,2.46-1.32,2.52-3.82a3.5,3.5,0,0,1-3.32,1.73c-2.81,0-5-1.62-5-4.74s2.29-5.16,6-5.16c4.37,0,6.42,2.93,6.42,7.17v.49c0,4.76-2.3,7.44-6.48,7.44C166.77,57.82,164.76,56.26,164.45,53.46Zm7.79-5.6a2,2,0,0,0-2-2.19,2,2,0,0,0-1.95,2.15,1.91,1.91,0,0,0,1.95,2.09A2,2,0,0,0,172.24,47.86Z" fill="#14aa40"/><path d="M177,55.75a2,2,0,0,1,2.09-2.07,2.07,2.07,0,1,1,0,4.14A2,2,0,0,1,177,55.75Z" fill="#14aa40"/></g><g id="rect"><rect width="300" height="250" fill="none"/></g></g></g></svg>