<svg xmlns="http://www.w3.org/2000/svg" viewBox="0 0 300 250"><title>txt</title><g id="Layer_2" data-name="Layer 2"><g id="Artboard_1" data-name="Artboard 1" style="isolation:isolate"><g id="rect"><rect width="300" height="250" fill="none"/></g><g id="Your_future_could_take_on_a_whole_new_look." data-name="Your future could take on a whole new look."><path d="M24.94,28.83l-4.78-8.38h4.57l2.48,4.94,2.48-4.94h4l-4.55,8.38V35.1H24.94Z" fill="#14aa40"/><path d="M32.18,29.88v-.17c0-3.44,2.56-5.61,5.88-5.61s5.84,2.11,5.84,5.51v.17c0,3.48-2.56,5.57-5.86,5.57S32.18,33.34,32.18,29.88Zm8-.06v-.17c0-1.8-.72-2.8-2.11-2.8s-2.13,1-2.13,2.76v.17c0,1.84.71,2.84,2.13,2.84S40.17,31.6,40.17,29.82Z" fill="#14aa40"/><path d="M45.11,31.37v-7h3.67v6.39c0,1.21.47,1.8,1.52,1.8s1.82-.65,1.82-2V24.39h3.67V35.1H52.12V33.44a3.52,3.52,0,0,1-3.4,1.91C46.65,35.35,45.11,34.08,45.11,31.37Z" fill="#14aa40"/><path d="M57.66,24.39h3.67v2.13a3.37,3.37,0,0,1,3.46-2.28v3.43c-2.23-.07-3.46.63-3.46,2.35V35.1H57.66Z" fill="#14aa40"/><path d="M70.41,26.89H69.06v-2.5h1.35v-.95c0-2.66,1.66-3.93,4.2-3.93a6.65,6.65,0,0,1,1.68.22v2.69a3.49,3.49,0,0,0-1-.14,1.07,1.07,0,0,0-1.23,1.16v.95h2.17v2.5H74.06V35.1H70.41Z" fill="#14aa40"/><path d="M77.38,31.37v-7h3.67v6.39c0,1.21.47,1.8,1.51,1.8s1.83-.65,1.83-2V24.39h3.66V35.1H84.39V33.44A3.53,3.53,0,0,1,81,35.35C78.91,35.35,77.38,34.08,77.38,31.37Z" fill="#14aa40"/><path d="M90.42,31.66V26.89h-1.3v-2.5h1.3V22.15h3.66v2.24h2.11v2.5H94.08v4.42a1,1,0,0,0,1.09,1.13,2.8,2.8,0,0,0,1-.18V35a7.32,7.32,0,0,1-2,.31C91.77,35.35,90.42,34.18,90.42,31.66Z" fill="#14aa40"/><path d="M97.51,31.37v-7h3.67v6.39c0,1.21.47,1.8,1.51,1.8s1.83-.65,1.83-2V24.39h3.66V35.1h-3.66V33.44a3.53,3.53,0,0,1-3.41,1.91C99,35.35,97.51,34.08,97.51,31.37Z" fill="#14aa40"/><path d="M110.05,24.39h3.67v2.13a3.38,3.38,0,0,1,3.46-2.28v3.43c-2.23-.07-3.46.63-3.46,2.35V35.1h-3.67Z" fill="#14aa40"/><path d="M117.84,29.88v-.17a5.48,5.48,0,0,1,5.8-5.61c2.93,0,5.45,1.68,5.45,5.53v1h-7.54a2.15,2.15,0,0,0,2.24,2.23c1.21,0,1.72-.55,1.86-1.27h3.44c-.32,2.42-2.19,3.79-5.43,3.79S117.84,33.38,117.84,29.88Zm7.69-1.35c-.06-1.3-.7-2-1.89-2a2,2,0,0,0-2,2Z" fill="#14aa40"/><path d="M20.51,52.37v-.16a5.39,5.39,0,0,1,5.72-5.62c2.62,0,5,1.15,5.25,4.41H28a1.58,1.58,0,0,0-1.72-1.56c-1.29,0-2,.92-2,2.72v.17c0,1.86.72,2.83,2.11,2.83a1.79,1.79,0,0,0,1.87-1.79h3.3c-.1,2.71-1.93,4.47-5.39,4.47C23,57.84,20.51,56,20.51,52.37Z" fill="#14aa40"/><path d="M32.16,52.37v-.16c0-3.45,2.56-5.62,5.88-5.62s5.84,2.11,5.84,5.51v.17c0,3.48-2.56,5.57-5.86,5.57S32.16,55.83,32.16,52.37Zm8-.06v-.17c0-1.8-.72-2.8-2.11-2.8s-2.13,1-2.13,2.76v.17c0,1.84.71,2.85,2.13,2.85S40.15,54.09,40.15,52.31Z" fill="#14aa40"/><path d="M45.09,53.87v-7h3.67v6.39c0,1.21.47,1.8,1.52,1.8s1.82-.65,1.82-2V46.88h3.67V57.6H52.1V55.94a3.52,3.52,0,0,1-3.4,1.9C46.63,57.84,45.09,56.57,45.09,53.87Z" fill="#14aa40"/><path d="M57.74,42.16h3.65V57.6H57.74Z" fill="#14aa40"/><path d="M62.82,52.35v-.16c0-3.65,2-5.6,4.55-5.6a3.48,3.48,0,0,1,3.3,1.8V42.16h3.67V57.6H70.67V55.85a3.6,3.6,0,0,1-3.34,2C64.85,57.84,62.82,56.06,62.82,52.35Zm7.95-.06v-.17c0-1.8-.75-2.76-2.11-2.76s-2.11.92-2.11,2.78v.17c0,1.8.8,2.72,2.07,2.72S70.77,54.11,70.77,52.29Z" fill="#14aa40"/><path d="M80.43,54.15V49.38H79.14v-2.5h1.29V44.64H84.1v2.24h2.11v2.5H84.1V53.8a1,1,0,0,0,1.09,1.13,2.84,2.84,0,0,0,1-.18v2.78a7.4,7.4,0,0,1-2,.31C81.78,57.84,80.43,56.67,80.43,54.15Z" fill="#14aa40"/><path d="M87,54.62c0-2.52,2.13-3.5,5.7-3.5h1v-.25c0-1-.24-1.7-1.41-1.7a1.32,1.32,0,0,0-1.45,1.27H87.44c.17-2.58,2.2-3.85,5.13-3.85s4.83,1.21,4.83,4.06v7H93.84V56.35a3.56,3.56,0,0,1-3.18,1.49C88.73,57.84,87,56.9,87,54.62Zm6.72-.77v-.66h-1c-1.47,0-2.13.29-2.13,1.17,0,.61.41,1,1.27,1C93,55.36,93.75,54.77,93.75,53.85Z" fill="#14aa40"/><path d="M99.19,42.16h3.67v9l2.89-4.24h3.81l-3.51,4.81,3.8,5.91h-4.1l-2.89-4.7v4.7H99.19Z" fill="#14aa40"/><path d="M109.58,52.37v-.16a5.48,5.48,0,0,1,5.8-5.62c2.93,0,5.45,1.68,5.45,5.53v1h-7.54a2.14,2.14,0,0,0,2.24,2.23c1.2,0,1.72-.55,1.86-1.27h3.44c-.32,2.42-2.19,3.79-5.43,3.79S109.58,55.87,109.58,52.37ZM117.27,51c-.06-1.29-.7-2-1.89-2a2,2,0,0,0-2,2Z" fill="#14aa40"/><path d="M125.27,52.37v-.16c0-3.45,2.56-5.62,5.88-5.62S137,48.7,137,52.1v.17c0,3.48-2.56,5.57-5.86,5.57S125.27,55.83,125.27,52.37Zm8-.06v-.17c0-1.8-.72-2.8-2.11-2.8S129,50.3,129,52.1v.17c0,1.84.71,2.85,2.13,2.85S133.26,54.09,133.26,52.31Z" fill="#14aa40"/><path d="M138.28,46.88H142V48.6a3.77,3.77,0,0,1,3.53-2c2.06,0,3.5,1.29,3.5,4v7h-3.67V51.37c0-1.21-.47-1.81-1.54-1.81s-1.82.66-1.82,2v6h-3.67Z" fill="#14aa40"/><path d="M153.88,54.62c0-2.52,2.13-3.5,5.7-3.5h1v-.25c0-1-.24-1.7-1.41-1.7a1.32,1.32,0,0,0-1.45,1.27h-3.45c.17-2.58,2.2-3.85,5.13-3.85s4.83,1.21,4.83,4.06v7h-3.56V56.35a3.56,3.56,0,0,1-3.18,1.49C155.58,57.84,153.88,56.9,153.88,54.62Zm6.72-.77v-.66h-1c-1.47,0-2.13.29-2.13,1.17,0,.61.41,1,1.27,1C159.83,55.36,160.6,54.77,160.6,53.85Z" fill="#14aa40"/><path d="M20.18,69.37H24l1.55,6.41,1.81-6.41h2.95l1.6,6.41,1.74-6.41h3.48l-3.4,10.72h-3.5l-1.6-6-1.66,6H23.42Z" fill="#14aa40"/><path d="M38.1,64.66h3.67v6.43a3.77,3.77,0,0,1,3.52-2c2.07,0,3.51,1.29,3.51,4v7H45.13V73.86c0-1.21-.47-1.81-1.54-1.81s-1.82.66-1.82,2v6H38.1Z" fill="#14aa40"/><path d="M50,74.86V74.7c0-3.45,2.56-5.62,5.88-5.62s5.84,2.11,5.84,5.51v.17c0,3.48-2.56,5.57-5.86,5.57S50,78.32,50,74.86Zm8-.06v-.16c0-1.81-.71-2.81-2.11-2.81s-2.13,1-2.13,2.76v.17c0,1.84.72,2.85,2.13,2.85S58,76.58,58,74.8Z" fill="#14aa40"/><path d="M63.13,64.66h3.65V80.09H63.13Z" fill="#14aa40"/><path d="M68.17,74.86V74.7A5.49,5.49,0,0,1,74,69.08c2.93,0,5.45,1.68,5.45,5.54v1H71.88a2.15,2.15,0,0,0,2.24,2.23c1.21,0,1.72-.55,1.86-1.27h3.44C79.1,79,77.23,80.33,74,80.33S68.17,78.37,68.17,74.86Zm7.69-1.35c-.06-1.29-.7-2-1.89-2a2,2,0,0,0-2,2Z" fill="#14aa40"/><path d="M84.43,69.37H88.1v1.72a3.77,3.77,0,0,1,3.52-2c2.07,0,3.51,1.29,3.51,4v7H91.46V73.86c0-1.21-.47-1.81-1.54-1.81s-1.82.66-1.82,2v6H84.43Z" fill="#14aa40"/><path d="M96.34,74.86V74.7a5.48,5.48,0,0,1,5.8-5.62c2.93,0,5.45,1.68,5.45,5.54v1h-7.54a2.14,2.14,0,0,0,2.23,2.23c1.21,0,1.73-.55,1.87-1.27h3.44c-.33,2.42-2.19,3.79-5.43,3.79S96.34,78.37,96.34,74.86ZM104,73.51c-.07-1.29-.7-2-1.89-2a2,2,0,0,0-2,2Z" fill="#14aa40"/><path d="M107.66,69.37h3.83l1.56,6.41,1.8-6.41h3l1.6,6.41,1.74-6.41h3.48l-3.4,10.72h-3.5l-1.6-6-1.66,6h-3.57Z" fill="#14aa40"/><path d="M129.41,64.66h3.64V80.09h-3.64Z" fill="#14aa40"/><path d="M134.45,74.86V74.7c0-3.45,2.56-5.62,5.88-5.62s5.84,2.11,5.84,5.51v.17c0,3.48-2.56,5.57-5.86,5.57S134.45,78.32,134.45,74.86Zm8-.06v-.16c0-1.81-.72-2.81-2.11-2.81s-2.13,1-2.13,2.76v.17c0,1.84.72,2.85,2.13,2.85S142.44,76.58,142.44,74.8Z" fill="#14aa40"/><path d="M146.89,74.86V74.7c0-3.45,2.56-5.62,5.88-5.62s5.84,2.11,5.84,5.51v.17c0,3.48-2.56,5.57-5.86,5.57S146.89,78.32,146.89,74.86Zm8-.06v-.16c0-1.81-.71-2.81-2.11-2.81s-2.13,1-2.13,2.76v.17c0,1.84.72,2.85,2.13,2.85S154.88,76.58,154.88,74.8Z" fill="#14aa40"/><path d="M159.91,64.66h3.67v9l2.89-4.24h3.81l-3.5,4.82,3.79,5.9h-4.1l-2.89-4.7v4.7h-3.67Z" fill="#14aa40"/><path d="M171.29,78.24a2,2,0,0,1,2.09-2.07,2.07,2.07,0,1,1,0,4.14A2,2,0,0,1,171.29,78.24Z" fill="#14aa40"/></g></g></g></svg>