<svg xmlns="http://www.w3.org/2000/svg" viewBox="0 0 132.66 35.28"><title>enroll_now</title><g id="Layer_2" data-name="Layer 2"><g id="Artboard_2" data-name="Artboard 2" style="isolation:isolate"><g id="CTA"><g id="Rectangle_1" data-name="Rectangle 1"><rect width="132.66" height="35.28" fill="none"/></g><g id="Enroll_now" data-name="Enroll now"><path d="M25.75,11.8h7.93V14H28.49v2.84h4.15v2H28.49v3H34V24H25.75Z" fill="#262626"/><path d="M35.41,15.07h2.46v1.42a3.09,3.09,0,0,1,2.9-1.62c1.75,0,3,1.05,3,3.44V24H41.3V18.67c0-1.21-.48-1.79-1.57-1.79a1.77,1.77,0,0,0-1.86,2V24H35.41Z" fill="#262626"/><path d="M45.62,15.07h2.47v1.71A2.91,2.91,0,0,1,51,14.94v2.3c-1.82,0-2.88.58-2.88,2.28V24H45.62Z" fill="#262626"/><path d="M51.64,19.62v-.14A4.69,4.69,0,0,1,61,19.43v.14a4.69,4.69,0,0,1-9.38.05Zm6.88,0v-.12c0-1.71-.8-2.73-2.18-2.73s-2.18,1-2.18,2.69v.14c0,1.7.78,2.72,2.18,2.72S58.52,21.27,58.52,19.59Z" fill="#262626"/><path d="M62.49,11h2.45V24H62.49Z" fill="#262626"/><path d="M67,11h2.45V24H67Z" fill="#262626"/><path d="M75,15.07h2.47v1.42a3.09,3.09,0,0,1,2.9-1.62c1.75,0,3,1.05,3,3.44V24H80.87V18.67c0-1.21-.48-1.79-1.57-1.79a1.77,1.77,0,0,0-1.86,2V24H75Z" fill="#262626"/><path d="M84.65,19.62v-.14A4.69,4.69,0,0,1,94,19.43v.14a4.69,4.69,0,0,1-9.38.05Zm6.88,0v-.12c0-1.71-.8-2.73-2.18-2.73s-2.18,1-2.18,2.69v.14c0,1.7.78,2.72,2.18,2.72S91.53,21.27,91.53,19.59Z" fill="#262626"/><path d="M94.37,15.07H97l1.59,6,1.72-6h2l1.57,6,1.68-6h2.37L105.1,24h-2.42l-1.51-5.59L99.53,24H97.08Z" fill="#262626"/></g></g></g></g></svg>