<svg xmlns="http://www.w3.org/2000/svg" viewBox="0 0 132.66 35.28"><title>cta_txt</title><g id="Layer_2" data-name="Layer 2"><g id="Artboard_1" data-name="Artboard 1" style="isolation:isolate"><g id="CTA"><g id="Rectangle_1" data-name="Rectangle 1"><rect width="132.66" height="35.28" fill="none"/></g><g id="Learn_more" data-name="Learn more"><path d="M22.11,11.8h2.76v10h5V24H22.11Z" fill="#262626"/><path d="M30.46,19.64V19.5A4.42,4.42,0,0,1,35,14.87c2.3,0,4.34,1.34,4.34,4.53v.68H33a2.13,2.13,0,0,0,2.21,2.33c1.15,0,1.71-.49,1.86-1.24h2.33c-.29,1.92-1.82,3-4.25,3A4.32,4.32,0,0,1,30.46,19.64ZM37,18.56c-.09-1.34-.77-2-1.94-2a2,2,0,0,0-2,2Z" fill="#262626"/><path d="M40.25,21.51c0-2.08,1.91-2.86,4.63-2.86h1v-.36c0-1.05-.33-1.63-1.45-1.63a1.35,1.35,0,0,0-1.52,1.26H40.59c.16-2.11,1.82-3.05,4-3.05s3.73.88,3.73,3.3V24h-2.4V22.91a3,3,0,0,1-2.69,1.26C41.61,24.17,40.25,23.38,40.25,21.51Zm5.64-.65v-.75h-1c-1.43,0-2.26.31-2.26,1.26,0,.65.39,1.08,1.29,1.08C45.05,22.45,45.89,21.85,45.89,20.86Z" fill="#262626"/><path d="M50.18,15.07h2.47v1.71a2.9,2.9,0,0,1,2.88-1.84v2.3c-1.82,0-2.88.58-2.88,2.28V24H50.18Z" fill="#262626"/><path d="M56.89,15.07h2.47v1.42a3.08,3.08,0,0,1,2.9-1.62c1.75,0,3,1.05,3,3.44V24H62.78V18.67c0-1.21-.47-1.79-1.56-1.79a1.77,1.77,0,0,0-1.86,2V24H56.89Z" fill="#262626"/><path d="M70.64,15.07h2.47v1.37a3,3,0,0,1,2.72-1.57,2.45,2.45,0,0,1,2.49,1.55,3.53,3.53,0,0,1,3-1.55c1.66,0,2.93,1,2.93,3.4V24H81.79V18.55c0-1.14-.51-1.65-1.39-1.65a1.65,1.65,0,0,0-1.72,1.82V24H76.22V18.55c0-1.14-.52-1.65-1.39-1.65a1.65,1.65,0,0,0-1.72,1.82V24H70.64Z" fill="#262626"/><path d="M85.56,19.62v-.14a4.69,4.69,0,0,1,9.38-.05v.14a4.69,4.69,0,0,1-9.38.05Zm6.88,0v-.12c0-1.71-.8-2.73-2.18-2.73s-2.18,1-2.18,2.69v.14c0,1.7.78,2.72,2.18,2.72S92.44,21.27,92.44,19.59Z" fill="#262626"/><path d="M96.34,15.07h2.47v1.71a2.9,2.9,0,0,1,2.88-1.84v2.3c-1.82,0-2.88.58-2.88,2.28V24H96.34Z" fill="#262626"/><path d="M102.35,19.64V19.5a4.42,4.42,0,0,1,4.58-4.63c2.3,0,4.35,1.34,4.35,4.53v.68h-6.42a2.13,2.13,0,0,0,2.21,2.33c1.14,0,1.7-.49,1.86-1.24h2.33c-.29,1.92-1.82,3-4.26,3A4.32,4.32,0,0,1,102.35,19.64Zm6.53-1.08c-.09-1.34-.77-2-1.95-2a2,2,0,0,0-2,2Z" fill="#262626"/></g></g></g></g></svg>