<svg xmlns="http://www.w3.org/2000/svg" viewBox="0 0 300 600"><title>glassesTest</title><g id="Layer_2" data-name="Layer 2"><g id="rect"><rect width="300" height="600" fill="none"/></g><g id="glasses"><path d="M204.39,227a1.69,1.69,0,0,0-.83-1.34c-.88-.71-1.84-1.33-2.72-2a23.84,23.84,0,0,0-3.62-2,25.38,25.38,0,0,0-4.73-1.89c-1.29-.39-2.64-.6-4-.87-1.52-.12-3-.28-4.56-.38-.85,0-1.69.07-2.54.13a17.59,17.59,0,0,0-4.44.77c-1.35.44-2.71.85-4,1.32-.63.22-1.24.53-1.84.81s-1.38.65-2,1a11.62,11.62,0,0,0-1.25.92,19.58,19.58,0,0,0-2.06-.88l-.36-.1a11.22,11.22,0,0,0-4.84-.5,12,12,0,0,0-1.45.14,17.06,17.06,0,0,0-2.16.58,12.85,12.85,0,0,0-1.11-1.09c-.6-.47-1.24-.88-1.87-1.29s-1.12-.76-1.71-1.07c-1.26-.65-2.55-1.24-3.83-1.87a17.91,17.91,0,0,0-4.29-1.38c-.83-.17-1.67-.32-2.5-.48-1.52-.11-3-.17-4.56-.26-1.36.09-2.72.1-4.06.31a24.53,24.53,0,0,0-4.95,1.22,23.58,23.58,0,0,0-3.86,1.51c-1,.57-2,1.05-3,1.63a1.7,1.7,0,0,0-1,1.21,8.88,8.88,0,0,0,0,3.21,2.35,2.35,0,0,0,.17.44,1.4,1.4,0,0,0,1,1.19,1.25,1.25,0,0,0,.61,0,2.78,2.78,0,0,0,1.17-.51c0,1,.08,1.9.15,2.83a19.89,19.89,0,0,0,.23,2.18,18,18,0,0,0,.51,2.17c.32,1,.64,2.09,1,3.09a17.47,17.47,0,0,0,1.16,2.06c.48.8,1,1.6,1.48,2.39a10.23,10.23,0,0,0,2.3,2.25,12.16,12.16,0,0,0,4.35,2.34c.52.15,1,.32,1.56.49a14.55,14.55,0,0,0,1.81.56,9.6,9.6,0,0,0,1.93.15,14.1,14.1,0,0,0,2.52-.11,28.1,28.1,0,0,0,3-.79,18.42,18.42,0,0,0,2.34-.8c.8-.36,1.53-.87,2.3-1.31a6.6,6.6,0,0,1,.7-.32h0a19.88,19.88,0,0,0,2.77-2.58c.43-.61.85-1.24,1.25-1.87a24.18,24.18,0,0,0,1.29-2.6,12,12,0,0,0,1.21-3.8,2.17,2.17,0,0,1,.07-.24c.18-.91.34-1.83.56-2.73a1,1,0,0,1,.48-.62,7.27,7.27,0,0,1,7.79.55,1.09,1.09,0,0,1,.4.68c.09.92.11,1.85.17,2.77,0,.09,0,.17,0,.25a12,12,0,0,0,.68,3.94,21.6,21.6,0,0,0,.91,2.75c.3.68.63,1.36,1,2a20.4,20.4,0,0,0,2.38,2.94h0c.24.16.46.27.65.42.7.54,1.35,1.15,2.09,1.62a17.55,17.55,0,0,0,2.21,1.11,24.86,24.86,0,0,0,2.82,1.2,13.57,13.57,0,0,0,2.48.46,9.63,9.63,0,0,0,1.93.12,16.92,16.92,0,0,0,1.87-.3l1.62-.27a12.34,12.34,0,0,0,4.63-1.71,10.52,10.52,0,0,0,2.59-1.91q.92-1.06,1.8-2.16a17.25,17.25,0,0,0,1.43-1.88c.55-.93,1-1.93,1.47-2.92a19.36,19.36,0,0,0,.82-2.07c.22-.7.37-1.41.53-2.13.2-1,.37-1.92.57-2.93l.91.57.84.06c.15,0,.37,0,.43,0a4.58,4.58,0,0,0,.81-1.16,8.71,8.71,0,0,0,.46-3.17m-60.14-9.81,2.08.73-.06.16-2.07-.77.05-.12m3.46,3.07a1.36,1.36,0,0,0,0,.17l-2.43-.54a1.11,1.11,0,0,1,0-.17l2.45.54m.37.84a34.6,34.6,0,0,1,5,1.89l.27.13h0c.23.26.69.43.91.64a1.59,1.59,0,0,1,.44.81.23.23,0,0,1,0,.16v.05c0,.1,0,.2,0,.3s0,.1,0,.14a5,5,0,0,1,0,.67,18.88,18.88,0,0,1-.22,5.81,9.89,9.89,0,0,0-.17,1.09,11.06,11.06,0,0,1-1.84,4.18,16.48,16.48,0,0,1-2.88,3.4,8.45,8.45,0,0,1-2.08,1.35,29.67,29.67,0,0,1-3.63,1.42l-.32.09a8.58,8.58,0,0,1-5.72.08,18.06,18.06,0,0,1-2.89-1,15.63,15.63,0,0,1-3.31-2.17,13,13,0,0,1-1.89-2,22.63,22.63,0,0,1-2.79-4.84,26.46,26.46,0,0,1-1-3.9c-.1-.8-.1-1.6-.19-2.4a12,12,0,0,1,0-3,.87.87,0,0,1,.29-.56c.65-.46,1.32-.88,2-1.31a32,32,0,0,1,3.62-1.67,9.6,9.6,0,0,1,3.42-.84,29.33,29.33,0,0,1,4.08-.19,26.22,26.22,0,0,1,3.93.57c1.62.33,3.22.74,4.82,1.13m-8.85-2.74c0-.06,0-.13,0-.19l1.09.16v.06l-1.11,0m4.37,1.14-2.27-.32a2,2,0,0,1-.21-.1l0-.15,2.49.38c0,.06,0,.13,0,.19m-1.54-3v.21l-2.73-.05v-.21l2.73.05m-4.83,2.16-1.64.07a1.71,1.71,0,0,1,1.64-.07M135.79,217l0,.12-1.1.09,0-.17c.35-.24.74,0,1.1,0m.49.92-2.88.37a3.11,3.11,0,0,1,2.88-.37M133,219c0,.05,0,.1,0,.14-.18.09-.35.18-.53.25s-.2-.07-.19-.09,0-.23.1-.24A2.72,2.72,0,0,1,133,219m-.66-1.77,0,.15-1.24.39a1.16,1.16,0,0,1,1.19-.54m.27.75-2,.62a2.91,2.91,0,0,1,2-.62m-1.8,1.32c-.66.59-.85.64-1.35.35l1.35-.35m-1.63.66-2.72,1.33-.07-.12a20.79,20.79,0,0,1,2.7-1.38l.09.17m-.13-1.55.09.14c-.12.08-.24.17-.37.24l-2.12,1c.23-.07.47-.12.7-.21s.46-.23.7-.32a6.07,6.07,0,0,1-2.64,1.32l1.25-.8-.9.22,0-.1a18.4,18.4,0,0,1,3.33-1.49m-3.1.15a.61.61,0,0,0,0,.12l-1.33.59,0-.13,1.33-.58m28.31,18.93a7.61,7.61,0,0,1-1,1.57,12.14,12.14,0,0,1-1.36,1.66,15.62,15.62,0,0,1-1.9,1.52c-.65.45-1.34.86-2,1.26a6.68,6.68,0,0,1-1.23.52c-.62.21-1.26.37-1.88.57a12.14,12.14,0,0,1-3.79.86A11.68,11.68,0,0,1,137,245c-.62-.23-1.31-.32-1.92-.58-1.17-.49-2.33-1-3.44-1.6a13,13,0,0,1-2-1.42,11.65,11.65,0,0,1-2.75-3.52c-.4-.72-.88-1.39-1.29-2.1a6,6,0,0,1-.5-1.2c-.39-1.27-.78-2.55-1.1-3.84a19.27,19.27,0,0,1-.28-2.14c0-.21-.07-.42-.1-.63a8.79,8.79,0,0,1,0-2.56,2.73,2.73,0,0,1,.1-.41q.48-.3,1-.57c0,.72-.07,1.37,0,2a15,15,0,0,0,.26,2.21,36.74,36.74,0,0,0,.9,3.58,19.6,19.6,0,0,0,1.19,2.84,22.42,22.42,0,0,0,1.56,2.69,17.92,17.92,0,0,0,1.56,1.81,13.49,13.49,0,0,0,1.2,1.3q.5.45,1,.87a17.57,17.57,0,0,0,7.32,2.59h1.11c.27,0,.53-.06.8-.06a9.88,9.88,0,0,0,3.72-1,26.53,26.53,0,0,0,3-1.39,8.61,8.61,0,0,0,2.59-2.06,31.78,31.78,0,0,0,2.08-2.7,10.09,10.09,0,0,0,1.5-2.94c.21-.82.41-1.66.59-2.49.1-.49.19-1,.28-1.47a14.78,14.78,0,0,1,.13-1.48c0-.09,0-.19.05-.3a5.58,5.58,0,0,1,.29-1.62.38.38,0,0,1,.28-.21.36.36,0,0,0,0,.09s0,0,0,0a2.71,2.71,0,0,1,.14,1c-.05.54-.11,1.09-.15,1.64s-.09,1.17-.16,1.76-.18,1-.23,1.48-.28.94-.41,1.4c-.34,1.15-.69,2.29-1.13,3.41m9.19-14.11c.12.17.22.36.35.51a.75.75,0,0,1-.54-.32l.19-.19m-.39.41c.24.3.48.6.69.92a.87.87,0,0,1,.09,1c-.21-.35-.42-.7-.62-1.05l.18-.17a.43.43,0,0,0-.31-.05l-.26-.43.23-.26m-.45,1-.18-.3.24-.28.21.34a2.6,2.6,0,0,0-.27.24m.11.74-.42.34a1.93,1.93,0,0,1,.3-.57l.12.23m0-2.17.1.12-.19.24-.12-.19.21-.17m-.38-.34a.34.34,0,0,1,.12,0l-.13.17-.11-.19.12,0m-.05.71.17.21-.2.28c-.05-.1-.1-.2-.16-.3l.19-.19m-.37-.42.19.19-.14.18c-.05-.09-.1-.18-.16-.27l.11-.1m-.69-.11.17.21a.8.8,0,0,1-.58.25c.15-.14.27-.31.41-.46m.33.45c.07.1.13.2.2.29l-1.24,1.55a.87.87,0,0,1,.23-1c.26-.29.53-.56.81-.83m-1-.3a.61.61,0,0,1-.74.54c.09-.46.35-.56.74-.54m.09.63c-.06.48-.21.59-.69.43l.69-.43m.29,2.66a5.09,5.09,0,0,1-.79.21l-.05-.11a5.3,5.3,0,0,1,.63-.54c.05,0,.29,0,.29.07s0,.34-.08.37m.17-1.51c.25-.33.5-.66.77-1,.06.1.13.2.19.31a3.75,3.75,0,0,1-.81.83l-.15-.17M162.8,227c-.23,0-.47-.06-.71-.08l-.71,0,.31-.23a.56.56,0,0,1-.23-.89c.25-.34.52-.69.79-1l.17.31c-.1.14-.2.3-.32.5-.33.55-.33.82,0,1v-.36l.11.09.58-.57.07.11a.56.56,0,0,1-.36.85l.27.27m.19-1.66-.2-.24.24-.23c.06.1.11.2.17.29l-.21.18m1,1.81a4.09,4.09,0,0,1-.75-.31c-.06,0-.05-.25,0-.38s.25-.08.3,0a6.42,6.42,0,0,1,.55.62l-.07.1m-.09-2.9.62.52c-.49.09-.63,0-.62-.52m.18-.61c.39,0,.63.16.66.63-.44,0-.64-.23-.66-.63m35,.05,1.24.75-.08.13-1.22-.77.06-.11m-3.05-.59A18.46,18.46,0,0,1,199.1,225l0,.09-.86-.35,1.12,1a6.15,6.15,0,0,1-2.43-1.68c.23.12.43.29.65.42s.45.2.67.3l-2-1.28a1.85,1.85,0,0,1-.33-.29Zm-.23,1.36a21.25,21.25,0,0,1,2.48,1.74l-.09.12-2.5-1.7.11-.16m-2.87-3a1.17,1.17,0,0,1,1.11.7l-1.17-.57.06-.13m1.56,1.6-1.93-.89a2.82,2.82,0,0,1,1.93.89m1,1.2c-.53.21-.71.13-1.28-.54l1.28.54M192,223.12a5.29,5.29,0,0,1,.57.15s.07.16.06.25a.28.28,0,0,1-.2.06c-.17-.09-.33-.21-.49-.31l.06-.15m-2.51-2.32c.35.13.78-.1,1.09.19l0,.17-1.07-.24,0-.12m2.2,1.61-2.8-.76a3.06,3.06,0,0,1,2.8.76m-2.23.12-1.62-.3a1.72,1.72,0,0,1,1.62.3m-6.1-3.11,2.71.33,0,.21-2.71-.34,0-.2m2.55,2.2-1.1-.13v-.06h1.11c0,.07,0,.13,0,.2m-2,.3v.14a.58.58,0,0,1-.21.07h-2.3a1.34,1.34,0,0,0,0-.2l2.51,0m-2.82-2.16,0,.12-2.16.48,0-.17,2.16-.43m-1.36,2.37a.91.91,0,0,1,0,.17l-2.49.19c0-.05,0-.11,0-.17l2.49-.19m-10.34,4.77a5.09,5.09,0,0,1,.12-.66,4.58,4.58,0,0,1,.09-.9c.17-.68,1-.93,1.63-1,.09,0,.18-.07.27-.09a34,34,0,0,1,5.25-1.17c1.64-.17,3.28-.35,4.93-.45a26.31,26.31,0,0,1,4,0,29.05,29.05,0,0,1,4,.76,9.78,9.78,0,0,1,3.27,1.3,33.54,33.54,0,0,1,3.35,2.16c.61.52,1.22,1,1.8,1.58a.92.92,0,0,1,.21.59,11.91,11.91,0,0,1-.37,3c-.2.78-.31,1.58-.52,2.35a13.57,13.57,0,0,1-.6,1.61,13,13,0,0,1-1,2.11,22.88,22.88,0,0,1-3.44,4.4,12.39,12.39,0,0,1-2.16,1.74,15.79,15.79,0,0,1-3.57,1.69,16.54,16.54,0,0,1-3,.6,8.54,8.54,0,0,1-5.65-.87l-.3-.13a27.72,27.72,0,0,1-3.4-1.92,8.3,8.3,0,0,1-1.87-1.62,16.23,16.23,0,0,1-2.38-3.77,11.07,11.07,0,0,1-1.24-4.39,10.28,10.28,0,0,0,0-1.11,19.08,19.08,0,0,1,.59-5.78m30.64,6.46c-.06.2-.13.4-.18.61a20.42,20.42,0,0,1-.58,2.07c-.5,1.24-1.06,2.45-1.62,3.66a5.47,5.47,0,0,1-.67,1.11c-.5.65-1.07,1.25-1.57,1.9a11.45,11.45,0,0,1-3.21,3.11,12.69,12.69,0,0,1-2.16,1.13c-1.18.43-2.4.78-3.62,1.1-.65.17-1.34.17-2,.31a11.68,11.68,0,0,1-4.13-.16,12.32,12.32,0,0,1-3.63-1.38c-.59-.29-1.2-.53-1.78-.83a7,7,0,0,1-1.15-.69c-.63-.48-1.26-1-1.84-1.53a14,14,0,0,1-1.67-1.77,12.62,12.62,0,0,1-1.12-1.83,7.34,7.34,0,0,1-.75-1.7c-.28-1.16-.47-2.34-.64-3.52a19.44,19.44,0,0,1-.34-3.22c0-.4,0-.81,0-1.22a6.77,6.77,0,0,1,0-1.68,1.66,1.66,0,0,1,.38-1.29.34.34,0,0,1,.55.18,5.36,5.36,0,0,1,.06,1.65v.3a14.52,14.52,0,0,1-.07,1.48c0,.5,0,1,.08,1.49,0,.86.13,1.71.23,2.56a10.22,10.22,0,0,0,1.07,3.12,32.21,32.21,0,0,0,1.69,3,8.84,8.84,0,0,0,2.28,2.4,28.35,28.35,0,0,0,2.8,1.8A9.88,9.88,0,0,0,180,247a7.31,7.31,0,0,1,.78.18c.37,0,.73.08,1.1.14a17.65,17.65,0,0,0,7.61-1.55c.38-.23.76-.46,1.13-.71a14.85,14.85,0,0,0,1.37-1.12,19.42,19.42,0,0,0,1.79-1.58,23.88,23.88,0,0,0,1.93-2.45,21.35,21.35,0,0,0,1.57-2.64c.53-1.11,1-2.27,1.39-3.43a13.06,13.06,0,0,0,.56-2.15c.14-.7.18-1.42.27-2.23.19.19.28.34.41.39.46.19.5.55.5,1a8.72,8.72,0,0,1-.32,2.54" fill="#14aa40" fill-rule="evenodd"/></g><g id="mask5"><path d="M118.73,225s11.46-8.38,20.55-7.74,17.18,8.7,17.18,8.7a10.77,10.77,0,0,1,5.78-1.4,13.14,13.14,0,0,1,5.27,1.76s7.7-6.93,17.42-6.25,21.36,11.64,21.36,11.64" fill="none" stroke="#ff0d0d" stroke-miterlimit="10" stroke-width="5.98"/></g><g id="mask4"><path d="M125.69,221.91a18.69,18.69,0,0,0,.68,10.43c1.94,5.52,6.35,11.11,13,11.57,7.71.54,12.18-4.38,14.35-8.93a18.52,18.52,0,0,0,1.4-8.45" fill="none" stroke="#ff0d0d" stroke-miterlimit="10" stroke-width="1.25"/></g><g id="mask3"><path d="M123.5,223.26A29.89,29.89,0,0,0,124.84,235a16.93,16.93,0,0,0,14.42,10.73,16.16,16.16,0,0,0,15.59-8.81c1.82-3.82,2.32-9.76,2.32-9.76" fill="none" stroke="#ff0d0d" stroke-miterlimit="10" stroke-width="1.25"/></g><g id="mask2"><path d="M168.83,227.32s-1,7.37,1.38,11.61A14.92,14.92,0,0,0,182.39,247c7,.49,12.41-5.54,14.57-10.08a29.37,29.37,0,0,0,2.19-8.93" fill="none" stroke="#ff0d0d" stroke-miterlimit="10" stroke-width="1.25"/></g><g id="mask1"><path d="M166.72,228A34.29,34.29,0,0,0,168,238c1.56,5.64,7.74,10.27,14.41,10.73,7.72.54,13.42-4.76,15.59-9.31a47,47,0,0,0,2.87-9.81" fill="none" stroke="#ff0d0d" stroke-miterlimit="10" stroke-width="1.25"/></g></g></svg>