<svg xmlns="http://www.w3.org/2000/svg" viewBox="0 0 300 600"><title>tieTest</title><g id="Layer_2" data-name="Layer 2"><g id="rect"><rect width="300" height="600" fill="none"/></g><g id="tieBase"><path id="knot_outline" data-name="knot outline" d="M139.34,332.66c-.42,7.44,2,14.81,3.73,22a1.49,1.49,0,0,0,1.43,1.09q10.11.19,20.21.46a1.63,1.63,0,0,0,1.54-1.17c2.24-7,5-14.33,5.95-21.67a1.65,1.65,0,0,0-1.22-1.6,93.28,93.28,0,0,0-14.47-.91c-5.11,0-11.13-.71-16.09.68a1.2,1.2,0,0,0,0,2.29c4,1.08,8.51.4,12.58.36a104.83,104.83,0,0,1,17.09.78l-1.22-1.6c-.57,4.55-2.21,9.09-3.49,13.46q-.87,3-1.77,5.93c-.72,2.37,2.16.27-.6.23q-8-.13-15.94-.22c-1.68,0-1.34.36-1.65-.78-.53-2-1.08-3.91-1.62-5.87-1.23-4.49-2.11-9.06-3.07-13.62-.17-.82-1.34-.57-1.39.19" fill="#14aa40"/><path id="main_outline" data-name="main outline" d="M143,354.92c-1.36,32-7.3,63.62-9.46,95.54-.8,11.87,1.09,19.08,6.2,29.8s12.09,21.38,19.2,30.94a1.56,1.56,0,0,0,2.81-.36c6.1-14.86,19.42-30.85,19.2-47.52-.13-10.31-3.5-20.85-4.94-31.06-2.16-15.4-3.83-30.87-5.65-46.31-1.18-10-1.26-21.42-4.88-30.89-.3-.79-1.58-.74-1.55.2.89,24.25,5.51,49.11,8.67,73.18,1.33,10,3.88,19.92,5.11,29.9,2.27,18.37-12.23,35.4-18.93,51.68l2.82-.37c-6-8.1-10.9-16.79-16.2-25.35a96.82,96.82,0,0,1-8.87-19.5c-2.05-6.07.21-15.66.73-21.88,2.43-29.32,8.19-58.55,8.76-88,0-1.95-2.93-1.93-3,0" fill="#14aa40"/><path id="stripe_1a" data-name="stripe 1a" d="M157.77,332.56c-2.68,1.73-4.93,4.29-7.5,6.22s-6.13,3.41-8.46,5.75a.91.91,0,0,0,.88,1.5c3.41-.89,6.76-3.89,9.51-6,2.34-1.8,5.24-4,6.33-6.88a.52.52,0,0,0-.76-.58" fill="#14aa40"/><path id="stripe_1b" data-name="stripe 1b" d="M168.19,333c-4.06,2.78-7.5,6.65-11.21,9.88-4.12,3.58-8.94,6.36-12.94,10-.64.59,0,1.85.87,1.51,4.69-1.88,8.81-5.39,12.68-8.59,4.11-3.4,8.71-7.35,11.39-12,.27-.48-.3-1.13-.79-.79" fill="#14aa40"/><path id="stripe_2a" data-name="stripe 2a" d="M166.36,364.5c-4,3.09-7.76,6.5-11.9,9.46s-8.91,4.85-13,7.77a.89.89,0,0,0,.68,1.62c4.88-1.11,9.38-4.66,13.35-7.56a78.13,78.13,0,0,0,11.81-10c.59-.65-.21-1.84-1-1.27" fill="#14aa40"/><path id="stripe_2b" data-name="stripe 2b" d="M167.84,375.35c-7.35,8-18.1,11.24-27.24,16.6a1,1,0,0,0,.73,1.73c6.17-1.6,11.64-5.31,17.18-8.34,3.91-2.13,9.22-4.67,10.43-9.35a.66.66,0,0,0-1.1-.64" fill="#14aa40"/><path id="stripe_3a" data-name="stripe 3a" d="M170.38,400.83c-3.85,4.74-9.87,8.87-14.74,12.45-5.9,4.34-13.11,6.69-18.53,11.66a.53.53,0,0,0,.51.88c7.45-2.54,14.86-7,21.2-11.63,4.3-3.13,10.69-7.28,13.05-12.21.43-.9-.77-2-1.49-1.15" fill="#14aa40"/><path id="stripe_3b" data-name="stripe 3b" d="M172,413.21c-4.56,4.69-10.19,8.26-15.56,12-6.55,4.53-14.23,6.46-21.05,10.37-.81.46-.26,1.86.64,1.53,7.39-2.75,15-5.41,21.54-10,5.25-3.69,11.66-7.56,15.68-12.65.69-.87-.43-2.09-1.25-1.25" fill="#14aa40"/><path id="stripe_4a" data-name="stripe 4a" d="M174.74,437.05c-9.94,12.52-25.22,21.93-39.06,29.53a1.19,1.19,0,0,0,1.2,2.06A190.22,190.22,0,0,0,159.2,454c5.79-4.56,12.87-9.69,16.85-16,.5-.79-.72-1.76-1.31-1" fill="#14aa40"/><path id="stripe_4b" data-name="stripe 4b" d="M177.35,448.06C167.89,459.33,153,470,139.09,475.17a1,1,0,1,0,.8,1.91c14.47-6.25,29.57-14.85,39.05-27.8.68-.92-.85-2.1-1.59-1.22" fill="#14aa40"/><path id="stripe_5a" data-name="stripe 5a" d="M175.12,479.41c-3.92,2.85-7.15,6.17-11.52,8.53s-8.71,5.06-13.53,6c-1.22.23-.7,2.11.51,1.86,5-1,9.46-4,13.94-6.26,4-2,9.7-5.13,11.21-9.63a.42.42,0,0,0-.61-.47" fill="#14aa40"/><path id="stripe_5b" data-name="stripe 5b" d="M167.79,495.72c-2-.21-4.07,2.32-5.72,3.36a23.8,23.8,0,0,1-4.16,2,15.17,15.17,0,0,0-3.22,1.19.52.52,0,0,0,.12.94c2.47.64,5.4-.9,7.59-2,1.91-.94,5.72-2.63,5.89-5a.49.49,0,0,0-.5-.49" fill="#14aa40"/></g><g id="tieDetail"><path d="M149.48,485.93a9.33,9.33,0,0,0,.86,1.94c.37.77.5,1.49,1.37,1.79a.57.57,0,0,0,.65-.26c.46-.88,0-1.65-.42-2.47a3,3,0,0,0-1.71-1.75.61.61,0,0,0-.75.75" fill="#14aa40"/><path d="M139.6,448.26c.19,10.95,1.88,24.33,8.48,33.4.32.44,1.14.19.94-.4-1.75-5.12-4-9.95-5.31-15.21-1.51-5.89-2-12-3.23-17.91-.1-.5-.89-.38-.88.12" fill="#14aa40"/><path d="M150.44,358a1.74,1.74,0,0,0-1.13,1.65.25.25,0,0,0,.42.18,9.56,9.56,0,0,0,1.05-1.39.28.28,0,0,0-.34-.44" fill="#14aa40"/><path d="M151.28,359.31c-.24.45-.43.88-.09,1.32a.19.19,0,0,0,.3,0c.25-.31.25-.62.45-1s-.43-.83-.66-.39" fill="#14aa40"/><path d="M155.36,358.86a1.86,1.86,0,0,0,.13.84.24.24,0,0,0,.46,0,1.86,1.86,0,0,0,.13-.84.36.36,0,0,0-.72,0" fill="#14aa40"/><path d="M150.84,440a7.7,7.7,0,0,1,.67,1.08c.06.09.23.06.21-.05a2.33,2.33,0,0,0-.62-1.29c-.15-.18-.42.08-.26.26" fill="#14aa40"/><path d="M152.31,438.44c.59.61.84,1.44,1.45,2,.13.12.41.05.39-.15a3.53,3.53,0,0,0-1.5-2.3c-.26-.2-.55.22-.34.44" fill="#14aa40"/><path d="M154.53,437.13a1.87,1.87,0,0,0,.7.64.21.21,0,0,0,.3-.23c-.06-.43-.13-.35-.42-.76s-.84,0-.58.35" fill="#14aa40"/><path d="M165.67,477.17a2,2,0,0,0-.2,1.44.15.15,0,0,0,.28,0,4.1,4.1,0,0,1,.32-1.2c.15-.27-.27-.51-.4-.24" fill="#14aa40"/><path d="M167.75,479.21a1.13,1.13,0,0,0,.1.54.08.08,0,0,0,.15,0,1.44,1.44,0,0,0,.1-.54c0-.22-.37-.22-.35,0" fill="#14aa40"/><path d="M159.47,345.12a7.83,7.83,0,0,0-.05,1.28.28.28,0,0,0,.52.14,2.1,2.1,0,0,0,.25-1.42.36.36,0,0,0-.72,0" fill="#14aa40"/><path d="M161.36,346.27a1.08,1.08,0,0,0,.11.56.16.16,0,0,0,.31,0,1.09,1.09,0,0,0,.12-.56c0-.35-.56-.35-.54,0" fill="#14aa40"/></g><g id="tieBaseMask"><path id="main_mask" data-name="main mask" d="M164.12,354.33s11.93,86.44,12.57,90.62,6.06,20.41-1,35.19-13.75,25.43-15.52,29.27c-4.73-5.62-14-19.37-20.25-31.49s-6.21-18-4.44-34.15,9-89.44,9-89.44" fill="none" stroke="#fff" stroke-miterlimit="10" stroke-width="4"/><path id="knot_mask" data-name="knot mask" d="M139.34,332.66s9-.11,16.74-.17,14.45.43,14.45.43l-2.08,9.77-3.87,11.82-20.66-.5-4.58-21.35" fill="none" stroke="#fff" stroke-miterlimit="10" stroke-width="4"/><g id="stripe_mask" data-name="stripe mask"><path id="stripe1a_mask" data-name="stripe1a mask" d="M157.91,332c-2.22,3.55-10,10.2-15.37,13.16" fill="none" stroke="#fff" stroke-miterlimit="10" stroke-width="4"/><path id="stripe1b_mask" data-name="stripe1b mask" d="M168.7,332.75c-2.81,3.55-18.77,17.89-23.35,21" fill="none" stroke="#fff" stroke-miterlimit="10" stroke-width="4"/><path id="stripe_2a_mask" data-name="stripe 2a mask" d="M165.89,366.16c-4.58,4.29-17.74,13.45-22.91,15.82" fill="none" stroke="#fff" stroke-miterlimit="10" stroke-width="4"/><path id="stripe_2b_mask" data-name="stripe 2b mask" d="M166.78,377.84c-3.4,3.55-21.29,13.75-24.54,14.49" fill="none" stroke="#fff" stroke-miterlimit="10" stroke-width="4"/><path id="stripe_3a_mask" data-name="stripe 3a mask" d="M170.63,403.12C166,406.66,145.49,422.34,138,424.7" fill="none" stroke="#fff" stroke-miterlimit="10" stroke-width="4"/><path id="stripe_3b_mask" data-name="stripe 3b mask" d="M172,413.91c-6.36,6.8-25.73,20.1-34.89,21.29" fill="none" stroke="#fff" stroke-miterlimit="10" stroke-width="4"/><path id="stripe_4a_mask" data-name="stripe 4a mask" d="M175.36,437.86c-7.69,9.31-26.32,24.39-39.33,29.71" fill="none" stroke="#fff" stroke-miterlimit="10" stroke-width="4"/><path id="stripe_4b_mask" data-name="stripe 4b mask" d="M177.87,449.39c-10.94,12-26.61,23.36-38.14,26.76" fill="none" stroke="#fff" stroke-miterlimit="10" stroke-width="4"/><path id="stripe_5a_mask" data-name="stripe 5a mask" d="M174.17,482.36c-9.46,6.5-16.7,11.38-23.65,12.56" fill="none" stroke="#fff" stroke-miterlimit="10" stroke-width="4"/><path id="stripe_5b_mask" data-name="stripe 5b mask" d="M166.63,497.29c-4.58,3.25-7.09,5.32-11.53,5.47" fill="none" stroke="#fff" stroke-miterlimit="10" stroke-width="4"/></g></g><g id="tieDetailMask"><path id="detail_mask" data-name="detail mask" d="M139.58,446.28c2.51,18.78,9.27,37.91,14.13,45.38" fill="none" stroke="#fff" stroke-miterlimit="10" stroke-width="4"/></g></g></svg>