<svg xmlns="http://www.w3.org/2000/svg" viewBox="0 0 300 600"><title>H3</title><g id="Layer_2" data-name="Layer 2"><g id="Artboard_2" data-name="Artboard 2" style="isolation:isolate"><g id="headline"><g id="Virtual_career_training_for_159." data-name="Virtual career training for $159."><path d="M20.42,25.15h7.66l5,17.4,5.07-17.4h6.65L36.71,49.94H28.63Z" fill="#14aa40"/><path d="M46.07,26.88a3.23,3.23,0,0,1,3.39-3.22,3.21,3.21,0,1,1,0,6.41A3.21,3.21,0,0,1,46.07,26.88Zm.31,4.93h6.2V49.94h-6.2Z" fill="#14aa40"/><path d="M55.91,31.81h6.21v3.6A5.72,5.72,0,0,1,68,31.56v5.79c-3.78-.1-5.86,1.08-5.86,4v8.6H55.91Z" fill="#14aa40"/><path d="M71.34,44.11V36H69.15V31.81h2.19V28h6.2v3.78h3.57V36H77.54v7.48a1.66,1.66,0,0,0,1.84,1.91,4.73,4.73,0,0,0,1.77-.31v4.71a13,13,0,0,1-3.43.52C73.63,50.35,71.34,48.38,71.34,44.11Z" fill="#14aa40"/><path d="M83.33,43.63V31.81h6.21V42.62c0,2.05.79,3.05,2.56,3.05s3.09-1.11,3.09-3.43V31.81h6.2V49.94h-6.2V47.13a6,6,0,0,1-5.76,3.22C85.93,50.35,83.33,48.21,83.33,43.63Z" fill="#14aa40"/><path d="M103.5,44.91c0-4.26,3.61-5.93,9.64-5.93h1.74v-.41c0-1.74-.42-2.88-2.4-2.88A2.23,2.23,0,0,0,110,37.84H104.2c.28-4.37,3.71-6.52,8.67-6.52s8.18,2,8.18,6.87V49.94h-6V47.82c-.86,1.32-2.46,2.53-5.37,2.53C106.38,50.35,103.5,48.76,103.5,44.91Zm11.38-1.32V42.48h-1.63c-2.5,0-3.61.49-3.61,2,0,1,.69,1.7,2.15,1.7C113.56,46.16,114.88,45.15,114.88,43.59Z" fill="#14aa40"/><path d="M124.23,23.83h6.17V49.94h-6.17Z" fill="#14aa40"/><path d="M139.07,41.1v-.28c0-6,4.33-9.5,9.67-9.5,4.44,0,8.53,1.94,8.88,7.46h-5.83c-.27-1.7-1.11-2.64-2.91-2.64-2.18,0-3.47,1.56-3.47,4.61V41c0,3.15,1.22,4.78,3.57,4.78a3,3,0,0,0,3.16-3h5.58c-.17,4.57-3.26,7.55-9.12,7.55C143.19,50.35,139.07,47.2,139.07,41.1Z" fill="#14aa40"/><path d="M158.79,44.91c0-4.26,3.61-5.93,9.64-5.93h1.73v-.41c0-1.74-.41-2.88-2.39-2.88a2.23,2.23,0,0,0-2.46,2.15h-5.82c.27-4.37,3.71-6.52,8.66-6.52s8.18,2,8.18,6.87V49.94h-6V47.82c-.86,1.32-2.46,2.53-5.37,2.53C161.67,50.35,158.79,48.76,158.79,44.91Zm11.37-1.32V42.48h-1.63c-2.49,0-3.6.49-3.6,2,0,1,.69,1.7,2.15,1.7C168.85,46.16,170.16,45.15,170.16,43.59Z" fill="#14aa40"/><path d="M179.35,31.81h6.2v3.6a5.73,5.73,0,0,1,5.86-3.85v5.79c-3.78-.1-5.86,1.08-5.86,4v8.6h-6.2Z" fill="#14aa40"/><path d="M192.52,41.1v-.28c0-5.82,4.33-9.5,9.81-9.5,5,0,9.22,2.84,9.22,9.36v1.63H198.79c.18,2.39,1.57,3.78,3.78,3.78,2.05,0,2.92-.94,3.16-2.15h5.82c-.55,4.09-3.71,6.41-9.18,6.41C196.68,50.35,192.52,47,192.52,41.1Zm13-2.29c-.1-2.18-1.18-3.4-3.19-3.4s-3.15,1.22-3.47,3.4Z" fill="#14aa40"/><path d="M212.73,41.1v-.28c0-5.82,4.33-9.5,9.81-9.5,5,0,9.22,2.84,9.22,9.36v1.63H219c.18,2.39,1.56,3.78,3.78,3.78,2.05,0,2.92-.94,3.16-2.15h5.82c-.55,4.09-3.71,6.41-9.19,6.41C216.89,50.35,212.73,47,212.73,41.1Zm13-2.29c-.11-2.18-1.18-3.4-3.19-3.4s-3.16,1.22-3.47,3.4Z" fill="#14aa40"/><path d="M233.91,31.81h6.2v3.6A5.73,5.73,0,0,1,246,31.56v5.79c-3.78-.1-5.86,1.08-5.86,4v8.6h-6.2Z" fill="#14aa40"/><path d="M22.67,82.19V74.12H20.49V69.89h2.18V66.11h6.21v3.78h3.57v4.23H28.88V81.6c0,1.32.65,1.91,1.83,1.91a4.66,4.66,0,0,0,1.77-.31v4.71a13,13,0,0,1-3.43.52C25,88.43,22.67,86.46,22.67,82.19Z" fill="#14aa40"/><path d="M34.8,69.89H41v3.6a5.72,5.72,0,0,1,5.86-3.85v5.79c-3.78-.1-5.86,1.08-5.86,4V88H34.8Z" fill="#14aa40"/><path d="M47.66,83c0-4.26,3.61-5.93,9.64-5.93H59v-.41c0-1.74-.41-2.88-2.39-2.88a2.22,2.22,0,0,0-2.46,2.15H48.35c.28-4.37,3.71-6.52,8.67-6.52s8.18,2,8.18,6.86V88h-6V85.9c-.87,1.32-2.46,2.53-5.37,2.53C50.54,88.43,47.66,86.84,47.66,83ZM59,81.67V80.56H57.4c-2.49,0-3.6.49-3.6,2,0,1,.69,1.7,2.15,1.7C57.72,84.24,59,83.23,59,81.67Z" fill="#14aa40"/><path d="M68.08,65a3.42,3.42,0,1,1,3.4,3.19A3.24,3.24,0,0,1,68.08,65Zm.31,4.93H74.6V88H68.39Z" fill="#14aa40"/><path d="M77.92,69.89h6.21V72.8a6.41,6.41,0,0,1,6-3.4c3.5,0,5.93,2.18,5.93,6.83V88H89.81V77.48c0-2-.79-3-2.6-3s-3.08,1.11-3.08,3.43V88H77.92Z" fill="#14aa40"/><path d="M98.9,65a3.23,3.23,0,0,1,3.39-3.22,3.21,3.21,0,1,1,0,6.41A3.21,3.21,0,0,1,98.9,65Zm.31,4.93h6.2V88h-6.2Z" fill="#14aa40"/><path d="M108.74,69.89H115V72.8a6.4,6.4,0,0,1,6-3.4c3.5,0,5.93,2.18,5.93,6.83V88h-6.21V77.48c0-2-.8-3-2.6-3S115,75.54,115,77.86V88h-6.21Z" fill="#14aa40"/><path d="M128.85,88H135c.27,1.31,1.07,2.35,3.32,2.35,2.74,0,3.85-1.56,3.85-3.81V83.79a6.35,6.35,0,0,1-5.61,3.33c-4.23,0-7.7-3.12-7.7-8.71v-.27c0-5.34,3.43-8.74,7.7-8.74a5.89,5.89,0,0,1,5.61,3V69.89h6.21v16.6c0,5.41-3.57,8.25-10.06,8.25C132.17,94.74,129.33,92.14,128.85,88Zm13.52-9.64v-.24c0-2.5-1.29-4.09-3.58-4.09s-3.57,1.63-3.57,4.12v.28c0,2.49,1.32,4.09,3.54,4.09S142.37,80.94,142.37,78.38Z" fill="#14aa40"/><path d="M158.79,74.12h-2.28V69.89h2.28v-1.6c0-4.51,2.81-6.66,7.11-6.66a10.94,10.94,0,0,1,2.84.39v4.54a5.61,5.61,0,0,0-1.7-.25,1.83,1.83,0,0,0-2.08,2v1.6h3.68v4.23H165V88h-6.17Z" fill="#14aa40"/><path d="M169.12,79.18V78.9c0-5.82,4.34-9.5,9.95-9.5S189,73,189,78.73V79c0,5.9-4.34,9.43-9.92,9.43S169.12,85,169.12,79.18Zm13.52-.11V78.8c0-3.06-1.21-4.75-3.57-4.75s-3.6,1.63-3.6,4.68V79c0,3.12,1.21,4.82,3.6,4.82S182.64,82.09,182.64,79.07Z" fill="#14aa40"/><path d="M191.13,69.89h6.21v3.6a5.72,5.72,0,0,1,5.86-3.85v5.79c-3.78-.1-5.86,1.08-5.86,4V88h-6.21Z" fill="#14aa40"/><path d="M26.11,117.12c-3.67-.26-5.45-2.21-5.6-5h3.93a2,2,0,0,0,1.67,2V111c-3.69-.53-5.26-1.87-5.26-4.82,0-2.56,2-4.41,5.26-4.64V99.65h1.66v1.91c3.08.25,4.9,1.67,5.16,4.58H29.08a1.68,1.68,0,0,0-1.31-1.59v2.93c3.25.47,5.37,1.57,5.37,4.65,0,2.59-1.68,4.75-5.37,5v2.65H26.11Zm0-9.9v-2.71c-.95.17-1.44.68-1.44,1.36S25,107,26.11,107.22Zm1.66,4.06v2.82a1.53,1.53,0,0,0,1.42-1.51C29.19,111.89,28.89,111.53,27.77,111.28Z" fill="#14aa40"/><path d="M39.24,108.31l-4.71,2.91v-5.93l5.68-4h6.14V126.1H39.24Z" fill="#14aa40"/><path d="M60.94,121.35H48.88v-2.67l10.33-17.37h8.56v15.15H71v4.89H67.77v4.75H60.94Zm.18-4.89v-9.81l-5.55,9.81Z" fill="#14aa40"/><path d="M72.62,119.09h6.52c.24,1.25,1,2.12,2.91,2.12,3,0,4.16-2.22,4.27-6.45a5.92,5.92,0,0,1-5.62,2.91c-4.75,0-8.39-2.74-8.39-8s3.88-8.73,10.19-8.73c7.39,0,10.85,4.95,10.85,12.13v.83c0,8-3.88,12.59-10.95,12.59C76.54,126.48,73.14,123.84,72.62,119.09Zm13.18-9.46c0-2.19-1.32-3.71-3.4-3.71a3.32,3.32,0,0,0-3.3,3.64,3.23,3.23,0,0,0,3.3,3.53A3.3,3.3,0,0,0,85.8,109.63Z" fill="#14aa40"/><path d="M93.91,123a3.46,3.46,0,0,1,3.53-3.51,3.51,3.51,0,1,1,0,7A3.45,3.45,0,0,1,93.91,123Z" fill="#14aa40"/></g><g id="rect"><rect width="300" height="600" fill="none"/></g></g></g></g></svg>