<svg xmlns="http://www.w3.org/2000/svg" viewBox="0 0 300 250"><title>new_base</title><g id="Layer_2" data-name="Layer 2"><g id="rect"><rect width="300" height="250" fill="none"/></g><g id="new_base" data-name="new base"><path d="M249.23,41.7a.91.91,0,0,0-.38-1,1.24,1.24,0,0,0-.5-.13,2.79,2.79,0,0,1-.61-.09,5.92,5.92,0,0,0-1.39-.78,11.55,11.55,0,0,0-2.19-.68c-.73-.14-1.47-.24-2.21-.36-.44-.07-.87-.15-1.3-.2s-.72-.08-1.08-.1h-1a14.85,14.85,0,0,0-2.11,0c-.29,0-.66.06-1,.13h-.06c-.81.14-1.56.41-2.34.61a4.62,4.62,0,0,0-1.11.4c-.31.12-.59.3-.89.44s-.75.57-1.21.74a2.22,2.22,0,0,1-1.11.2h-.12a5,5,0,0,0-.81-.1h0l-.48,0A5,5,0,0,1,226,41a2.51,2.51,0,0,1-.92-.21c-.45-.17-.77-.55-1.2-.74s-.59-.32-.9-.44a4.55,4.55,0,0,0-1.1-.4c-.79-.2-1.54-.47-2.34-.61h-.06c-.37-.07-.73-.1-1-.13a14.86,14.86,0,0,0-2.11,0h-1c-.36,0-.72.05-1.08.1s-.87.13-1.3.2c-.74.12-1.48.22-2.22.36a11.45,11.45,0,0,0-2.18.68,6.19,6.19,0,0,0-1.4.78,2.61,2.61,0,0,1-.6.09,1.28,1.28,0,0,0-.51.13.94.94,0,0,0-.38,1c0,.35.19.57.56.56s.89-.06,1.34-.09a.45.45,0,0,1,.32.34c.17.66.32,1.34.55,2a10.91,10.91,0,0,0,.77,1.62,8,8,0,0,0,1.2,1.58c.55.58,1.17,1.08,1.76,1.61a9.23,9.23,0,0,0,2,1.19,2.83,2.83,0,0,0,.92.23,11.82,11.82,0,0,0,1.57.1c.61,0,1.22-.11,1.83-.15a5,5,0,0,0,1.62-.47c.5-.21,1-.47,1.45-.73.24-.22.54-.39.79-.61l.53-.5a3,3,0,0,0,.27-.35,5.26,5.26,0,0,0,.73-1.14c.09-.19.2-.36.29-.54a9.1,9.1,0,0,0,.65-2,5.3,5.3,0,0,1,1-2,1.78,1.78,0,0,1,.52-.43,3.6,3.6,0,0,1,1.19-.24,3.41,3.41,0,0,1,1,.19,1.92,1.92,0,0,1,.63.48,5.3,5.3,0,0,1,1,2,9.65,9.65,0,0,0,.64,2,5.61,5.61,0,0,1,.29.54,5.71,5.71,0,0,0,.74,1.14,3.38,3.38,0,0,0,.45.55l0,0,0,0h0l0,.06.06.06h0a3,3,0,0,0,.46.42l0,0a20.07,20.07,0,0,0,1.9,1,5,5,0,0,0,1.62.47c.61,0,1.22.13,1.83.15a11.82,11.82,0,0,0,1.57-.1,2.83,2.83,0,0,0,.92-.23,9.48,9.48,0,0,0,2-1.19c.59-.53,1.21-1,1.75-1.61a8.08,8.08,0,0,0,1.21-1.58,12,12,0,0,0,.77-1.62c.23-.64.37-1.32.55-2a.43.43,0,0,1,.32-.34c.45,0,.89.08,1.33.09s.51-.21.56-.56l.4-.79v0a1.21,1.21,0,0,0-.08-.25c-.13-.31-.61-.29-.89-.34a1.63,1.63,0,0,1-.56-.16,1.33,1.33,0,0,1-.19-.14c-.22-.12-.42-.27-.64-.41a5.14,5.14,0,0,0-1.68-.73c-.45-.09-.89-.22-1.34-.33a6.68,6.68,0,0,0-.87-.17c-.94-.1-1.89-.2-2.83-.27-.69,0-1.39,0-2.08,0-.52,0-1,0-1.55,0a13.53,13.53,0,0,0-2.84.34c-.49.1-1,.2-1.47.34a9.93,9.93,0,0,0-1.12.48,6.9,6.9,0,0,0-.85.45c-.26.15-.48.35-.73.51a4.48,4.48,0,0,1-.68.37c-.6,0-1.2-.1-1.81-.09s-1.08.1-1.62.13h-.06a4.68,4.68,0,0,1-.73-.4c-.25-.16-.48-.36-.73-.51a6.9,6.9,0,0,0-.85-.45,9.93,9.93,0,0,0-1.12-.48c-.48-.14-1-.24-1.47-.34A13.61,13.61,0,0,0,218,38c-.52,0-1,0-1.55,0-.69,0-1.39,0-2.08,0-1,.07-1.89.17-2.83.27a6.51,6.51,0,0,0-.88.17c-.44.11-.88.24-1.33.33a5.29,5.29,0,0,0-1.69.73c-.21.14-.41.29-.63.41a1,1,0,0,1-.2.14,1.52,1.52,0,0,1-.55.16c-.28.05-.76,0-.89.34a1.21,1.21,0,0,0-.08.25v0a3.57,3.57,0,0,0,.13,1.49c.06.17.14.3.34.28s.67-.08,1-.1c.12,0,.31,0,.34.08a9.55,9.55,0,0,1,.48,1.36,10.87,10.87,0,0,0,.95,2.28,8.65,8.65,0,0,0,1.7,2.2,4.7,4.7,0,0,0,.9.77c.63.39,1.3.73,2,1.07a5,5,0,0,0,1.71.57,14.53,14.53,0,0,0,1.74.12,10.11,10.11,0,0,0,1.23,0,4.91,4.91,0,0,0,1.16-.15,10.31,10.31,0,0,0,2.19-.87c.42-.26.86-.49,1.26-.77a7.84,7.84,0,0,0,1.45-1.54,12.24,12.24,0,0,0,.79-1.1,8.12,8.12,0,0,0,.51-1.17c.16-.43.31-.86.44-1.3a2.55,2.55,0,0,1,.85-1.54,1.58,1.58,0,0,1,.68-.29l.35,0,.35,0a1.54,1.54,0,0,1,.67.29,2.57,2.57,0,0,1,.86,1.54c.13.44.28.87.44,1.3a8.12,8.12,0,0,0,.51,1.17,10.53,10.53,0,0,0,.79,1.1,7.84,7.84,0,0,0,1.45,1.54c.4.28.84.51,1.26.77a10.31,10.31,0,0,0,2.19.87,4.9,4.9,0,0,0,1.15.15,10.28,10.28,0,0,0,1.24,0,14.53,14.53,0,0,0,1.74-.12,5,5,0,0,0,1.71-.57c.66-.34,1.33-.68,2-1.07a5,5,0,0,0,.9-.77,8.39,8.39,0,0,0,1.69-2.2,10.4,10.4,0,0,0,1-2.28,9.55,9.55,0,0,1,.48-1.36c0-.06.22-.09.34-.08.33,0,.67.07,1,.1s.28-.11.34-.28a3.75,3.75,0,0,0,.13-1.49" fill="#14aa40" fill-rule="evenodd"/><path d="M244.61,42.58a12.52,12.52,0,0,0,0-1.62.26.26,0,0,0-.09-.19,5.46,5.46,0,0,0-1.35-.66,11.62,11.62,0,0,0-2.11-.35c-.51,0-1-.07-1.55-.1a4.42,4.42,0,0,0-.63,0c-.75.06-1.51.1-2.25.22-.9.14-1.8.31-2.68.53a11.86,11.86,0,0,0-1.61.57c-.43.17-.85.38-1.27.58-.05,0-.12.1-.11.14a11.91,11.91,0,0,0,.11,1.34,19.18,19.18,0,0,0,.42,2,13.05,13.05,0,0,0,.54,1.29,6.69,6.69,0,0,0,1.32,1.93,5.74,5.74,0,0,0,1.95,1.26,7,7,0,0,0,1.67.52,8.28,8.28,0,0,0,.86.06h0l.64-.08a4,4,0,0,1,.76-.1,6.49,6.49,0,0,0,1.14-.34,6.7,6.7,0,0,0,1.86-1.14,4.55,4.55,0,0,0,1.17-1.49,13.69,13.69,0,0,0,.85-2.2,11.83,11.83,0,0,0,.37-2.14l.47-2a1.87,1.87,0,0,0-.35-.28,3.21,3.21,0,0,0-.45-.24,4.53,4.53,0,0,0-1-.29l-.24,0a6.45,6.45,0,0,0-1.19-.29,9.48,9.48,0,0,0-1.67-.18,20.25,20.25,0,0,0-2.91.08,5.58,5.58,0,0,0-.81.09,5.42,5.42,0,0,0-.8.08h0c-.44.05-.88.16-1.31.25-.2.05-.42.09-.62.15s-.52.12-.78.19-.79.22-1.17.36-.46.19-.69.3l-.15.07-.06,0a.9.9,0,0,0-.26.22l0,.07a2.33,2.33,0,0,0-.14.55,5.47,5.47,0,0,0,0,1.07s0,.07,0,.11c.06.28.13.56.18.84a.13.13,0,0,0,0,.06l0,.24c0,.14.08.27.1.41s.09.38.15.57.2.5.3.74.37.7.52,1.06a7.49,7.49,0,0,0,.83,1.27,4.06,4.06,0,0,0,1.65,1.25,13,13,0,0,0,1.22.54,5.74,5.74,0,0,0,3.2.31c.49-.1,1-.18,1.46-.32a6.69,6.69,0,0,0,2.79-1.77A6.51,6.51,0,0,0,244,46.59a6.68,6.68,0,0,0,.89-2.41c.1-.69.17-1.39.25-2.08,0-.26,0-.51.07-.77l0-.22c0-.17-.07-.34-.1-.51" fill="#14aa40" fill-rule="evenodd"/><path d="M222.93,46.31a13.05,13.05,0,0,0,.54-1.29c.06-.23.11-.45.16-.68a1.16,1.16,0,0,0,0-.18c.05-.37.11-.74.14-1.11s0-.66,0-1a4.51,4.51,0,0,0,0-.54c-.39-.19-.78-.38-1.18-.54a11.86,11.86,0,0,0-1.61-.57c-.89-.22-1.78-.39-2.69-.53-.74-.12-1.49-.16-2.24-.22h-.64c-.51,0-1,.08-1.54.1a11.34,11.34,0,0,0-2.11.35,5.46,5.46,0,0,0-1.35.66.26.26,0,0,0-.09.19,11,11,0,0,0,0,1.62,11.83,11.83,0,0,0,.37,2.14,14.65,14.65,0,0,0,.84,2.2,4.69,4.69,0,0,0,1.17,1.49,6.9,6.9,0,0,0,1.87,1.14,6,6,0,0,0,1.61.41l.31,0c.44,0,.89,0,1.34,0s.87-.22,1.3-.29q.27-.09.54-.21a5.84,5.84,0,0,0,2-1.26,6.89,6.89,0,0,0,1.32-1.93l1.42-5.13a.43.43,0,0,1,0-.07.93.93,0,0,0-.27-.22l0,0-.15-.07q-.34-.16-.69-.3c-.39-.14-.78-.25-1.18-.36l-.11,0a8.74,8.74,0,0,0-1.45-.34l-.55-.11-.44-.08a5.36,5.36,0,0,0-.79-.11l-.93-.11a18.21,18.21,0,0,0-2.56-.08H215a8,8,0,0,0-1.82.19h-.09c-.49.1-1,.23-1.45.31a4.62,4.62,0,0,0-1,.29l-.39.2a.88.88,0,0,0-.46.35,1.68,1.68,0,0,0,0,1.25,1.8,1.8,0,0,0,0,.22c.08.69.15,1.39.25,2.08a6.68,6.68,0,0,0,.89,2.41,6.72,6.72,0,0,0,3.87,3.29c.48.14,1,.22,1.47.32a4.47,4.47,0,0,0,1.41.09,2.89,2.89,0,0,0,.84-.12,7.79,7.79,0,0,0,.94-.28,11,11,0,0,0,1.22-.54,4,4,0,0,0,1.65-1.25,7,7,0,0,0,.84-1.27c.15-.36.36-.7.52-1.06L224,45c.05-.19.11-.38.15-.57a3.06,3.06,0,0,1,.1-.41l0-.24a.13.13,0,0,1,0-.06c0-.28.12-.56.18-.84,0,0,0-.08,0-.11a6.38,6.38,0,0,0,0-1.07,2.33,2.33,0,0,0-.14-.55" fill="#14aa40" fill-rule="evenodd"/><path d="M206.56,41.33a8.3,8.3,0,0,0,1.41-.12,1.31,1.31,0,0,0-.27-.05,3.45,3.45,0,0,0-.72,0l-.44.07-.07.08h.09l1.63-.21a1.79,1.79,0,0,0-.8-.11,1.89,1.89,0,0,0-1.22.25c-.06.06,0,.1,0,.14s.32.17.37.18a3.38,3.38,0,0,0,1.48-.15.53.53,0,0,0,.14-.08h0a.09.09,0,0,0,.06-.11s0-.07-.08-.11" fill="#14aa40" fill-rule="evenodd"/><path d="M248.35,41.33h.1l-.07-.08-.44-.07a3.47,3.47,0,0,0-.72,0,1.51,1.51,0,0,0-.28.05,8.39,8.39,0,0,0,1.41.12l-.83-.32a1.81,1.81,0,0,0-.8.11c-.06,0-.08.07-.07.11s0,.1.06.11h0a.44.44,0,0,0,.15.08,3.37,3.37,0,0,0,1.48.15s.3-.07.36-.18.08-.08,0-.14a1.92,1.92,0,0,0-1.23-.25" fill="#14aa40" fill-rule="evenodd"/></g></g></svg>