<svg xmlns="http://www.w3.org/2000/svg" viewBox="0 0 300 250"><title>pens_base</title><g id="Layer_2" data-name="Layer 2"><g id="rect"><rect width="300" height="250" fill="none"/></g><g id="pen_base"><path d="M147.31,159c2-.87,3.08-2,3.08-3.28v-2a2.46,2.46,0,0,0-.6-1.55l1.4-5.89h0l.4-1.69a2,2,0,0,0,.08-.33l1.62-6.81a2,2,0,0,0,.65-1.41v-1.37a1.89,1.89,0,0,0-.34-1c1.82-2.75,4.44-6.67,4.65-7a.36.36,0,0,0,.05-.12.09.09,0,0,0,0-.08c.38-1,1.77-4.91,2.22-6.21a.12.12,0,0,0,0-.14.12.12,0,0,0-.14,0l-5.11,4.31a0,0,0,0,0,0,0l-4.57,7c-.3-.11-.61-.21-.93-.31l1.44-5v0l.29-6.37a.12.12,0,0,0-.08-.12.13.13,0,0,0-.13,0l-2.4,3.71a45,45,0,0,0,.72-6.56.88.88,0,0,0-.1-.36c1-.23,1.37-1.56,1.31-2.49,0-.18,0-.44-.08-.78-.13-1.22-.37-3.48.06-4.27a.11.11,0,0,0,0-.14.12.12,0,0,0-.16,0c-.19.18-4.7,4.41-2.62,7.31a1,1,0,0,0-.22.33c-.79,2.39-1.88,6.7-2.85,11,.43-4.45,1.37-14.22,1.31-15.1,0-.33,0-1-.56-1s-.53-.07-.83-.1l-.47,0c-.69-.07-.79.54-.86.94a1.57,1.57,0,0,1,0,.23c-.44,1.92-1.84,10.92-2.73,17.68H140l-.34-5.18v3.62l.08,1.24-.08-.06V130l.1.07.53,8.11h-.63v.24h.5c7.37,0,13.14-1.69,13.14-3.85a1.32,1.32,0,0,0,0-.34c.07-.11.15-.24.24-.36a1.63,1.63,0,0,1,.25.82c0,1.13-1.45,2.24-4,3.06a32.67,32.67,0,0,1-9.75,1.31h-.36v.23H140a32.94,32.94,0,0,0,9.83-1.32c2.05-.66,3.39-1.5,3.9-2.42v.51c0,1.13-1.45,2.24-4,3.06a33,33,0,0,1-9.75,1.31h-.36v.24H140a33.26,33.26,0,0,0,9.83-1.32,9.51,9.51,0,0,0,3.17-1.58l-.6,2.53,0,.06c-.49,2.26-5.9,4-12.3,4h-.42v.24H140c5.77,0,10.61-1.38,12.1-3.33l-.77,3.26c-.69,1.94-5.61,3.48-11.35,3.48h-.4v.24h.4c5.26,0,9.72-1.24,11.17-3l-.23.94c-.58,2-5.39,3.54-11,3.54h-.39V150H140c5,0,9.34-1.22,10.76-2.94l-1.33,5.58v0h0c0,2.41-4.24,4.37-9.46,4.37h-.36v.24H140c5.33,0,9.67-2.05,9.69-4.58l.05-.22a2.17,2.17,0,0,1,.44,1.26c0,2.41-4.57,4.37-10.18,4.37h-.36v.23H140a19,19,0,0,0,7.33-1.32,5.39,5.39,0,0,0,2.85-2.3v1c0,2.41-4.57,4.37-10.18,4.37h-.36v.23H140a19,19,0,0,0,7.33-1.32m12.16-36.36h0c-.59,1.68-1.17,3.29-1.36,3.77a.39.39,0,0,1-.39,0,.37.37,0,0,1-.16-.37l1.63-3.43a1.24,1.24,0,0,0,.27,0m-.49-.12-1.61,3.38a1.11,1.11,0,0,1-.82,0,.55.55,0,0,1-.3-.64l2.48-2.89a1,1,0,0,0,.25.16m-3.52,2.07,3-2.54a.42.42,0,0,0,.09.14l-2.5,2.9a.45.45,0,0,1-.46-.06.48.48,0,0,1-.15-.44m-4.92,7.11-.24.38c-.23-.09-.48-.16-.73-.24l.12-.42c.3.09.58.18.85.28m-.37.58-1.3,2,.63-2.21.67.22m1-9.93L151,126a.37.37,0,0,1-.34.13.36.36,0,0,1-.25-.2v0h0l.63-3.54h.11m-.34,0-.62,3.45h0a.83.83,0,0,1-.75.23.86.86,0,0,1-.59-.51h0l1.55-3.34a1.45,1.45,0,0,0,.42.16m-.7-.39.09.08-1.6,3.45a.54.54,0,0,1-.33,0,.52.52,0,0,1-.26-.27Zm.32-12.61a14.71,14.71,0,0,0,.08,3.91c0,.31.07.59.08.76.05.85-.3,2.13-1.21,2.27a1.07,1.07,0,0,0-.66-.39.82.82,0,0,0-.54.09c-1.61-2.28,1.21-5.56,2.25-6.64m-2.43,7.2a.6.6,0,0,1,.68-.42.84.84,0,0,1,.69.74,42.13,42.13,0,0,1-.85,7.11l-.27.41a4.4,4.4,0,0,0-2.26-.46c.72-3,1.44-5.67,2-7.38m-2.06,7.62a4.16,4.16,0,0,1,2.18.42l-.23.36a5.08,5.08,0,0,0-2.08-.25c0-.17.08-.35.13-.53m-.19.78a4.47,4.47,0,0,1,2,.2l0,0a0,0,0,0,0,0,0l-.15.47a4.16,4.16,0,0,0-1.93-.29c0-.15.08-.31.11-.46m-1.39-13.49.47,0c.29,0,.43,0,.82.1s.33.27.35.47l-2.17-.22c.08-.27.21-.42.53-.39m-.32,9.31a.14.14,0,0,0,.08,0l.26,0a5.9,5.9,0,0,1-.75,1.78,5.09,5.09,0,0,1-.33-1.83h.27a.13.13,0,0,0,.12-.11s.19-3.22.24-3.79a2.11,2.11,0,0,0-.12-.82,1.92,1.92,0,0,1-.12-.69c0-.5.38-2.77.47-3.27l1.38.14c-.05.51-.24,2.63-.31,3.24a2,2,0,0,1-.42,1,1.27,1.27,0,0,0-.26.52c-.06.34-.51,3.57-.53,3.71a.11.11,0,0,0,0,.08m-.33-8.32a2,2,0,0,0,0-.24l0-.13h.14c-.09.54-.45,2.78-.47,3.29a2.53,2.53,0,0,0,.13.77,1.93,1.93,0,0,1,.12.73c-.05.51-.21,3.12-.24,3.69h-.28a.12.12,0,0,0-.09,0,.16.16,0,0,0,0,.09c.06,1,.2,2.15.55,2.18h0c.34,0,.74-1.14,1-2.09a.12.12,0,0,0,0-.1.11.11,0,0,0-.09,0l-.27,0c.08-.6.46-3.28.51-3.58a1.34,1.34,0,0,1,.22-.43,2.25,2.25,0,0,0,.46-1.06c.07-.61.26-2.73.31-3.25l.24,0v.1c0,.62-.56,7.17-1,12l-3.17-.32c.76-5.23,1.57-10.27,1.89-11.65m-1.92,11.88,3.18.32c-.07.66-.13,1.28-.18,1.84l-3.26-.34c.08-.61.17-1.21.26-1.82m-1.8,6h.73c0,.14,0,.27,0,.4H140Zm.26,3.91L140,131h.61c-.15,1.2-.29,2.31-.39,3.28m.25,3.94-.16-2.54c.11-1.24.31-2.91.55-4.79h0c0-.21.06-.42.08-.63h0c.16-1.22.34-2.51.52-3.82l3.28.35-.27,2.71c-.72,3.33-1.32,6.5-1.62,8.64-.77,0-1.57.08-2.38.08m3.35-.15-.73.06c.29-2.09.87-5.13,1.56-8.34a.09.09,0,0,0,0-.07,1.83,1.83,0,0,0,0-.19c.27-1.27.56-2.55.86-3.81a3.61,3.61,0,0,1,1.91.27L143.83,138h0m.25,0,3.79-12.53a.72.72,0,0,0,.29.22.68.68,0,0,0,.34.06L145,137.9l-.94.1m1.2-.13,3.44-12a1.07,1.07,0,0,0,.64.44,1,1,0,0,0,.71-.11l-3.41,11.5-1.38.2m1.64-.25,3.38-11.4a.62.62,0,0,0,.29.15h.1a.71.71,0,0,0,.21,0l-1.41,4.92h0l-.18.65h0l-1.59,5.56c-.26.06-.53.11-.8.15m5.2-1.75c.22-.32.53-.8.91-1.37v.06a1.75,1.75,0,0,1-.91,1.31m-.48.3a12,12,0,0,1-2.34.92c-.42.12-.86.23-1.33.33l.68-2.36,6.6-10.15a.64.64,0,0,0,.21.32.72.72,0,0,0,.53.15.81.81,0,0,0,.46.74,1.29,1.29,0,0,0,.88.06.6.6,0,0,0,.59.54h0c-.84,1.22-5.9,8.84-6.31,9.46" fill="#14aa40"/><path d="M139.55,124.65l-.94-.54h-1.82l0,0h0l-.38.52-.93-7.76.3,0c.14,1.93.45,6.26.46,6.32h0s0,0,0,0,0,0,0,0,0,0,0,0h.17s0,0,0,0v0s0,0,0,0v0s.24-4,.23-6.39l.2,0a.12.12,0,0,0,.08,0,.1.1,0,0,0,0-.09l-.17-1.41a.08.08,0,0,0,0-.07.16.16,0,0,0-.09,0l-.1,0a.76.76,0,0,0-.24-.46.44.44,0,0,0-.37-.11.33.33,0,0,0-.25.13.78.78,0,0,0-.11.58l-.33,0-.09-.78a.12.12,0,0,0,0-.07.11.11,0,0,0-.08,0H135a1.55,1.55,0,0,0-.32-1,.53.53,0,0,0-.31-.15c0-.21-.07-.75-.11-1.47a.93.93,0,0,0-1.09-.79c-.46,0-.95.29-.93.81,0,.71.09,1.46.11,1.69a.75.75,0,0,0-.17.14,1.53,1.53,0,0,0-.16,1.16h-.08a.12.12,0,0,0-.1.13l.1.83s0,0,0,0v0l.85,7.65a1.63,1.63,0,0,0-.61-.1c-.06-.55-.38-3.26-.68-5.18l.17,0a.1.1,0,0,0,.08,0,.14.14,0,0,0,0-.09l-.35-1.38a.12.12,0,0,0-.15-.08l-.09,0a.91.91,0,0,0-.29-.43.53.53,0,0,0-.39-.06.35.35,0,0,0-.23.16.84.84,0,0,0,0,.59l-.32.09-.19-.75a.13.13,0,0,0-.05-.07.15.15,0,0,0-.09,0l-.06,0a1.6,1.6,0,0,0-.46-1,.53.53,0,0,0-.32-.1c0-.21-.16-.73-.29-1.44a1,1,0,0,0-1.18-.64c-.46.09-.91.41-.82.92.14.76.3,1.57.33,1.71a.86.86,0,0,0-.18.2,1.47,1.47,0,0,0,0,1.08l-.07,0a.13.13,0,0,0-.09.14l.2.84h0l.57,2.36h0a.14.14,0,0,0,0-.08l-3.49-5.85a.15.15,0,0,0-.14,0,.13.13,0,0,0-.08.12l.29,6.9h0a0,0,0,0,0,0,0l3.4,11.49a2.38,2.38,0,0,0-1.09,1.8v1.37a2.18,2.18,0,0,0,.83,1.58l1.52,6.64a1.16,1.16,0,0,0,.07.31l.33,1.46a1.53,1.53,0,0,0,.07.29l1.33,5.85a2.44,2.44,0,0,0-.6,1.55v2c0,1.25,1.09,2.41,3.08,3.28a18.61,18.61,0,0,0,7,1.32v-.23c-5.45-.09-9.82-2-9.82-4.37v-1a5.43,5.43,0,0,0,2.85,2.3,18.61,18.61,0,0,0,7,1.32v-.23c-5.45-.08-9.82-2-9.82-4.37a2.17,2.17,0,0,1,.44-1.26l0,.22c0,2.47,4.16,4.48,9.33,4.58V157c-5.05-.09-9.1-2-9.1-4.36h0v0l-1.28-5.6c1.37,1.68,5.49,2.9,10.38,3v-.24c-5.38-.07-9.93-1.59-10.56-3.49l-.22-1c1.39,1.69,5.68,2.92,10.78,3V148c-5.59-.07-10.31-1.58-11-3.49l-.74-3.27a7.43,7.43,0,0,0,3.54,2.13,27.26,27.26,0,0,0,8.16,1.23v-.24c-6.31-.07-11.49-1.84-11.9-4.09a.1.1,0,0,0,0-.07l-.53-2.33a10,10,0,0,0,3,1.45,32.84,32.84,0,0,0,9.46,1.32v-.24a32.78,32.78,0,0,1-9.39-1.3c-2.53-.82-4-1.93-4-3.06v-.51c.52.92,1.86,1.76,3.91,2.42a32.5,32.5,0,0,0,9.46,1.32v-.23a32.41,32.41,0,0,1-9.39-1.31c-2.53-.82-4-1.93-4-3.06a2.11,2.11,0,0,1,.93-1.56l.16.52a1.47,1.47,0,0,0-.36.92c0,2.11,5.51,3.77,12.64,3.85v-.24h0l-.57-8.6.59.42v-.29l-.61-.43-.32-4.85.69.4.24,3.7v-3.78a.1.1,0,0,0-.06-.09m-2.83-8.09h-.06c0-.21,0-.4,0-.57Zm-.84-1.69a.11.11,0,0,1,.09-.05.23.23,0,0,1,.2.06c.19.15.21.62.23.93.08,1.23,0,3.76-.1,5.51-.11-1.47-.25-3.45-.33-4.55v0c0-.4-.05-.68-.06-.75s0-.17,0-.28,0-.2,0-.3a.8.8,0,0,1,0-.52m.87,9.67.34,4.75-.49.43-.2-4.7Zm-1.14-9,0,.2c0,.1,0,.19,0,.26s0,.3,0,.66l-.31,0-.13-1.1Zm-2.45-4.2c.38,0,.81.14.83.56,0,.7.09,1.23.11,1.46-.34,0-.61.05-.87.08s-.38,0-.6.06l-.08,0c0-.29-.07-1-.1-1.63,0-.35.35-.53.71-.55m-.83,2.55a.44.44,0,0,1,.32-.15l.61-.06c.29,0,.59-.07,1-.09a.29.29,0,0,1,.25.09,1.43,1.43,0,0,1,.25.84l-2.52.35a1.45,1.45,0,0,1,.11-1m-.27,1.23h.08l2.81-.38.08.66-2.9.36Zm.09.86,2.9-.36.13,1.09-2.91.33Zm.78,8c.06.2.29,1.2.62,2.58a3.46,3.46,0,0,0-2.22.08,2.18,2.18,0,0,0-1,.62c-.33-1.37-.58-2.39-.62-2.63s.47-.62,1.26-.8l.4-.08h.06c.75-.1,1.37,0,1.45.24m-.81,3.7a2.6,2.6,0,0,0-1.44.79c0-.1-.05-.2-.07-.29a1.91,1.91,0,0,1,1.24-.8,2.65,2.65,0,0,1,1.9,0c0,.1.05.2.07.31a2.89,2.89,0,0,0-1.7-.06m1.77.36c0,.09.05.19.07.29a2.74,2.74,0,0,0-1.74-.12,2.35,2.35,0,0,0-1.39.86l-.08-.3a2.15,2.15,0,0,1,1.42-.86,2.37,2.37,0,0,1,1.72.13m-2.1-.89a2.53,2.53,0,0,0-1.26.72l-.07-.27a1.46,1.46,0,0,1,.95-.74,2.91,2.91,0,0,1,2.21,0l.06.27a3.29,3.29,0,0,0-1.89,0m-1.53-8.59.29-.07c.32,1.49.92,4.36,1.06,5h-.08Zm1.21-.51h0c0-.19-.06-.38-.09-.55Zm-1-1.57a.1.1,0,0,1,.08-.06.25.25,0,0,1,.21,0c.2.13.29.59.35.89.33,1.77.76,5.41.84,6.13h-.07c-.15-.75-1.17-5.56-1.24-5.9,0-.08,0-.17-.07-.27l-.09-.3c-.06-.27-.07-.44,0-.52m-.18.69a1.05,1.05,0,0,0,.05.19c0,.1,0,.19.07.26s.06.3.14.64l-.3.07-.28-1.07Zm-3.61-3.21c-.06-.35.28-.58.63-.65s.83,0,.91.45c.13.7.24,1.23.29,1.45-.3.07-.54.14-.78.21l-.68.18-.05,0c0-.23-.19-1-.32-1.66m.12,2.06a.51.51,0,0,1,.3-.19l.7-.19c.26-.07.53-.15.88-.23h0a.26.26,0,0,1,.24,0,1.38,1.38,0,0,1,.37.82l-2.45.66a1.38,1.38,0,0,1,0-.91m-.09,1.19.07,0h0l2.74-.74.17.64-2.84.73Zm.2.84,2.84-.73.27,1.06-2.86.71Zm-2-1.12,2.07,3.46a.56.56,0,0,1-.56.34l0-.15h0L124.75,117l.11,0m-.33.14,1.58,3.59v0a.1.1,0,0,0,0,0,.71.71,0,0,1-.51.43.69.69,0,0,1-.63-.24l0,0-.73-3.79a2,2,0,0,0,.37-.06m-.77.06h.16l.76,3.94a.57.57,0,0,1-.34.22l-.07,0c-.16,0-.26,0-.34,0Zm3.45,17.45a1.16,1.16,0,0,1,.21-.64l.54,1.83a1.59,1.59,0,0,1-.75-1.19m1.06,1.41L124,121.56h.06l.26,0,.07,0a.82.82,0,0,0,.36-.18l4.41,15.12a6.13,6.13,0,0,1-.89-.48m2.67,1.12a14.64,14.64,0,0,1-1.51-.52v0L125,121.27a.9.9,0,0,0,.62.13.94.94,0,0,0,.61-.41L131,137.11l-.08,0m.34.09-4.84-16.24a.76.76,0,0,0,.33-.08.84.84,0,0,0,.27-.22l5,16.71h0l-.73-.18m.92.22a.09.09,0,0,0,0-.11l-3.89-13.1-1.17-4.9,2.87-.7,1.25,4.92-.33.07c-1,.23-1.5.63-1.43,1.07.15.85,2.82,11.47,3.17,12.86l-.5-.11m.75.16c-.09-.37-1.17-4.65-2-8.2a2.09,2.09,0,0,1,1.37-1,2.42,2.42,0,0,1,1.76.2c.89,3.85,2,8.77,2.15,9.39-1.14-.1-2.23-.25-3.23-.44m3.48.46h0c-.09-.4-1.64-7.18-2.58-11.21a.11.11,0,0,0,0-.11c-.35-1.5-.61-2.6-.67-2.81a.35.35,0,0,0-.14-.2v0l-.71-6.41,2.91-.33,1,8.06.55,13.06-.29,0m.53,0-.34-8,.49-.44.62,8.53-.77-.05m2.41.11c-.48,0-1,0-1.41,0l-.62-8.67h1.45Zm-.6-8.95h-1.45l-.35-4.89h1.48Z" fill="#14aa40"/><path d="M135.63,125.53c-.21-1.92-.66-5.92-.76-6.31s-.51-1-1-1a.77.77,0,0,0-.49.31,1.22,1.22,0,0,0-.23.91c0,.06.78,6.48.85,7.09s.37,1,.85,1h.1a.76.76,0,0,0,.56-.26,1.17,1.17,0,0,0,.17-.88c0-.12,0-.42-.1-.84m-.25,1.57a.52.52,0,0,1-.4.18h-.08c-.22,0-.53-.07-.61-.75s-.85-7-.86-7.1a1,1,0,0,1,.19-.74.51.51,0,0,1,.33-.22h0c.25,0,.55.37.66.81s.56,4.51.76,6.28c0,.41.08.72.1.84a1,1,0,0,1-.12.7" fill="#14aa40"/><path d="M147.31,159c2-.87,3.08-2,3.08-3.28v-2a2.46,2.46,0,0,0-.6-1.55l1.4-5.89h0l.4-1.69a2,2,0,0,0,.08-.33l1.62-6.81a2,2,0,0,0,.65-1.41v-1.37a1.89,1.89,0,0,0-.34-1c1.82-2.75,4.44-6.67,4.65-7a.36.36,0,0,0,.05-.12.09.09,0,0,0,0-.08c.38-1,1.77-4.91,2.22-6.21a.12.12,0,0,0,0-.14.12.12,0,0,0-.14,0l-5.11,4.31a0,0,0,0,0,0,0l-4.57,7c-.3-.11-.61-.21-.93-.31l1.44-5v0l.29-6.37a.12.12,0,0,0-.08-.12.13.13,0,0,0-.13,0l-2.4,3.71a45,45,0,0,0,.72-6.56.88.88,0,0,0-.1-.36c1-.23,1.37-1.56,1.31-2.49,0-.18,0-.44-.08-.78-.13-1.22-.37-3.48.06-4.27a.11.11,0,0,0,0-.14.12.12,0,0,0-.16,0c-.19.18-4.7,4.41-2.62,7.31a1,1,0,0,0-.22.33c-.79,2.39-1.88,6.7-2.85,11,.43-4.45,1.37-14.22,1.31-15.1,0-.33,0-1-.56-1s-.53-.07-.83-.1l-.47,0c-.69-.07-.79.54-.86.94a1.57,1.57,0,0,1,0,.23c-.44,1.92-1.84,10.92-2.73,17.68H140l-.34-5.18v3.62l.08,1.24-.08-.06V130l.1.07.53,8.11h-.63v.24h.5c7.37,0,13.14-1.69,13.14-3.85a1.32,1.32,0,0,0,0-.34c.07-.11.15-.24.24-.36a1.63,1.63,0,0,1,.25.82c0,1.13-1.45,2.24-4,3.06a32.67,32.67,0,0,1-9.75,1.31h-.36v.23H140a32.94,32.94,0,0,0,9.83-1.32c2.05-.66,3.39-1.5,3.9-2.42v.51c0,1.13-1.45,2.24-4,3.06a33,33,0,0,1-9.75,1.31h-.36v.24H140a33.26,33.26,0,0,0,9.83-1.32,9.51,9.51,0,0,0,3.17-1.58l-.6,2.53,0,.06c-.49,2.26-5.9,4-12.3,4h-.42v.24H140c5.77,0,10.61-1.38,12.1-3.33l-.77,3.26c-.69,1.94-5.61,3.48-11.35,3.48h-.4v.24h.4c5.26,0,9.72-1.24,11.17-3l-.23.94c-.58,2-5.39,3.54-11,3.54h-.39V150H140c5,0,9.34-1.22,10.76-2.94l-1.33,5.58v0h0c0,2.41-4.24,4.37-9.46,4.37h-.36v.24H140c5.33,0,9.67-2.05,9.69-4.58l.05-.22a2.17,2.17,0,0,1,.44,1.26c0,2.41-4.57,4.37-10.18,4.37h-.36v.23H140a19,19,0,0,0,7.33-1.32,5.39,5.39,0,0,0,2.85-2.3v1c0,2.41-4.57,4.37-10.18,4.37h-.36v.23H140A19,19,0,0,0,147.31,159Zm12.16-36.36h0c-.59,1.68-1.17,3.29-1.36,3.77a.39.39,0,0,1-.39,0,.37.37,0,0,1-.16-.37l1.63-3.43A1.24,1.24,0,0,0,159.47,122.66Zm-.49-.12-1.61,3.38a1.11,1.11,0,0,1-.82,0,.55.55,0,0,1-.3-.64l2.48-2.89A1,1,0,0,0,159,122.54Zm-3.52,2.07,3-2.54a.42.42,0,0,0,.09.14l-2.5,2.9a.45.45,0,0,1-.46-.06A.48.48,0,0,1,155.46,124.61Zm-4.92,7.11-.24.38c-.23-.09-.48-.16-.73-.24l.12-.42C150,131.53,150.27,131.62,150.54,131.72Zm-.37.58-1.3,2,.63-2.21Zm1-9.93L151,126a.37.37,0,0,1-.34.13.36.36,0,0,1-.25-.2v0h0l.63-3.54Zm-.34,0-.62,3.45h0a.83.83,0,0,1-.75.23.86.86,0,0,1-.59-.51h0l1.55-3.34A1.45,1.45,0,0,0,150.79,122.36Zm-.7-.39.09.08-1.6,3.45a.54.54,0,0,1-.33,0,.52.52,0,0,1-.26-.27Zm.32-12.61a14.71,14.71,0,0,0,.08,3.91c0,.31.07.59.08.76.05.85-.3,2.13-1.21,2.27a1.07,1.07,0,0,0-.66-.39.82.82,0,0,0-.54.09C146.55,113.72,149.37,110.44,150.41,109.36Zm-2.43,7.2a.6.6,0,0,1,.68-.42.84.84,0,0,1,.69.74,42.13,42.13,0,0,1-.85,7.11l-.27.41a4.4,4.4,0,0,0-2.26-.46C146.69,121,147.41,118.27,148,116.56Zm-2.06,7.62a4.16,4.16,0,0,1,2.18.42l-.23.36a5.08,5.08,0,0,0-2.08-.25C145.83,124.54,145.87,124.36,145.92,124.18Zm-.19.78a4.47,4.47,0,0,1,2,.2l0,0a0,0,0,0,0,0,0l-.15.47a4.16,4.16,0,0,0-1.93-.29C145.66,125.27,145.7,125.11,145.73,125Zm-1.39-13.49.47,0c.29,0,.43,0,.82.1s.33.27.35.47l-2.17-.22C143.89,111.59,144,111.44,144.34,111.47Zm-.32,9.31a.14.14,0,0,0,.08,0l.26,0a5.9,5.9,0,0,1-.75,1.78,5.09,5.09,0,0,1-.33-1.83h.27a.13.13,0,0,0,.12-.11s.19-3.22.24-3.79a2.11,2.11,0,0,0-.12-.82,1.92,1.92,0,0,1-.12-.69c0-.5.38-2.77.47-3.27l1.38.14c-.05.51-.24,2.63-.31,3.24a2,2,0,0,1-.42,1,1.27,1.27,0,0,0-.26.52c-.06.34-.51,3.57-.53,3.71A.11.11,0,0,0,144,120.78Zm-.33-8.32a2,2,0,0,0,0-.24l0-.13h.14c-.09.54-.45,2.78-.47,3.29a2.53,2.53,0,0,0,.13.77,1.93,1.93,0,0,1,.12.73c-.05.51-.21,3.12-.24,3.69h-.28a.12.12,0,0,0-.09,0,.16.16,0,0,0,0,.09c.06,1,.2,2.15.55,2.18h0c.34,0,.74-1.14,1-2.09a.12.12,0,0,0,0-.1.11.11,0,0,0-.09,0l-.27,0c.08-.6.46-3.28.51-3.58a1.34,1.34,0,0,1,.22-.43,2.25,2.25,0,0,0,.46-1.06c.07-.61.26-2.73.31-3.25l.24,0v.1c0,.62-.56,7.17-1,12l-3.17-.32C142.56,118.88,143.37,113.84,143.69,112.46Zm-1.92,11.88,3.18.32c-.07.66-.13,1.28-.18,1.84l-3.26-.34C141.59,125.55,141.68,125,141.77,124.34Zm-1.8,6h.73c0,.14,0,.27,0,.4H140Zm.26,3.91L140,131h.61C140.47,132.15,140.33,133.26,140.23,134.23Zm.25,3.94-.16-2.54c.11-1.24.31-2.91.55-4.79h0c0-.21.06-.42.08-.63h0c.16-1.22.34-2.51.52-3.82l3.28.35-.27,2.71c-.72,3.33-1.32,6.5-1.62,8.64C142.09,138.14,141.29,138.17,140.48,138.17Zm3.35-.15-.73.06c.29-2.09.87-5.13,1.56-8.34a.09.09,0,0,0,0-.07,1.83,1.83,0,0,0,0-.19c.27-1.27.56-2.55.86-3.81a3.61,3.61,0,0,1,1.91.27L143.83,138Zm.25,0,3.79-12.53a.72.72,0,0,0,.29.22.68.68,0,0,0,.34.06L145,137.9Zm1.2-.13,3.44-12a1.07,1.07,0,0,0,.64.44,1,1,0,0,0,.71-.11l-3.41,11.5Zm1.64-.25,3.38-11.4a.62.62,0,0,0,.29.15h.1a.71.71,0,0,0,.21,0l-1.41,4.92h0l-.18.65h0l-1.59,5.56C147.46,137.53,147.19,137.58,146.92,137.62Zm5.2-1.75c.22-.32.53-.8.91-1.37v.06A1.75,1.75,0,0,1,152.12,135.87Zm-.48.3a12,12,0,0,1-2.34.92c-.42.12-.86.23-1.33.33l.68-2.36,6.6-10.15a.64.64,0,0,0,.21.32.72.72,0,0,0,.53.15.81.81,0,0,0,.46.74,1.29,1.29,0,0,0,.88.06.6.6,0,0,0,.59.54h0C157.11,127.93,152.05,135.55,151.64,136.17Z" fill="none" stroke="#14aa40" stroke-miterlimit="10" stroke-width="0.26"/><path d="M139.55,124.65l-.94-.54h-1.82l0,0h0l-.38.52-.93-7.76.3,0c.14,1.93.45,6.26.46,6.32h0s0,0,0,0,0,0,0,0,0,0,0,0h.17s0,0,0,0v0s0,0,0,0v0s.24-4,.23-6.39l.2,0a.12.12,0,0,0,.08,0,.1.1,0,0,0,0-.09l-.17-1.41a.08.08,0,0,0,0-.07.16.16,0,0,0-.09,0l-.1,0a.76.76,0,0,0-.24-.46.44.44,0,0,0-.37-.11.33.33,0,0,0-.25.13.78.78,0,0,0-.11.58l-.33,0-.09-.78a.12.12,0,0,0,0-.07.11.11,0,0,0-.08,0H135a1.55,1.55,0,0,0-.32-1,.53.53,0,0,0-.31-.15c0-.21-.07-.75-.11-1.47a.93.93,0,0,0-1.09-.79c-.46,0-.95.29-.93.81,0,.71.09,1.46.11,1.69a.75.75,0,0,0-.17.14,1.53,1.53,0,0,0-.16,1.16h-.08a.12.12,0,0,0-.1.13l.1.83s0,0,0,0v0l.85,7.65a1.63,1.63,0,0,0-.61-.1c-.06-.55-.38-3.26-.68-5.18l.17,0a.1.1,0,0,0,.08,0,.14.14,0,0,0,0-.09l-.35-1.38a.12.12,0,0,0-.15-.08l-.09,0a.91.91,0,0,0-.29-.43.53.53,0,0,0-.39-.06.35.35,0,0,0-.23.16.84.84,0,0,0,0,.59l-.32.09-.19-.75a.13.13,0,0,0-.05-.07.15.15,0,0,0-.09,0l-.06,0a1.6,1.6,0,0,0-.46-1,.53.53,0,0,0-.32-.1c0-.21-.16-.73-.29-1.44a1,1,0,0,0-1.18-.64c-.46.09-.91.41-.82.92.14.76.3,1.57.33,1.71a.86.86,0,0,0-.18.2,1.47,1.47,0,0,0,0,1.08l-.07,0a.13.13,0,0,0-.09.14l.2.84h0l.57,2.36h0a.14.14,0,0,0,0-.08l-3.49-5.85a.15.15,0,0,0-.14,0,.13.13,0,0,0-.08.12l.29,6.9h0a0,0,0,0,0,0,0l3.4,11.49a2.38,2.38,0,0,0-1.09,1.8v1.37a2.18,2.18,0,0,0,.83,1.58l1.52,6.64a1.16,1.16,0,0,0,.07.31l.33,1.46a1.53,1.53,0,0,0,.07.29l1.33,5.85a2.44,2.44,0,0,0-.6,1.55v2c0,1.25,1.09,2.41,3.08,3.28a18.61,18.61,0,0,0,7,1.32v-.23c-5.45-.09-9.82-2-9.82-4.37v-1a5.43,5.43,0,0,0,2.85,2.3,18.61,18.61,0,0,0,7,1.32v-.23c-5.45-.08-9.82-2-9.82-4.37a2.17,2.17,0,0,1,.44-1.26l0,.22c0,2.47,4.16,4.48,9.33,4.58V157c-5.05-.09-9.1-2-9.1-4.36h0v0l-1.28-5.6c1.37,1.68,5.49,2.9,10.38,3v-.24c-5.38-.07-9.93-1.59-10.56-3.49l-.22-1c1.39,1.69,5.68,2.92,10.78,3V148c-5.59-.07-10.31-1.58-11-3.49l-.74-3.27a7.43,7.43,0,0,0,3.54,2.13,27.26,27.26,0,0,0,8.16,1.23v-.24c-6.31-.07-11.49-1.84-11.9-4.09a.1.1,0,0,0,0-.07l-.53-2.33a10,10,0,0,0,3,1.45,32.84,32.84,0,0,0,9.46,1.32v-.24a32.78,32.78,0,0,1-9.39-1.3c-2.53-.82-4-1.93-4-3.06v-.51c.52.92,1.86,1.76,3.91,2.42a32.5,32.5,0,0,0,9.46,1.32v-.23a32.41,32.41,0,0,1-9.39-1.31c-2.53-.82-4-1.93-4-3.06a2.11,2.11,0,0,1,.93-1.56l.16.52a1.47,1.47,0,0,0-.36.92c0,2.11,5.51,3.77,12.64,3.85v-.24h0l-.57-8.6.59.42v-.29l-.61-.43-.32-4.85.69.4.24,3.7v-3.78A.1.1,0,0,0,139.55,124.65Zm-2.83-8.09h-.06c0-.21,0-.4,0-.57Zm-.84-1.69a.11.11,0,0,1,.09-.05.23.23,0,0,1,.2.06c.19.15.21.62.23.93.08,1.23,0,3.76-.1,5.51-.11-1.47-.25-3.45-.33-4.55v0c0-.4-.05-.68-.06-.75s0-.17,0-.28,0-.2,0-.3A.8.8,0,0,1,135.88,114.87Zm.87,9.67.34,4.75-.49.43-.2-4.7Zm-1.14-9,0,.2c0,.1,0,.19,0,.26s0,.3,0,.66l-.31,0-.13-1.1Zm-2.45-4.2c.38,0,.81.14.83.56,0,.7.09,1.23.11,1.46-.34,0-.61.05-.87.08s-.38,0-.6.06l-.08,0c0-.29-.07-1-.1-1.63C132.43,111.53,132.8,111.35,133.16,111.33Zm-.83,2.55a.44.44,0,0,1,.32-.15l.61-.06c.29,0,.59-.07,1-.09a.29.29,0,0,1,.25.09,1.43,1.43,0,0,1,.25.84l-2.52.35A1.45,1.45,0,0,1,132.33,113.88Zm-.27,1.23h.08l2.81-.38.08.66-2.9.36Zm.09.86,2.9-.36.13,1.09-2.91.33Zm.78,8c.06.2.29,1.2.62,2.58a3.46,3.46,0,0,0-2.22.08,2.18,2.18,0,0,0-1,.62c-.33-1.37-.58-2.39-.62-2.63s.47-.62,1.26-.8l.4-.08h.06C132.23,123.62,132.85,123.71,132.93,124Zm-.81,3.7a2.6,2.6,0,0,0-1.44.79c0-.1-.05-.2-.07-.29a1.91,1.91,0,0,1,1.24-.8,2.65,2.65,0,0,1,1.9,0c0,.1.05.2.07.31A2.89,2.89,0,0,0,132.12,127.66Zm1.77.36c0,.09.05.19.07.29a2.74,2.74,0,0,0-1.74-.12,2.35,2.35,0,0,0-1.39.86l-.08-.3a2.15,2.15,0,0,1,1.42-.86A2.37,2.37,0,0,1,133.89,128Zm-2.1-.89a2.53,2.53,0,0,0-1.26.72l-.07-.27a1.46,1.46,0,0,1,.95-.74,2.91,2.91,0,0,1,2.21,0l.06.27A3.29,3.29,0,0,0,131.79,127.13Zm-1.53-8.59.29-.07c.32,1.49.92,4.36,1.06,5h-.08Zm1.21-.51h0c0-.19-.06-.38-.09-.55Zm-1-1.57a.1.1,0,0,1,.08-.06.25.25,0,0,1,.21,0c.2.13.29.59.35.89.33,1.77.76,5.41.84,6.13h-.07c-.15-.75-1.17-5.56-1.24-5.9,0-.08,0-.17-.07-.27l-.09-.3C130.38,116.71,130.37,116.54,130.43,116.46Zm-.18.69a1.05,1.05,0,0,0,.05.19c0,.1,0,.19.07.26s.06.3.14.64l-.3.07-.28-1.07Zm-3.61-3.21c-.06-.35.28-.58.63-.65s.83,0,.91.45c.13.7.24,1.23.29,1.45-.3.07-.54.14-.78.21l-.68.18-.05,0C126.92,115.37,126.77,114.63,126.64,113.94Zm.12,2.06a.51.51,0,0,1,.3-.19l.7-.19c.26-.07.53-.15.88-.23h0a.26.26,0,0,1,.24,0,1.38,1.38,0,0,1,.37.82l-2.45.66A1.38,1.38,0,0,1,126.76,116Zm-.09,1.19.07,0h0l2.74-.74.17.64-2.84.73Zm.2.84,2.84-.73.27,1.06-2.86.71Zm-2-1.12,2.07,3.46a.56.56,0,0,1-.56.34l0-.15h0L124.75,117Zm-.33.14,1.58,3.59v0a.1.1,0,0,0,0,0,.71.71,0,0,1-.51.43.69.69,0,0,1-.63-.24l0,0-.73-3.79A2,2,0,0,0,124.53,117.05Zm-.77.06h.16l.76,3.94a.57.57,0,0,1-.34.22l-.07,0c-.16,0-.26,0-.34,0Zm3.45,17.45a1.16,1.16,0,0,1,.21-.64l.54,1.83A1.59,1.59,0,0,1,127.21,134.56Zm1.06,1.41L124,121.56h.06l.26,0,.07,0a.82.82,0,0,0,.36-.18l4.41,15.12A6.13,6.13,0,0,1,128.27,136Zm2.67,1.12a14.64,14.64,0,0,1-1.51-.52v0L125,121.27a.9.9,0,0,0,.62.13.94.94,0,0,0,.61-.41L131,137.11Zm.34.09-4.84-16.24a.76.76,0,0,0,.33-.08.84.84,0,0,0,.27-.22l5,16.71h0Zm.92.22a.09.09,0,0,0,0-.11l-3.89-13.1-1.17-4.9,2.87-.7,1.25,4.92-.33.07c-1,.23-1.5.63-1.43,1.07.15.85,2.82,11.47,3.17,12.86Zm.75.16c-.09-.37-1.17-4.65-2-8.2a2.09,2.09,0,0,1,1.37-1,2.42,2.42,0,0,1,1.76.2c.89,3.85,2,8.77,2.15,9.39C135,137.9,134,137.75,133,137.56Zm3.48.46h0c-.09-.4-1.64-7.18-2.58-11.21a.11.11,0,0,0,0-.11c-.35-1.5-.61-2.6-.67-2.81a.35.35,0,0,0-.14-.2v0l-.71-6.41,2.91-.33,1,8.06.55,13.06Zm.53,0-.34-8,.49-.44.62,8.53Zm2.41.11c-.48,0-1,0-1.41,0l-.62-8.67h1.45Zm-.6-8.95h-1.45l-.35-4.89h1.48Z" fill="none" stroke="#14aa40" stroke-miterlimit="10" stroke-width="0.26"/><path d="M135.63,125.53c-.21-1.92-.66-5.92-.76-6.31s-.51-1-1-1a.77.77,0,0,0-.49.31,1.22,1.22,0,0,0-.23.91c0,.06.78,6.48.85,7.09s.37,1,.85,1h.1a.76.76,0,0,0,.56-.26,1.17,1.17,0,0,0,.17-.88C135.71,126.25,135.68,126,135.63,125.53Zm-.25,1.57a.52.52,0,0,1-.4.18h-.08c-.22,0-.53-.07-.61-.75s-.85-7-.86-7.1a1,1,0,0,1,.19-.74.51.51,0,0,1,.33-.22h0c.25,0,.55.37.66.81s.56,4.51.76,6.28c0,.41.08.72.1.84A1,1,0,0,1,135.38,127.1Z" fill="none" stroke="#14aa40" stroke-miterlimit="10" stroke-width="0.26"/></g></g></svg>