<svg xmlns="http://www.w3.org/2000/svg" viewBox="0 0 300 250"><title>H4</title><g id="Layer_2" data-name="Layer 2"><g id="Artboard_2" data-name="Artboard 2" style="isolation:isolate"><g id="Extra_income._Flexible_hours._Take_our_virtual_tax_course." data-name="Extra income. Flexible hours. Take our virtual tax course."><path d="M21,20.22h7.22v2.31H24v1.8h3.38v2.14H24v1.9h4.47v2.31H21Z" fill="#14aa40"/><path d="M31.46,26.79,29.08,23h3l1.18,2,1.16-2h2.69l-2.41,3.55,2.64,4.1h-3L33,28.4l-1.39,2.28H28.92Z" fill="#14aa40"/><path d="M38.33,28.22V24.81h-.92V23h.92V21.44H41V23h1.5v1.78H41V28c0,.56.27.81.77.81a2,2,0,0,0,.75-.14v2a5.47,5.47,0,0,1-1.45.22A2.36,2.36,0,0,1,38.33,28.22Z" fill="#14aa40"/><path d="M43.45,23h2.61v1.52a2.4,2.4,0,0,1,2.47-1.62v2.44c-1.59,0-2.47.45-2.47,1.68v3.63H43.45Z" fill="#14aa40"/><path d="M48.87,28.56c0-1.8,1.52-2.5,4.06-2.5h.73v-.18c0-.73-.17-1.21-1-1.21a.93.93,0,0,0-1,.9H49.16c.12-1.84,1.57-2.74,3.66-2.74s3.45.86,3.45,2.89v5H53.72v-.9a2.49,2.49,0,0,1-2.26,1.07C50.08,30.85,48.87,30.18,48.87,28.56ZM53.66,28v-.47H53c-1.06,0-1.52.21-1.52.84,0,.43.29.71.9.71S53.66,28.66,53.66,28Z" fill="#14aa40"/><path d="M60.14,21a1.36,1.36,0,0,1,1.43-1.36,1.35,1.35,0,1,1,0,2.7A1.35,1.35,0,0,1,60.14,21ZM60.27,23h2.62v7.65H60.27Z" fill="#14aa40"/><path d="M64.29,23h2.62v1.23a2.68,2.68,0,0,1,2.51-1.43c1.48,0,2.5.92,2.5,2.88v5H69.3V26.23c0-.86-.33-1.28-1.09-1.28s-1.3.46-1.3,1.44v4.29H64.29Z" fill="#14aa40"/><path d="M72.78,27v-.12a3.85,3.85,0,0,1,4.08-4c1.87,0,3.6.81,3.74,3.14H78.15a1.13,1.13,0,0,0-1.23-1.11c-.92,0-1.46.66-1.46,1.94v.12c0,1.33.51,2,1.5,2a1.28,1.28,0,0,0,1.33-1.28h2.36c-.08,1.93-1.38,3.19-3.85,3.19A3.69,3.69,0,0,1,72.78,27Z" fill="#14aa40"/><path d="M81.08,27v-.12a3.93,3.93,0,0,1,4.2-4,3.87,3.87,0,0,1,4.17,3.93v.12a3.89,3.89,0,0,1-4.19,4C82.91,30.85,81.08,29.42,81.08,27Zm5.7-.05v-.11c0-1.29-.51-2-1.5-2s-1.52.69-1.52,2v.12c0,1.31.51,2,1.52,2S86.78,28.18,86.78,26.9Z" fill="#14aa40"/><path d="M90.37,23H93V24.2a2.68,2.68,0,0,1,2.4-1.37,2.08,2.08,0,0,1,2.08,1.27A3,3,0,0,1,100,22.83c1.45,0,2.5.93,2.5,2.85v5H99.87V26.12c0-.78-.38-1.16-1-1.16a1.13,1.13,0,0,0-1.17,1.29v4.43H95.13V26.12c0-.78-.38-1.16-1-1.16A1.13,1.13,0,0,0,93,26.25v4.43H90.37Z" fill="#14aa40"/><path d="M103.35,27v-.12a3.9,3.9,0,0,1,4.13-4,3.62,3.62,0,0,1,3.89,3.94v.69H106a1.52,1.52,0,0,0,1.59,1.59c.87,0,1.23-.39,1.34-.9h2.45c-.23,1.72-1.56,2.7-3.87,2.7S103.35,29.45,103.35,27Zm5.48-1c0-.92-.5-1.43-1.35-1.43A1.45,1.45,0,0,0,106,26Z" fill="#14aa40"/><path d="M112.1,29.36a1.46,1.46,0,0,1,1.49-1.48,1.48,1.48,0,1,1,0,3A1.46,1.46,0,0,1,112.1,29.36Z" fill="#14aa40"/><path d="M119.25,20.22h7.06v2.33h-4v2.22h3.23V27h-3.23v3.7h-3Z" fill="#14aa40"/><path d="M127.33,19.67h2.6v11h-2.6Z" fill="#14aa40"/><path d="M130.93,27v-.12a3.9,3.9,0,0,1,4.13-4A3.62,3.62,0,0,1,139,26.77v.69h-5.38a1.53,1.53,0,0,0,1.6,1.59c.86,0,1.22-.39,1.33-.9H139c-.23,1.72-1.56,2.7-3.87,2.7S130.93,29.45,130.93,27Zm5.48-1c0-.92-.5-1.43-1.35-1.43A1.45,1.45,0,0,0,133.6,26Z" fill="#14aa40"/><path d="M141.38,26.79,139,23h3l1.18,2,1.16-2H147l-2.41,3.55,2.65,4.1h-3L142.9,28.4l-1.39,2.28h-2.68Z" fill="#14aa40"/><path d="M147.94,21a1.36,1.36,0,0,1,1.43-1.36,1.35,1.35,0,1,1,0,2.7A1.35,1.35,0,0,1,147.94,21Zm.13,2.07h2.62v7.65h-2.62Z" fill="#14aa40"/><path d="M154.71,29.49v1.19h-2.62v-11h2.62v4.5a2.7,2.7,0,0,1,2.38-1.34c1.78,0,3.23,1.34,3.23,4v.11c0,2.64-1.45,4-3.24,4A2.48,2.48,0,0,1,154.71,29.49Zm2.95-2.59v-.11c0-1.35-.58-2-1.5-2s-1.53.69-1.53,2v.12c0,1.3.58,2,1.53,2S157.66,28.16,157.66,26.9Z" fill="#14aa40"/><path d="M161.34,19.67H164v11h-2.61Z" fill="#14aa40"/><path d="M164.94,27v-.12a3.91,3.91,0,0,1,4.14-4A3.61,3.61,0,0,1,173,26.77v.69h-5.38a1.53,1.53,0,0,0,1.6,1.59c.86,0,1.23-.39,1.33-.9H173c-.23,1.72-1.56,2.7-3.87,2.7S164.94,29.45,164.94,27Zm5.48-1c0-.92-.5-1.43-1.34-1.43A1.46,1.46,0,0,0,167.61,26Z" fill="#14aa40"/><path d="M20.77,36.73h2.62v4.59a2.7,2.7,0,0,1,2.52-1.43c1.47,0,2.5.92,2.5,2.88v5H25.79V43.29c0-.86-.34-1.28-1.1-1.28s-1.3.47-1.3,1.45v4.28H20.77Z" fill="#14aa40"/><path d="M29.27,44v-.12a3.92,3.92,0,0,1,4.19-4,3.87,3.87,0,0,1,4.17,3.93v.12a3.88,3.88,0,0,1-4.18,4C31.09,47.91,29.27,46.48,29.27,44ZM35,44v-.12c0-1.29-.51-2-1.51-2s-1.52.68-1.52,2v.12c0,1.31.51,2,1.52,2S35,45.24,35,44Z" fill="#14aa40"/><path d="M38.49,45.08v-5h2.62v4.56c0,.87.33,1.29,1.08,1.29s1.3-.47,1.3-1.45v-4.4h2.62v7.65H43.49V46.55a2.52,2.52,0,0,1-2.43,1.36C39.59,47.91,38.49,47,38.49,45.08Z" fill="#14aa40"/><path d="M47.44,40.09h2.61v1.52A2.41,2.41,0,0,1,52.52,40v2.44c-1.59,0-2.47.46-2.47,1.68v3.63H47.44Z" fill="#14aa40"/><path d="M53,45.31H55.4c.09.56.34.86,1.08.86s.94-.24.94-.62S57.05,45,56,44.86c-2-.26-2.91-.86-2.91-2.46s1.51-2.51,3.28-2.51,3.2.64,3.37,2.47H57.38a.86.86,0,0,0-1-.76c-.57,0-.87.25-.87.6s.35.51,1.29.63c2.12.26,3.14.82,3.14,2.45,0,1.82-1.34,2.63-3.46,2.63S53.05,47,53,45.31Z" fill="#14aa40"/><path d="M60.71,46.42A1.45,1.45,0,0,1,62.2,45a1.48,1.48,0,1,1-1.49,1.47Z" fill="#14aa40"/><path d="M69.86,39.6H67.15V37.29h8.42V39.6h-2.7v8.14h-3Z" fill="#14aa40"/><path d="M75.05,45.62c0-1.8,1.52-2.5,4.06-2.5h.73v-.18c0-.73-.17-1.21-1-1.21a.93.93,0,0,0-1,.91H75.34c.12-1.84,1.56-2.75,3.65-2.75s3.45.86,3.45,2.89v5H79.9v-.89a2.53,2.53,0,0,1-2.27,1.06C76.26,47.91,75.05,47.24,75.05,45.62Zm4.79-.56V44.6h-.69c-1.05,0-1.52.2-1.52.83,0,.44.3.72.91.72A1.15,1.15,0,0,0,79.84,45.06Z" fill="#14aa40"/><path d="M83.71,36.73h2.62v6.39l2.06-3h2.72l-2.5,3.44,2.71,4.21H88.39l-2.06-3.35v3.35H83.71Z" fill="#14aa40"/><path d="M91.13,44v-.12a3.9,3.9,0,0,1,4.13-4,3.63,3.63,0,0,1,3.89,4v.68H93.77a1.53,1.53,0,0,0,1.59,1.6c.87,0,1.23-.4,1.34-.91h2.45c-.23,1.72-1.56,2.7-3.87,2.7S91.13,46.51,91.13,44Zm5.48-1c0-.92-.5-1.44-1.35-1.44a1.46,1.46,0,0,0-1.46,1.44Z" fill="#14aa40"/><path d="M102.31,44v-.12a3.92,3.92,0,0,1,4.19-4,3.87,3.87,0,0,1,4.17,3.93v.12a3.88,3.88,0,0,1-4.18,4C104.13,47.91,102.31,46.48,102.31,44Zm5.7,0v-.12c0-1.29-.51-2-1.51-2s-1.52.68-1.52,2v.12c0,1.31.51,2,1.52,2S108,45.24,108,44Z" fill="#14aa40"/><path d="M111.53,45.08v-5h2.62v4.56c0,.87.33,1.29,1.08,1.29s1.3-.47,1.3-1.45v-4.4h2.62v7.65h-2.62V46.55a2.51,2.51,0,0,1-2.43,1.36C112.63,47.91,111.53,47,111.53,45.08Z" fill="#14aa40"/><path d="M120.48,40.09h2.61v1.52A2.41,2.41,0,0,1,125.56,40v2.44c-1.59,0-2.47.46-2.47,1.68v3.63h-2.61Z" fill="#14aa40"/><path d="M128.51,40.09h2.8L132.9,45l1.56-4.93H137l-2.79,7.65h-2.85Z" fill="#14aa40"/><path d="M137.56,38A1.44,1.44,0,1,1,139,39.36,1.37,1.37,0,0,1,137.56,38Zm.13,2.07h2.62v7.65h-2.62Z" fill="#14aa40"/><path d="M141.71,40.09h2.62v1.52A2.41,2.41,0,0,1,146.8,40v2.44c-1.59,0-2.47.46-2.47,1.68v3.63h-2.62Z" fill="#14aa40"/><path d="M148.22,45.28v-3.4h-.92V40.09h.92V38.5h2.61v1.59h1.51v1.79h-1.51V45c0,.56.28.81.78.81a2.22,2.22,0,0,0,.75-.13v2a5.47,5.47,0,0,1-1.45.22A2.36,2.36,0,0,1,148.22,45.28Z" fill="#14aa40"/><path d="M153.28,45.08v-5h2.61v4.56c0,.87.34,1.29,1.08,1.29s1.31-.47,1.31-1.45v-4.4h2.61v7.65h-2.61V46.55a2.52,2.52,0,0,1-2.43,1.36C154.37,47.91,153.28,47,153.28,45.08Z" fill="#14aa40"/><path d="M161.78,45.62c0-1.8,1.52-2.5,4.07-2.5h.73v-.18c0-.73-.18-1.21-1-1.21a.94.94,0,0,0-1,.91h-2.45c.11-1.84,1.56-2.75,3.65-2.75s3.45.86,3.45,2.89v5h-2.54v-.89a2.53,2.53,0,0,1-2.27,1.06C163,47.91,161.78,47.24,161.78,45.62Zm4.8-.56V44.6h-.69c-1,0-1.52.2-1.52.83,0,.44.29.72.91.72A1.16,1.16,0,0,0,166.58,45.06Z" fill="#14aa40"/><path d="M170.52,36.73h2.61v11h-2.61Z" fill="#14aa40"/><path d="M21.13,62.35V58.94H20.2V57.16h.93v-1.6h2.61v1.6h1.51v1.78H23.74V62.1a.7.7,0,0,0,.78.8,1.92,1.92,0,0,0,.74-.13v2a5.32,5.32,0,0,1-1.44.22A2.36,2.36,0,0,1,21.13,62.35Z" fill="#14aa40"/><path d="M25.83,62.68c0-1.8,1.52-2.5,4.07-2.5h.73V60c0-.73-.18-1.22-1-1.22a.94.94,0,0,0-1,.91H26.12c.12-1.84,1.57-2.75,3.66-2.75s3.45.86,3.45,2.9V64.8H30.69v-.89A2.51,2.51,0,0,1,28.42,65C27.05,65,25.83,64.3,25.83,62.68Zm4.8-.55v-.47h-.69c-1.05,0-1.52.2-1.52.83,0,.44.29.72.91.72A1.16,1.16,0,0,0,30.63,62.13Z" fill="#14aa40"/><path d="M36.43,60.91l-2.38-3.75h3l1.18,2,1.16-2h2.69l-2.42,3.55,2.65,4.09h-3L38,62.52,36.56,64.8H33.89Z" fill="#14aa40"/><path d="M45.3,61.07V61a3.85,3.85,0,0,1,4.08-4c1.87,0,3.6.82,3.74,3.14H50.67A1.14,1.14,0,0,0,49.44,59c-.92,0-1.46.66-1.46,2V61c0,1.34.51,2,1.5,2a1.28,1.28,0,0,0,1.33-1.27h2.36C53.09,63.72,51.79,65,49.32,65A3.69,3.69,0,0,1,45.3,61.07Z" fill="#14aa40"/><path d="M53.6,61.07V61a3.93,3.93,0,0,1,4.2-4A3.88,3.88,0,0,1,62,60.88V61a3.89,3.89,0,0,1-4.19,4C55.43,65,53.6,63.54,53.6,61.07Zm5.7,0v-.12c0-1.28-.51-2-1.5-2s-1.52.69-1.52,2V61c0,1.32.51,2,1.52,2S59.3,62.3,59.3,61Z" fill="#14aa40"/><path d="M62.83,62.14v-5h2.61v4.56c0,.86.34,1.28,1.09,1.28s1.3-.46,1.3-1.44v-4.4h2.61V64.8H67.83V63.62A2.52,2.52,0,0,1,65.4,65C63.92,65,62.83,64.07,62.83,62.14Z" fill="#14aa40"/><path d="M71.77,57.16h2.62v1.52a2.42,2.42,0,0,1,2.47-1.63V59.5c-1.59,0-2.47.45-2.47,1.68V64.8H71.77Z" fill="#14aa40"/><path d="M77.33,62.38h2.41c.09.55.33.86,1.08.86s.94-.25.94-.63-.37-.54-1.42-.69c-2-.26-2.91-.86-2.91-2.45S78.93,57,80.7,57s3.2.65,3.38,2.47H81.71a.85.85,0,0,0-1-.76c-.57,0-.86.25-.86.6s.35.51,1.29.63c2.12.26,3.14.82,3.14,2.46C84.3,64.16,83,65,80.83,65S77.39,64.07,77.33,62.38Z" fill="#14aa40"/><path d="M84.78,61.07V61a3.91,3.91,0,0,1,4.14-4,3.63,3.63,0,0,1,3.89,3.95v.69H87.43A1.52,1.52,0,0,0,89,63.18c.86,0,1.23-.4,1.33-.91h2.46C92.57,64,91.24,65,88.93,65S84.78,63.57,84.78,61.07Zm5.48-1c0-.92-.49-1.43-1.34-1.43a1.45,1.45,0,0,0-1.46,1.43Z" fill="#14aa40"/><path d="M93.54,63.49A1.46,1.46,0,0,1,95,62,1.48,1.48,0,1,1,95,65,1.46,1.46,0,0,1,93.54,63.49Z" fill="#14aa40"/></g><g id="rect"><rect width="300" height="250" fill="none"/></g></g></g></svg>