<svg xmlns="http://www.w3.org/2000/svg" viewBox="0 0 300 600"><title>txt</title><g id="Layer_2" data-name="Layer 2"><g id="Artboard_1" data-name="Artboard 1" style="isolation:isolate"><g id="headline"><g id="rect"><rect width="300" height="600" fill="none"/></g><g id="Your_future_could_take_on_a_whole_new_look." data-name="Your future could take on a whole new look."><path d="M28,38.7,20.27,25.1h7.41l4,8,4-8h6.51L34.86,38.7V48.87H28Z" fill="#14aa40"/><path d="M39.75,40.4v-.27c0-5.59,4.16-9.11,9.54-9.11s9.48,3.42,9.48,8.94v.27c0,5.65-4.16,9-9.51,9S39.75,46,39.75,40.4Zm13-.1V40c0-2.93-1.17-4.56-3.43-4.56S45.83,37,45.83,40v.27c0,3,1.17,4.62,3.46,4.62S52.72,43.19,52.72,40.3Z" fill="#14aa40"/><path d="M60.73,42.82V31.48h6V41.86c0,2,.77,2.92,2.46,2.92s3-1.06,3-3.29v-10h6V48.87h-6V46.18a5.7,5.7,0,0,1-5.52,3.09C63.22,49.27,60.73,47.21,60.73,42.82Z" fill="#14aa40"/><path d="M81.08,31.48h6v3.46a5.49,5.49,0,0,1,5.62-3.69V36.8C89,36.71,87,37.84,87,40.63v8.24h-6Z" fill="#14aa40"/><path d="M101.76,35.54H99.57V31.48h2.19V30c0-4.33,2.69-6.39,6.82-6.39a10.58,10.58,0,0,1,2.72.37v4.35a5.54,5.54,0,0,0-1.63-.23,1.75,1.75,0,0,0-2,1.9v1.52h3.52v4.06h-3.52V48.87h-5.92Z" fill="#14aa40"/><path d="M113.06,42.82V31.48h6V41.86c0,2,.76,2.92,2.46,2.92s3-1.06,3-3.29v-10h5.95V48.87h-5.95V46.18a5.72,5.72,0,0,1-5.52,3.09C115.56,49.27,113.06,47.21,113.06,42.82Z" fill="#14aa40"/><path d="M134.21,43.29V35.54h-2.09V31.48h2.09V27.86h5.95v3.62h3.43v4.06h-3.43v7.18c0,1.27.63,1.83,1.77,1.83a4.5,4.5,0,0,0,1.69-.3v4.52a12.39,12.39,0,0,1-3.29.5C136.41,49.27,134.21,47.38,134.21,43.29Z" fill="#14aa40"/><path d="M145.72,42.82V31.48h5.95V41.86c0,2,.76,2.92,2.46,2.92s3-1.06,3-3.29v-10H163V48.87h-5.95V46.18a5.71,5.71,0,0,1-5.52,3.09C148.21,49.27,145.72,47.21,145.72,42.82Z" fill="#14aa40"/><path d="M166.06,31.48h6v3.46a5.47,5.47,0,0,1,5.61-3.69V36.8c-3.62-.09-5.61,1-5.61,3.83v8.24h-6Z" fill="#14aa40"/><path d="M178.7,40.4v-.27c0-5.59,4.15-9.11,9.41-9.11,4.75,0,8.84,2.73,8.84,9v1.56H184.72c.16,2.29,1.49,3.62,3.62,3.62,2,0,2.79-.89,3-2.06H197c-.53,3.93-3.56,6.15-8.81,6.15C182.69,49.27,178.7,46.08,178.7,40.4Zm12.47-2.2c-.1-2.09-1.13-3.26-3.06-3.26s-3,1.17-3.33,3.26Z" fill="#14aa40"/><path d="M20.83,75.65v-.27c0-5.79,4.16-9.11,9.28-9.11,4.25,0,8.18,1.86,8.51,7.15H33c-.26-1.63-1.06-2.53-2.79-2.53-2.09,0-3.32,1.5-3.32,4.42v.27c0,3,1.16,4.59,3.42,4.59a2.9,2.9,0,0,0,3-2.9h5.35c-.17,4.39-3.13,7.25-8.75,7.25C24.79,84.52,20.83,81.5,20.83,75.65Z" fill="#14aa40"/><path d="M39.72,75.65v-.27c0-5.59,4.15-9.11,9.54-9.11s9.48,3.42,9.48,8.94v.27c0,5.65-4.16,9-9.51,9S39.72,81.26,39.72,75.65Zm13-.1v-.27c0-2.93-1.16-4.56-3.42-4.56s-3.46,1.57-3.46,4.49v.27c0,3,1.17,4.62,3.46,4.62S52.68,78.44,52.68,75.55Z" fill="#14aa40"/><path d="M60.7,78.07V66.73h6V77.11c0,2,.76,2.92,2.46,2.92s3-1.06,3-3.29v-10h6V84.12h-6V81.43a5.71,5.71,0,0,1-5.52,3.09C63.19,84.52,60.7,82.46,60.7,78.07Z" fill="#14aa40"/><path d="M81.21,59.09h5.92v25H81.21Z" fill="#14aa40"/><path d="M89.46,75.61v-.26c0-5.92,3.26-9.08,7.38-9.08a5.62,5.62,0,0,1,5.35,2.93V59.09h6v25h-6V81.3a5.86,5.86,0,0,1-5.42,3.22C92.75,84.52,89.46,81.63,89.46,75.61Zm12.9-.1v-.26c0-2.93-1.23-4.49-3.43-4.49s-3.42,1.49-3.42,4.52v.27c0,2.92,1.3,4.42,3.36,4.42S102.36,78.47,102.36,75.51Z" fill="#14aa40"/><path d="M118,78.54V70.79h-2.1V66.73H118V63.11h6v3.62h3.43v4.06H124V78c0,1.27.63,1.83,1.76,1.83a4.52,4.52,0,0,0,1.7-.3V84a12.53,12.53,0,0,1-3.29.5C120.21,84.52,118,82.63,118,78.54Z" fill="#14aa40"/><path d="M128.73,79.3c0-4.09,3.45-5.68,9.24-5.68h1.66v-.4c0-1.66-.4-2.76-2.29-2.76A2.13,2.13,0,0,0,135,72.52h-5.59c.27-4.19,3.56-6.25,8.31-6.25s7.85,2,7.85,6.58V84.12h-5.79v-2c-.83,1.26-2.36,2.42-5.15,2.42C131.48,84.52,128.73,83,128.73,79.3ZM139.63,78V77h-1.56c-2.4,0-3.46.46-3.46,1.89,0,1,.67,1.63,2.06,1.63C138.37,80.5,139.63,79.54,139.63,78Z" fill="#14aa40"/><path d="M148.44,59.09h5.95V73.62l4.69-6.89h6.19l-5.69,7.82,6.15,9.57h-6.65l-4.69-7.61v7.61h-5.95Z" fill="#14aa40"/><path d="M165.3,75.65v-.27c0-5.59,4.16-9.11,9.41-9.11,4.75,0,8.84,2.73,8.84,9v1.56H171.32c.17,2.29,1.5,3.62,3.62,3.62,2,0,2.8-.89,3-2.06h5.58c-.53,3.93-3.55,6.15-8.81,6.15C169.29,84.52,165.3,81.33,165.3,75.65Zm12.47-2.2c-.1-2.09-1.13-3.26-3.06-3.26s-3,1.17-3.32,3.26Z" fill="#14aa40"/><path d="M190.74,75.65v-.27c0-5.59,4.15-9.11,9.54-9.11s9.47,3.42,9.47,8.94v.27c0,5.65-4.15,9-9.5,9S190.74,81.26,190.74,75.65Zm13-.1v-.27c0-2.93-1.16-4.56-3.42-4.56s-3.46,1.57-3.46,4.49v.27c0,3,1.16,4.62,3.46,4.62S203.7,78.44,203.7,75.55Z" fill="#14aa40"/><path d="M211.85,66.73h6v2.8a6.14,6.14,0,0,1,5.72-3.26c3.36,0,5.69,2.09,5.69,6.55v11.3h-6V74c0-2-.76-2.93-2.49-2.93s-3,1.06-3,3.29v9.74h-6Z" fill="#14aa40"/><path d="M237.15,79.3c0-4.09,3.46-5.68,9.25-5.68h1.66v-.4c0-1.66-.4-2.76-2.3-2.76a2.14,2.14,0,0,0-2.36,2.06h-5.58c.26-4.19,3.56-6.25,8.31-6.25s7.85,2,7.85,6.58V84.12h-5.79v-2c-.83,1.26-2.36,2.42-5.15,2.42C239.91,84.52,237.15,83,237.15,79.3ZM248.06,78V77H246.5c-2.4,0-3.46.46-3.46,1.89,0,1,.66,1.63,2.06,1.63C246.79,80.5,248.06,79.54,248.06,78Z" fill="#14aa40"/><path d="M20.3,102h6.22L29,112.39,32,102h4.79l2.59,10.41L42.18,102h5.65l-5.52,17.39H36.62L34,109.67l-2.69,9.7H25.55Z" fill="#14aa40"/><path d="M49.36,94.34h6v10.44A6.14,6.14,0,0,1,61,101.52c3.36,0,5.69,2.09,5.69,6.55v11.3h-6v-10.1c0-2-.76-2.93-2.49-2.93s-3,1.06-3,3.29v9.74h-6Z" fill="#14aa40"/><path d="M68.68,110.9v-.27c0-5.59,4.15-9.11,9.54-9.11s9.48,3.42,9.48,8.94v.27c0,5.65-4.16,9-9.51,9S68.68,116.51,68.68,110.9Zm13-.1v-.27c0-2.93-1.16-4.56-3.42-4.56s-3.46,1.57-3.46,4.49v.27c0,3,1.17,4.62,3.46,4.62S81.64,113.69,81.64,110.8Z" fill="#14aa40"/><path d="M90,94.34h5.92v25H90Z" fill="#14aa40"/><path d="M98.14,110.9v-.27c0-5.59,4.15-9.11,9.41-9.11,4.75,0,8.84,2.73,8.84,9v1.56H104.15c.17,2.29,1.5,3.62,3.63,3.62,2,0,2.79-.89,3-2.06h5.59c-.53,3.93-3.56,6.15-8.81,6.15C102.13,119.77,98.14,116.58,98.14,110.9Zm12.46-2.2c-.1-2.09-1.13-3.26-3-3.26s-3,1.17-3.33,3.26Z" fill="#14aa40"/><path d="M124.5,102h5.95v2.8a6.14,6.14,0,0,1,5.72-3.26c3.36,0,5.69,2.09,5.69,6.55v11.3h-6v-10.1c0-2-.77-2.93-2.5-2.93s-3,1.06-3,3.29v9.74H124.5Z" fill="#14aa40"/><path d="M143.82,110.9v-.27c0-5.59,4.16-9.11,9.41-9.11,4.75,0,8.84,2.73,8.84,9v1.56H149.84c.16,2.29,1.49,3.62,3.62,3.62,2,0,2.8-.89,3-2.06h5.58c-.53,3.93-3.55,6.15-8.81,6.15C147.81,119.77,143.82,116.58,143.82,110.9Zm12.47-2.2c-.1-2.09-1.13-3.26-3.06-3.26s-3,1.17-3.32,3.26Z" fill="#14aa40"/><path d="M162.17,102h6.22l2.53,10.41L173.84,102h4.79l2.59,10.41L184.05,102h5.65l-5.52,17.39H178.5l-2.59-9.7-2.7,9.7h-5.78Z" fill="#14aa40"/><path d="M197.45,94.34h5.92v25h-5.92Z" fill="#14aa40"/><path d="M205.63,110.9v-.27c0-5.59,4.16-9.11,9.54-9.11s9.48,3.42,9.48,8.94v.27c0,5.65-4.16,9-9.51,9S205.63,116.51,205.63,110.9Zm13-.1v-.27c0-2.93-1.17-4.56-3.43-4.56s-3.46,1.57-3.46,4.49v.27c0,3,1.17,4.62,3.46,4.62S218.6,113.69,218.6,110.8Z" fill="#14aa40"/><path d="M225.81,110.9v-.27c0-5.59,4.16-9.11,9.55-9.11s9.47,3.42,9.47,8.94v.27c0,5.65-4.16,9-9.51,9S225.81,116.51,225.81,110.9Zm13-.1v-.27c0-2.93-1.16-4.56-3.42-4.56s-3.46,1.57-3.46,4.49v.27c0,3,1.16,4.62,3.46,4.62S238.78,113.69,238.78,110.8Z" fill="#14aa40"/><path d="M246.93,94.34h5.95v14.53l4.69-6.89h6.18l-5.68,7.82,6.15,9.57h-6.65l-4.69-7.61v7.61h-5.95Z" fill="#14aa40"/><path d="M265.38,116.38a3.32,3.32,0,0,1,3.39-3.36,3.36,3.36,0,1,1,0,6.72A3.32,3.32,0,0,1,265.38,116.38Z" fill="#14aa40"/></g></g></g></g></svg>