<svg xmlns="http://www.w3.org/2000/svg" viewBox="0 0 300 600"><title>H4</title><g id="Layer_2" data-name="Layer 2"><g id="Artboard_3" data-name="Artboard 3" style="isolation:isolate"><g id="headline"><g id="Extra_income._Flexible_hours._Take_our_virtual_tax_course." data-name="Extra income. Flexible hours. Take our virtual tax course."><path d="M21.66,42.75H33.55v3.8h-7v3h5.56V53H26.57v3.13h7.36V60H21.66Z" fill="#14aa40"/><path d="M38.86,53.55l-3.92-6.18h5l2,3.32,1.9-3.32h4.42l-4,5.84L48.56,60h-5L41.36,56.2,39.08,60h-4.4Z" fill="#14aa40"/><path d="M50.17,55.91V50.3H48.65V47.37h1.52V44.74h4.31v2.63H57V50.3H54.48v5.2c0,.92.45,1.32,1.27,1.32A3.41,3.41,0,0,0,57,56.61v3.27a9.19,9.19,0,0,1-2.38.36C51.76,60.24,50.17,58.87,50.17,55.91Z" fill="#14aa40"/><path d="M58.59,47.37H62.9v2.5A3.94,3.94,0,0,1,67,47.2v4C64.34,51.15,62.9,52,62.9,54v6H58.59Z" fill="#14aa40"/><path d="M67.51,56.46c0-3,2.51-4.11,6.69-4.11h1.21v-.29c0-1.2-.29-2-1.66-2A1.54,1.54,0,0,0,72,51.55H68c.19-3,2.57-4.52,6-4.52s5.68,1.42,5.68,4.76V60H75.5V58.48a4.11,4.11,0,0,1-3.73,1.76C69.51,60.24,67.51,59.13,67.51,56.46Zm7.9-.91v-.77H74.28c-1.74,0-2.51.34-2.51,1.37,0,.72.49,1.18,1.5,1.18A1.9,1.9,0,0,0,75.41,55.55Z" fill="#14aa40"/><path d="M86.06,44a2.38,2.38,0,1,1,2.36,2.21A2.22,2.22,0,0,1,86.06,44Zm.22,3.42h4.31V60H86.28Z" fill="#14aa40"/><path d="M92.9,47.37h4.3v2A4.46,4.46,0,0,1,101.34,47c2.43,0,4.12,1.52,4.12,4.74V60h-4.31V52.64c0-1.42-.55-2.12-1.81-2.12s-2.14.77-2.14,2.38V60H92.9Z" fill="#14aa40"/><path d="M106.87,53.82v-.2c0-4.18,3-6.59,6.72-6.59,3.08,0,5.92,1.35,6.16,5.17h-4a1.85,1.85,0,0,0-2-1.82c-1.51,0-2.4,1.08-2.4,3.2v.19c0,2.19.84,3.32,2.48,3.32A2.1,2.1,0,0,0,116,55h3.87c-.12,3.17-2.26,5.24-6.33,5.24C109.74,60.24,106.87,58.05,106.87,53.82Z" fill="#14aa40"/><path d="M120.54,53.82v-.2c0-4,3-6.59,6.9-6.59s6.86,2.48,6.86,6.47v.2c0,4.09-3,6.54-6.88,6.54S120.54,57.88,120.54,53.82Zm9.38-.08v-.19c0-2.12-.84-3.3-2.48-3.3s-2.5,1.14-2.5,3.25v.2c0,2.16.84,3.34,2.5,3.34S129.92,55.84,129.92,53.74Z" fill="#14aa40"/><path d="M135.81,47.37h4.31v1.92A4.42,4.42,0,0,1,144.07,47a3.42,3.42,0,0,1,3.41,2.09A5,5,0,0,1,151.65,47c2.38,0,4.11,1.54,4.11,4.69V60h-4.3V52.44c0-1.27-.63-1.9-1.62-1.9a1.87,1.87,0,0,0-1.92,2.12V60h-4.26V52.44c0-1.27-.63-1.9-1.61-1.9a1.87,1.87,0,0,0-1.93,2.12V60h-4.31Z" fill="#14aa40"/><path d="M157.18,53.82v-.2c0-4,3-6.59,6.81-6.59,3.44,0,6.4,2,6.4,6.5v1.13h-8.86a2.52,2.52,0,0,0,2.63,2.62c1.42,0,2-.65,2.19-1.49h4c-.39,2.84-2.58,4.45-6.38,4.45S157.18,57.93,157.18,53.82Zm9-1.59c-.07-1.52-.82-2.36-2.21-2.36a2.4,2.4,0,0,0-2.41,2.36Z" fill="#14aa40"/><path d="M171.59,57.79A2.39,2.39,0,0,1,174,55.36a2.43,2.43,0,1,1,0,4.86A2.4,2.4,0,0,1,171.59,57.79Z" fill="#14aa40"/><path d="M183.35,42.75H195v3.82h-6.67v3.66h5.32v3.63h-5.32V60h-5Z" fill="#14aa40"/><path d="M196.66,41.83h4.28V60h-4.28Z" fill="#14aa40"/><path d="M202.58,53.82v-.2c0-4,3-6.59,6.81-6.59,3.44,0,6.4,2,6.4,6.5v1.13h-8.86a2.52,2.52,0,0,0,2.63,2.62c1.42,0,2-.65,2.19-1.49h4c-.39,2.84-2.58,4.45-6.38,4.45S202.58,57.93,202.58,53.82Zm9-1.59c-.07-1.52-.82-2.36-2.21-2.36A2.4,2.4,0,0,0,207,52.23Z" fill="#14aa40"/><path d="M219.78,53.55l-3.92-6.18h4.95l1.95,3.32,1.9-3.32h4.43l-4,5.84L229.48,60h-5l-2.24-3.75L220,60h-4.41Z" fill="#14aa40"/><path d="M230.58,44a2.38,2.38,0,1,1,2.36,2.21A2.22,2.22,0,0,1,230.58,44Zm.22,3.42h4.3V60h-4.3Z" fill="#14aa40"/><path d="M241.72,58v2h-4.31V41.83h4.31v7.41A4.44,4.44,0,0,1,245.64,47c2.94,0,5.32,2.21,5.32,6.52v.19c0,4.34-2.38,6.5-5.34,6.5A4.07,4.07,0,0,1,241.72,58Zm4.86-4.26v-.19c0-2.21-1-3.27-2.48-3.27s-2.5,1.13-2.5,3.25v.19c0,2.14.94,3.22,2.5,3.22S246.58,55.81,246.58,53.74Z" fill="#14aa40"/><path d="M252.64,41.83h4.28V60h-4.28Z" fill="#14aa40"/><path d="M258.56,53.82v-.2c0-4,3-6.59,6.81-6.59,3.44,0,6.4,2,6.4,6.5v1.13h-8.86a2.52,2.52,0,0,0,2.63,2.62c1.42,0,2-.65,2.19-1.49h4c-.39,2.84-2.58,4.45-6.38,4.45S258.56,57.93,258.56,53.82Zm9-1.59c-.07-1.52-.82-2.36-2.21-2.36A2.4,2.4,0,0,0,263,52.23Z" fill="#14aa40"/><path d="M21.28,70h4.3v7.56a4.46,4.46,0,0,1,4.14-2.36c2.43,0,4.12,1.52,4.12,4.74v8.18H29.53V80.82c0-1.42-.55-2.12-1.81-2.12s-2.14.77-2.14,2.38v7h-4.3Z" fill="#14aa40"/><path d="M35.25,82v-.2c0-4,3-6.59,6.91-6.59S49,77.69,49,81.68v.2c0,4.09-3,6.54-6.89,6.54S35.25,86.06,35.25,82Zm9.39-.08v-.19c0-2.12-.84-3.3-2.48-3.3s-2.5,1.13-2.5,3.25v.2c0,2.16.84,3.34,2.5,3.34S44.64,84,44.64,81.92Z" fill="#14aa40"/><path d="M50.43,83.75v-8.2h4.31v7.5c0,1.42.55,2.12,1.78,2.12s2.14-.77,2.14-2.38V75.55H63V88.13H58.66V86.18a4.13,4.13,0,0,1-4,2.24C52.24,88.42,50.43,86.93,50.43,83.75Z" fill="#14aa40"/><path d="M65.16,75.55h4.3v2.5a4,4,0,0,1,4.07-2.67v4c-2.62-.08-4.07.74-4.07,2.76v6h-4.3Z" fill="#14aa40"/><path d="M74.3,84.14h4c.14.91.55,1.42,1.78,1.42,1.06,0,1.54-.41,1.54-1s-.6-.89-2.33-1.13c-3.37-.43-4.79-1.42-4.79-4,0-2.79,2.48-4.14,5.39-4.14,3.1,0,5.27,1.06,5.56,4.07h-3.9A1.41,1.41,0,0,0,79.91,78c-.94,0-1.42.41-1.42,1s.57.84,2.11,1c3.49.43,5.18,1.34,5.18,4,0,3-2.22,4.33-5.71,4.33S74.39,86.93,74.3,84.14Z" fill="#14aa40"/><path d="M87,86a2.4,2.4,0,0,1,2.46-2.43,2.43,2.43,0,1,1,0,4.86A2.41,2.41,0,0,1,87,86Z" fill="#14aa40"/><path d="M102.06,74.73H97.61v-3.8h13.86v3.8H107v13.4h-5Z" fill="#14aa40"/><path d="M110.6,84.64c0-3,2.5-4.11,6.69-4.11h1.21v-.29c0-1.2-.29-2-1.67-2a1.54,1.54,0,0,0-1.7,1.49h-4c.2-3,2.58-4.52,6-4.52s5.68,1.42,5.68,4.76v8.16h-4.19V86.66a4.12,4.12,0,0,1-3.73,1.76C112.6,88.42,110.6,87.31,110.6,84.64Zm7.9-.91V83h-1.14c-1.73,0-2.5.33-2.5,1.37,0,.72.48,1.18,1.49,1.18C117.58,85.51,118.5,84.81,118.5,83.73Z" fill="#14aa40"/><path d="M124.87,70h4.31V80.53l3.39-5H137l-4.11,5.65,4.45,6.93h-4.81l-3.39-5.51v5.51h-4.31Z" fill="#14aa40"/><path d="M137.07,82v-.2c0-4,3-6.59,6.81-6.59,3.44,0,6.4,2,6.4,6.5v1.13h-8.86A2.51,2.51,0,0,0,144,85.46c1.42,0,2-.65,2.19-1.49h4.05c-.39,2.84-2.58,4.45-6.38,4.45C140,88.42,137.07,86.11,137.07,82Zm9-1.59c-.07-1.52-.82-2.36-2.21-2.36a2.4,2.4,0,0,0-2.41,2.36Z" fill="#14aa40"/><path d="M155.47,82v-.2c0-4,3-6.59,6.91-6.59s6.85,2.48,6.85,6.47v.2c0,4.09-3,6.54-6.88,6.54S155.47,86.06,155.47,82Zm9.38-.08v-.19c0-2.12-.84-3.3-2.47-3.3s-2.51,1.13-2.51,3.25v.2c0,2.16.85,3.34,2.51,3.34S164.85,84,164.85,81.92Z" fill="#14aa40"/><path d="M170.65,83.75v-8.2H175v7.5c0,1.42.55,2.12,1.78,2.12s2.14-.77,2.14-2.38V75.55h4.31V88.13h-4.31V86.18a4.13,4.13,0,0,1-4,2.24C172.45,88.42,170.65,86.93,170.65,83.75Z" fill="#14aa40"/><path d="M185.37,75.55h4.31v2.5a4,4,0,0,1,4.07-2.67v4c-2.63-.08-4.07.74-4.07,2.76v6h-4.31Z" fill="#14aa40"/><path d="M198.6,75.55h4.6l2.62,8.11,2.58-8.11h4.11l-4.59,12.58h-4.7Z" fill="#14aa40"/><path d="M213.5,72.13a2.24,2.24,0,0,1,2.35-2.24,2.23,2.23,0,1,1,0,4.45A2.23,2.23,0,0,1,213.5,72.13Zm.21,3.42H218V88.13h-4.31Z" fill="#14aa40"/><path d="M220.33,75.55h4.3v2.5a4,4,0,0,1,4.07-2.67v4c-2.62-.08-4.07.74-4.07,2.76v6h-4.3Z" fill="#14aa40"/><path d="M231,84.09V78.48h-1.51V75.55H231V72.92h4.31v2.63h2.48v2.93h-2.48v5.2A1.15,1.15,0,0,0,236.62,85a3.32,3.32,0,0,0,1.22-.21v3.27a9.19,9.19,0,0,1-2.38.36C232.62,88.42,231,87.05,231,84.09Z" fill="#14aa40"/><path d="M239.36,83.75v-8.2h4.3v7.5c0,1.42.56,2.12,1.78,2.12s2.15-.77,2.15-2.38V75.55h4.3V88.13h-4.3V86.18a4.14,4.14,0,0,1-4,2.24C241.16,88.42,239.36,86.93,239.36,83.75Z" fill="#14aa40"/><path d="M253.36,84.64c0-3,2.5-4.11,6.69-4.11h1.2v-.29c0-1.2-.29-2-1.66-2a1.55,1.55,0,0,0-1.71,1.49h-4c.19-3,2.57-4.52,6-4.52s5.67,1.42,5.67,4.76v8.16h-4.18V86.66a4.12,4.12,0,0,1-3.73,1.76C255.36,88.42,253.36,87.31,253.36,84.64Zm7.89-.91V83h-1.13c-1.73,0-2.5.33-2.5,1.37,0,.72.48,1.18,1.49,1.18A1.9,1.9,0,0,0,261.25,83.73Z" fill="#14aa40"/><path d="M267.74,70H272V88.13h-4.29Z" fill="#14aa40"/><path d="M21.85,112.27v-5.61H20.34v-2.93h1.51V101.1h4.31v2.63h2.48v2.93H26.16v5.2a1.15,1.15,0,0,0,1.28,1.32,3.32,3.32,0,0,0,1.22-.21v3.27a9.19,9.19,0,0,1-2.38.36C23.44,116.6,21.85,115.23,21.85,112.27Z" fill="#14aa40"/><path d="M29.6,112.82c0-3,2.5-4.11,6.69-4.11h1.2v-.29c0-1.21-.29-2-1.66-2a1.55,1.55,0,0,0-1.71,1.49h-4c.19-3,2.57-4.52,6-4.52s5.67,1.42,5.67,4.76v8.16H37.59v-1.47a4.12,4.12,0,0,1-3.73,1.76C31.6,116.6,29.6,115.49,29.6,112.82Zm7.89-.91v-.77H36.36c-1.73,0-2.5.33-2.5,1.37,0,.72.48,1.18,1.49,1.18A1.9,1.9,0,0,0,37.49,111.91Z" fill="#14aa40"/><path d="M47,109.91l-3.92-6.18h5l2,3.32,1.9-3.32h4.42l-4,5.84,4.36,6.74h-5l-2.24-3.75-2.28,3.75H42.85Z" fill="#14aa40"/><path d="M61.64,110.17V110c0-4.19,3-6.59,6.72-6.59,3.08,0,5.92,1.35,6.16,5.17h-4a1.86,1.86,0,0,0-2-1.83c-1.51,0-2.4,1.09-2.4,3.2v.2c0,2.19.84,3.32,2.48,3.32a2.1,2.1,0,0,0,2.19-2.1h3.87c-.12,3.18-2.26,5.25-6.33,5.25C64.51,116.6,61.64,114.41,61.64,110.17Z" fill="#14aa40"/><path d="M75.31,110.17V110c0-4,3-6.59,6.9-6.59s6.86,2.48,6.86,6.47v.19c0,4.1-3,6.55-6.88,6.55S75.31,114.24,75.31,110.17Zm9.38-.07v-.19c0-2.12-.84-3.3-2.48-3.3s-2.5,1.13-2.5,3.25v.19c0,2.17.84,3.35,2.5,3.35S84.69,112.2,84.69,110.1Z" fill="#14aa40"/><path d="M90.49,111.93v-8.2H94.8v7.5c0,1.42.55,2.12,1.78,2.12s2.14-.77,2.14-2.38v-7.24H103v12.58H98.72v-2a4.14,4.14,0,0,1-4,2.24C92.29,116.6,90.49,115.11,90.49,111.93Z" fill="#14aa40"/><path d="M105.21,103.73h4.31v2.5a4,4,0,0,1,4.07-2.67v4c-2.63-.08-4.07.74-4.07,2.76v6h-4.31Z" fill="#14aa40"/><path d="M114.35,112.32h4c.15.91.56,1.42,1.78,1.42,1.06,0,1.55-.41,1.55-1s-.61-.89-2.34-1.13c-3.37-.43-4.79-1.42-4.79-4,0-2.79,2.48-4.14,5.39-4.14,3.11,0,5.27,1.06,5.56,4.07h-3.9A1.4,1.4,0,0,0,120,106.2c-.94,0-1.42.41-1.42,1s.58.84,2.12,1c3.49.43,5.17,1.34,5.17,4,0,3-2.21,4.33-5.7,4.33S114.45,115.11,114.35,112.32Z" fill="#14aa40"/><path d="M126.62,110.17V110c0-4,3-6.59,6.81-6.59,3.44,0,6.4,2,6.4,6.5V111H131a2.51,2.51,0,0,0,2.62,2.62c1.42,0,2-.65,2.19-1.49h4c-.38,2.84-2.57,4.45-6.37,4.45C129.51,116.6,126.62,114.29,126.62,110.17Zm9-1.58c-.08-1.52-.82-2.36-2.22-2.36a2.38,2.38,0,0,0-2.4,2.36Z" fill="#14aa40"/><path d="M141,114.15a2.41,2.41,0,0,1,2.46-2.44,2.44,2.44,0,1,1,0,4.87A2.41,2.41,0,0,1,141,114.15Z" fill="#14aa40"/></g></g><g id="rect"><rect width="300" height="600" fill="none"/></g></g></g></svg>