<svg xmlns="http://www.w3.org/2000/svg" viewBox="0 0 119.66 31.78"><title>cta_txt</title><g id="Layer_2" data-name="Layer 2"><g id="Artboard_1" data-name="Artboard 1" style="isolation:isolate"><g id="CTA"><g id="Rectangle_1" data-name="Rectangle 1"><rect width="119.66" height="31.78" fill="none"/></g><g id="Learn_more" data-name="Learn more"><path d="M19.45,10.82h2.49v9h4.47V21.8h-7Z" transform="translate(0 0)" fill="#262626"/><path d="M27,17.89v-.13a4,4,0,0,1,4.13-4.18A3.71,3.71,0,0,1,35,17.67v.62H29.24a1.92,1.92,0,0,0,2,2.1c1,0,1.53-.45,1.67-1.12H35C34.76,21,33.37,22,31.18,22A3.9,3.9,0,0,1,27,17.89Zm5.89-1c-.08-1.22-.7-1.8-1.76-1.8a1.85,1.85,0,0,0-1.84,1.8Z" transform="translate(0 0)" fill="#262626"/><path d="M35.81,19.58C35.81,17.7,37.54,17,40,17h.91v-.32c0-1-.29-1.47-1.31-1.47a1.2,1.2,0,0,0-1.36,1.13H36.12c.14-1.9,1.65-2.75,3.61-2.75s3.37.8,3.37,3V21.8H40.93v-1A2.74,2.74,0,0,1,38.5,22C37,22,35.81,21.27,35.81,19.58ZM40.9,19v-.67H40c-1.29,0-2,.27-2,1.13,0,.59.35,1,1.16,1C40.15,20.42,40.9,19.88,40.9,19Z" transform="translate(0 0)" fill="#262626"/><path d="M44.77,13.77H47V15.3a2.66,2.66,0,0,1,2.6-1.66v2.08c-1.65,0-2.6.52-2.6,2.06v4H44.77Z" transform="translate(0 0)" fill="#262626"/><path d="M50.83,13.77h2.22V15a2.78,2.78,0,0,1,2.62-1.46c1.58,0,2.7,1,2.7,3.11V21.8H56.14V17c0-1.09-.43-1.61-1.41-1.61a1.59,1.59,0,0,0-1.68,1.76V21.8H50.83Z" transform="translate(0 0)" fill="#262626"/><path d="M63.22,13.77h2.23V15a2.73,2.73,0,0,1,2.46-1.42A2.21,2.21,0,0,1,70.15,15a3.2,3.2,0,0,1,2.71-1.4c1.49,0,2.64.94,2.64,3.08V21.8H73.29V16.9c0-1-.46-1.49-1.26-1.49a1.49,1.49,0,0,0-1.55,1.65V21.8H68.26V16.9c0-1-.47-1.49-1.26-1.49a1.49,1.49,0,0,0-1.55,1.65V21.8H63.22Z" transform="translate(0 0)" fill="#262626"/><path d="M76.68,17.87v-.12a4.24,4.24,0,0,1,8.47-.05v.12a4.24,4.24,0,0,1-8.47.05Zm6.21,0v-.11c0-1.53-.72-2.46-2-2.46s-2,.89-2,2.43v.12c0,1.54.7,2.46,2,2.46S82.89,19.36,82.89,17.84Z" transform="translate(0 0)" fill="#262626"/><path d="M86.41,13.77h2.22V15.3a2.67,2.67,0,0,1,2.6-1.66v2.08c-1.64,0-2.6.52-2.6,2.06v4H86.41Z" transform="translate(0 0)" fill="#262626"/><path d="M91.83,17.89v-.13A4,4,0,0,1,96,13.58a3.71,3.71,0,0,1,3.92,4.09v.62H94.09a1.92,1.92,0,0,0,2,2.1c1,0,1.53-.45,1.67-1.12h2.11C99.61,21,98.22,22,96,22A3.9,3.9,0,0,1,91.83,17.89Zm5.89-1c-.08-1.22-.7-1.8-1.76-1.8a1.84,1.84,0,0,0-1.84,1.8Z" transform="translate(0 0)" fill="#262626"/></g></g></g></g></svg>