<svg xmlns="http://www.w3.org/2000/svg" viewBox="0 0 728 90"><title>txt</title><g id="Layer_2" data-name="Layer 2"><g id="Artboard_1" data-name="Artboard 1" style="isolation:isolate"><g id="headline"><g id="Your_future_could_take_on_a_whole_new_look." data-name="Your future could take on a whole new look."><path d="M137.11,29.19l-6.87-12.07h6.57l3.57,7.11L144,17.12h5.78l-6.55,12.07v9h-6.07Z" fill="#14aa40"/><path d="M147.52,30.69v-.23c0-5,3.69-8.09,8.47-8.09s8.4,3,8.4,7.94v.23c0,5-3.68,8-8.43,8S147.52,35.68,147.52,30.69ZM159,30.6v-.23c0-2.6-1-4-3-4s-3.07,1.38-3.07,4v.23c0,2.66,1,4.1,3.07,4.1S159,33.17,159,30.6Z" fill="#14aa40"/><path d="M166.14,32.85V22.79h5.28V32c0,1.74.68,2.6,2.18,2.6s2.62-1,2.62-2.92V22.79h5.28V38.21h-5.28V35.82a5.05,5.05,0,0,1-4.89,2.75C168.35,38.57,166.14,36.74,166.14,32.85Z" fill="#14aa40"/><path d="M184.19,22.79h5.28v3.06a4.86,4.86,0,0,1,5-3.27v4.93c-3.21-.09-5,.91-5,3.39v7.31h-5.28Z" fill="#14aa40"/><path d="M202.54,26.39h-1.95v-3.6h1.95V21.43c0-3.83,2.39-5.66,6.05-5.66a9.64,9.64,0,0,1,2.41.32V20a4.72,4.72,0,0,0-1.44-.21,1.55,1.55,0,0,0-1.77,1.68v1.36h3.13v3.6h-3.13V38.21h-5.25Z" fill="#14aa40"/><path d="M212.57,32.85V22.79h5.28V32c0,1.74.68,2.6,2.18,2.6s2.63-1,2.63-2.92V22.79h5.28V38.21h-5.28V35.82a5.07,5.07,0,0,1-4.9,2.75C214.78,38.57,212.57,36.74,212.57,32.85Z" fill="#14aa40"/><path d="M231.33,33.26V26.39h-1.86v-3.6h1.86V19.57h5.28v3.22h3v3.6h-3v6.37c0,1.12.56,1.62,1.56,1.62a4,4,0,0,0,1.51-.27v4a10.91,10.91,0,0,1-2.92.45C233.28,38.57,231.33,36.89,231.33,33.26Z" fill="#14aa40"/><path d="M241.54,32.85V22.79h5.28V32c0,1.74.67,2.6,2.18,2.6s2.62-1,2.62-2.92V22.79h5.28V38.21h-5.28V35.82a5.05,5.05,0,0,1-4.89,2.75C243.75,38.57,241.54,36.74,241.54,32.85Z" fill="#14aa40"/><path d="M259.59,22.79h5.28v3.06a4.86,4.86,0,0,1,5-3.27v4.93c-3.21-.09-5,.91-5,3.39v7.31h-5.28Z" fill="#14aa40"/><path d="M270.8,30.69v-.23c0-5,3.69-8.09,8.35-8.09,4.22,0,7.84,2.42,7.84,8v1.38H276.14c.15,2,1.33,3.22,3.21,3.22s2.48-.8,2.69-1.83H287c-.47,3.48-3.15,5.46-7.81,5.46C274.34,38.57,270.8,35.74,270.8,30.69Zm11.06-1.94c-.09-1.86-1-2.9-2.71-2.9s-2.69,1-2.95,2.9Z" fill="#14aa40"/><path d="M293.37,30.69v-.23c0-5.14,3.68-8.09,8.23-8.09,3.77,0,7.25,1.66,7.55,6.35h-5a2.28,2.28,0,0,0-2.48-2.25c-1.85,0-2.95,1.33-2.95,3.93v.23c0,2.69,1,4.07,3,4.07a2.57,2.57,0,0,0,2.69-2.56h4.75c-.15,3.89-2.78,6.43-7.76,6.43C296.88,38.57,293.37,35.88,293.37,30.69Z" fill="#14aa40"/><path d="M310.12,30.69v-.23c0-5,3.69-8.09,8.47-8.09s8.4,3,8.4,7.94v.23c0,5-3.68,8-8.43,8S310.12,35.68,310.12,30.69Zm11.51-.09v-.23c0-2.6-1-4-3-4s-3.07,1.38-3.07,4v.23c0,2.66,1,4.1,3.07,4.1S321.63,33.17,321.63,30.6Z" fill="#14aa40"/><path d="M328.74,32.85V22.79H334V32c0,1.74.68,2.6,2.18,2.6s2.62-1,2.62-2.92V22.79h5.28V38.21h-5.28V35.82a5.05,5.05,0,0,1-4.89,2.75C331,38.57,328.74,36.74,328.74,32.85Z" fill="#14aa40"/><path d="M346.94,16h5.25V38.21h-5.25Z" fill="#14aa40"/><path d="M354.25,30.66v-.23c0-5.25,2.89-8.06,6.55-8.06a5,5,0,0,1,4.75,2.6V16h5.28V38.21h-5.28v-2.5a5.21,5.21,0,0,1-4.81,2.86C357.17,38.57,354.25,36,354.25,30.66Zm11.45-.09v-.23c0-2.6-1.09-4-3-4s-3,1.32-3,4v.23c0,2.6,1.15,3.93,3,3.93S365.7,33.2,365.7,30.57Z" fill="#14aa40"/><path d="M379.59,33.26V26.39h-1.85v-3.6h1.85V19.57h5.28v3.22h3v3.6h-3v6.37a1.41,1.41,0,0,0,1.57,1.62,3.93,3.93,0,0,0,1.5-.27v4a10.91,10.91,0,0,1-2.92.45C381.54,38.57,379.59,36.89,379.59,33.26Z" fill="#14aa40"/><path d="M389.09,33.94c0-3.63,3.07-5,8.2-5h1.48v-.35c0-1.48-.36-2.45-2-2.45a1.9,1.9,0,0,0-2.09,1.83h-5c.24-3.72,3.16-5.55,7.38-5.55s7,1.74,7,5.84v10h-5.13v-1.8a5.07,5.07,0,0,1-4.58,2.16C391.54,38.57,389.09,37.21,389.09,33.94Zm9.68-1.12v-.95h-1.39c-2.12,0-3.07.41-3.07,1.68,0,.89.59,1.45,1.83,1.45C397.65,35,398.77,34.14,398.77,32.82Z" fill="#14aa40"/><path d="M406.59,16h5.28V28.89l4.16-6.1h5.48l-5,6.93,5.45,8.49H416l-4.16-6.75v6.75h-5.28Z" fill="#14aa40"/><path d="M421.54,30.69v-.23c0-5,3.69-8.09,8.35-8.09,4.22,0,7.85,2.42,7.85,8v1.38H426.88c.15,2,1.33,3.22,3.22,3.22,1.74,0,2.47-.8,2.68-1.83h5c-.48,3.48-3.16,5.46-7.82,5.46C425.08,38.57,421.54,35.74,421.54,30.69Zm11.06-1.94c-.09-1.86-1-2.9-2.71-2.9s-2.68,1-2.95,2.9Z" fill="#14aa40"/><path d="M130.74,62.19V62c0-5,3.68-8.09,8.46-8.09s8.41,3,8.41,7.94V62c0,5-3.69,8-8.44,8S130.74,67.18,130.74,62.19Zm11.5-.09v-.23c0-2.6-1-4-3-4s-3.07,1.38-3.07,4V62c0,2.66,1,4.1,3.07,4.1S142.24,64.67,142.24,62.1Z" fill="#14aa40"/><path d="M149.47,54.29h5.28v2.47a5.46,5.46,0,0,1,5.07-2.89c3,0,5.05,1.86,5.05,5.81v10h-5.28v-9c0-1.74-.68-2.6-2.22-2.6s-2.62.94-2.62,2.92v8.64h-5.28Z" fill="#14aa40"/><path d="M171.92,65.44c0-3.63,3.07-5,8.2-5h1.47V60c0-1.48-.35-2.45-2-2.45a1.9,1.9,0,0,0-2.1,1.83h-5c.23-3.72,3.15-5.55,7.37-5.55s7,1.74,7,5.84v10h-5.13v-1.8a5.07,5.07,0,0,1-4.57,2.16C174.37,70.07,171.92,68.71,171.92,65.44Zm9.67-1.12v-.95h-1.38c-2.13,0-3.07.41-3.07,1.68,0,.89.59,1.45,1.83,1.45C180.47,66.5,181.59,65.64,181.59,64.32Z" fill="#14aa40"/><path d="M193.48,54.29H199l2.24,9.23,2.59-9.23h4.25l2.3,9.23,2.51-9.23h5L213,69.71h-5l-2.3-8.61-2.39,8.61h-5.13Z" fill="#14aa40"/><path d="M219.27,47.5h5.27v9.26a5.46,5.46,0,0,1,5.08-2.89c3,0,5,1.86,5,5.81v10h-5.28v-9c0-1.74-.68-2.6-2.21-2.6s-2.63.94-2.63,2.92v8.64h-5.27Z" fill="#14aa40"/><path d="M236.4,62.19V62c0-5,3.69-8.09,8.47-8.09s8.41,3,8.41,7.94V62c0,5-3.69,8-8.44,8S236.4,67.18,236.4,62.19Zm11.51-.09v-.23c0-2.6-1-4-3-4s-3.07,1.38-3.07,4V62c0,2.66,1,4.1,3.07,4.1S247.91,64.67,247.91,62.1Z" fill="#14aa40"/><path d="M255.28,47.5h5.25V69.71h-5.25Z" fill="#14aa40"/><path d="M262.54,62.19V62c0-5,3.69-8.09,8.35-8.09,4.22,0,7.84,2.42,7.84,8v1.38H267.88c.15,2,1.33,3.22,3.21,3.22s2.48-.8,2.69-1.83h5c-.47,3.48-3.15,5.46-7.81,5.46C266.08,70.07,262.54,67.24,262.54,62.19Zm11.06-1.94c-.09-1.86-1-2.9-2.71-2.9s-2.69,1-2.95,2.9Z" fill="#14aa40"/><path d="M285.93,54.29h5.28v2.47a5.46,5.46,0,0,1,5.08-2.89c3,0,5,1.86,5,5.81v10h-5.28v-9c0-1.74-.68-2.6-2.21-2.6s-2.63.94-2.63,2.92v8.64h-5.28Z" fill="#14aa40"/><path d="M303.07,62.19V62c0-5,3.69-8.09,8.35-8.09,4.22,0,7.85,2.42,7.85,8v1.38H308.41c.15,2,1.33,3.22,3.22,3.22s2.47-.8,2.68-1.83h5c-.48,3.48-3.16,5.46-7.82,5.46C306.61,70.07,303.07,67.24,303.07,62.19Zm11.06-1.94c-.09-1.86-1-2.9-2.71-2.9s-2.68,1-2.95,2.9Z" fill="#14aa40"/><path d="M319.36,54.29h5.51l2.24,9.23,2.6-9.23H334l2.3,9.23,2.5-9.23h5l-4.9,15.42h-5l-2.3-8.61-2.39,8.61H324Z" fill="#14aa40"/><path d="M350.65,47.5h5.25V69.71h-5.25Z" fill="#14aa40"/><path d="M357.91,62.19V62c0-5,3.69-8.09,8.47-8.09s8.4,3,8.4,7.94V62c0,5-3.68,8-8.43,8S357.91,67.18,357.91,62.19Zm11.5-.09v-.23c0-2.6-1-4-3-4s-3.07,1.38-3.07,4V62c0,2.66,1,4.1,3.07,4.1S369.41,64.67,369.41,62.1Z" fill="#14aa40"/><path d="M375.82,62.19V62c0-5,3.68-8.09,8.46-8.09s8.41,3,8.41,7.94V62c0,5-3.69,8-8.44,8S375.82,67.18,375.82,62.19Zm11.5-.09v-.23c0-2.6-1-4-3-4s-3.07,1.38-3.07,4V62c0,2.66,1,4.1,3.07,4.1S387.32,64.67,387.32,62.1Z" fill="#14aa40"/><path d="M394.55,47.5h5.28V60.39l4.16-6.1h5.48l-5,6.93,5.46,8.49H404L399.83,63v6.75h-5.28Z" fill="#14aa40"/><path d="M410.92,67.06a2.94,2.94,0,0,1,3-3,3,3,0,1,1,0,6A2.94,2.94,0,0,1,410.92,67.06Z" fill="#14aa40"/></g></g><g id="rect"><rect width="728" height="90" fill="none"/></g></g></g></svg>