<svg xmlns="http://www.w3.org/2000/svg" viewBox="0 0 728 90"><title>H3</title><g id="Layer_2" data-name="Layer 2"><g id="Artboard_2" data-name="Artboard 2" style="isolation:isolate"><g id="headline"><g id="Virtual_career_training_for_159._Your_future_could_take_on" data-name="Virtual career training for $159.    Your future could take on"><path d="M130.35,17.12h6.52l4.28,14.81,4.31-14.81h5.66l-6.9,21.09h-6.88Z" fill="#14aa40"/><path d="M152.18,18.6a2.91,2.91,0,1,1,2.89,2.71A2.76,2.76,0,0,1,152.18,18.6Zm.27,4.19h5.28V38.21h-5.28Z" fill="#14aa40"/><path d="M160.56,22.79h5.28v3.06a4.87,4.87,0,0,1,5-3.27v4.93c-3.22-.09-5,.91-5,3.39v7.31h-5.28Z" fill="#14aa40"/><path d="M173.69,33.26V26.39h-1.86v-3.6h1.86V19.57H179v3.22h3v3.6h-3v6.37c0,1.12.56,1.62,1.56,1.62a4,4,0,0,0,1.51-.27v4a11,11,0,0,1-2.92.45C175.64,38.57,173.69,36.89,173.69,33.26Z" fill="#14aa40"/><path d="M183.9,32.85V22.79h5.28V32c0,1.74.67,2.6,2.18,2.6s2.62-1,2.62-2.92V22.79h5.28V38.21H194V35.82a5.05,5.05,0,0,1-4.89,2.75C186.11,38.57,183.9,36.74,183.9,32.85Z" fill="#14aa40"/><path d="M201.06,33.94c0-3.63,3.07-5,8.2-5h1.48v-.35c0-1.48-.35-2.45-2-2.45a1.9,1.9,0,0,0-2.09,1.83h-5c.24-3.72,3.16-5.55,7.38-5.55s7,1.74,7,5.84v10h-5.13v-1.8a5.06,5.06,0,0,1-4.57,2.16C203.51,38.57,201.06,37.21,201.06,33.94Zm9.68-1.12v-.95h-1.39c-2.12,0-3.06.41-3.06,1.68,0,.89.59,1.45,1.82,1.45C209.62,35,210.74,34.14,210.74,32.82Z" fill="#14aa40"/><path d="M218.71,16H224V38.21h-5.25Z" fill="#14aa40"/><path d="M231.33,30.69v-.23c0-5.14,3.69-8.09,8.23-8.09,3.77,0,7.26,1.66,7.55,6.35h-5a2.29,2.29,0,0,0-2.48-2.25c-1.86,0-3,1.33-3,3.93v.23c0,2.69,1,4.07,3,4.07a2.57,2.57,0,0,0,2.68-2.56h4.75c-.15,3.89-2.77,6.43-7.76,6.43C234.84,38.57,231.33,35.88,231.33,30.69Z" fill="#14aa40"/><path d="M248.12,33.94c0-3.63,3.06-5,8.2-5h1.47v-.35c0-1.48-.35-2.45-2-2.45a1.9,1.9,0,0,0-2.1,1.83h-4.95c.23-3.72,3.15-5.55,7.37-5.55s7,1.74,7,5.84v10h-5.13v-1.8a5.06,5.06,0,0,1-4.57,2.16C250.56,38.57,248.12,37.21,248.12,33.94Zm9.67-1.12v-.95H256.4c-2.12,0-3.06.41-3.06,1.68,0,.89.59,1.45,1.83,1.45C256.67,35,257.79,34.14,257.79,32.82Z" fill="#14aa40"/><path d="M265.61,22.79h5.28v3.06a4.85,4.85,0,0,1,5-3.27v4.93c-3.21-.09-5,.91-5,3.39v7.31h-5.28Z" fill="#14aa40"/><path d="M276.82,30.69v-.23c0-5,3.69-8.09,8.35-8.09,4.21,0,7.84,2.42,7.84,8v1.38H282.16c.15,2,1.32,3.22,3.21,3.22s2.48-.8,2.69-1.83H293c-.47,3.48-3.15,5.46-7.81,5.46C280.36,38.57,276.82,35.74,276.82,30.69Zm11.06-1.94c-.09-1.86-1-2.9-2.71-2.9s-2.69,1-2.95,2.9Z" fill="#14aa40"/><path d="M294,30.69v-.23c0-5,3.68-8.09,8.34-8.09,4.22,0,7.85,2.42,7.85,8v1.38H299.36c.14,2,1.32,3.22,3.21,3.22s2.48-.8,2.68-1.83h5c-.47,3.48-3.16,5.46-7.82,5.46C297.56,38.57,294,35.74,294,30.69Zm11.06-1.94c-.09-1.86-1-2.9-2.72-2.9s-2.68,1-2.94,2.9Z" fill="#14aa40"/><path d="M312,22.79h5.28v3.06a4.86,4.86,0,0,1,5-3.27v4.93c-3.22-.09-5,.91-5,3.39v7.31H312Z" fill="#14aa40"/><path d="M330.3,33.26V26.39h-1.86v-3.6h1.86V19.57h5.28v3.22h3v3.6h-3v6.37c0,1.12.56,1.62,1.56,1.62a4,4,0,0,0,1.51-.27v4a10.91,10.91,0,0,1-2.92.45C332.25,38.57,330.3,36.89,330.3,33.26Z" fill="#14aa40"/><path d="M340.63,22.79h5.28v3.06a4.85,4.85,0,0,1,5-3.27v4.93c-3.21-.09-5,.91-5,3.39v7.31h-5.28Z" fill="#14aa40"/><path d="M351.57,33.94c0-3.63,3.07-5,8.2-5h1.48v-.35c0-1.48-.36-2.45-2-2.45a1.89,1.89,0,0,0-2.09,1.83h-5c.24-3.72,3.16-5.55,7.37-5.55s7,1.74,7,5.84v10h-5.14v-1.8a5,5,0,0,1-4.57,2.16C354,38.57,351.57,37.21,351.57,33.94Zm9.68-1.12v-.95h-1.39c-2.12,0-3.07.41-3.07,1.68,0,.89.59,1.45,1.83,1.45C360.12,35,361.25,34.14,361.25,32.82Z" fill="#14aa40"/><path d="M369,18.6a2.75,2.75,0,0,1,2.89-2.74,2.73,2.73,0,1,1,0,5.45A2.73,2.73,0,0,1,369,18.6Zm.26,4.19h5.28V38.21h-5.28Z" fill="#14aa40"/><path d="M377.32,22.79h5.28v2.48a5.45,5.45,0,0,1,5.08-2.9c3,0,5,1.86,5,5.82v10h-5.28v-9c0-1.74-.68-2.6-2.21-2.6s-2.63,1-2.63,2.92v8.64h-5.28Z" fill="#14aa40"/><path d="M395.17,18.6a2.91,2.91,0,1,1,2.89,2.71A2.76,2.76,0,0,1,395.17,18.6Zm.27,4.19h5.28V38.21h-5.28Z" fill="#14aa40"/><path d="M403.55,22.79h5.28v2.48a5.42,5.42,0,0,1,5.07-2.9c3,0,5.05,1.86,5.05,5.82v10h-5.28v-9c0-1.74-.68-2.6-2.22-2.6s-2.62,1-2.62,2.92v8.64h-5.28Z" fill="#14aa40"/><path d="M420.66,38.21h5.25c.24,1.12.91,2,2.83,2A2.92,2.92,0,0,0,432,37V34.61a5.39,5.39,0,0,1-4.77,2.84c-3.6,0-6.55-2.66-6.55-7.41v-.23c0-4.54,2.92-7.44,6.55-7.44A5,5,0,0,1,432,25V22.79h5.28V36.92c0,4.6-3,7-8.55,7C423.49,43.94,421.07,41.72,420.66,38.21Zm11.5-8.2v-.2c0-2.13-1.09-3.48-3-3.48s-3,1.38-3,3.51v.23c0,2.13,1.12,3.48,3,3.48S432.16,32.2,432.16,30Z" fill="#14aa40"/><path d="M132.36,57.89h-2v-3.6h2V52.93c0-3.83,2.39-5.66,6-5.66a9.2,9.2,0,0,1,2.41.32v3.87a4.72,4.72,0,0,0-1.44-.21,1.55,1.55,0,0,0-1.77,1.68v1.36h3.13v3.6h-3.13V69.71h-5.25Z" fill="#14aa40"/><path d="M141.15,62.19V62c0-5,3.69-8.09,8.47-8.09s8.4,3,8.4,7.94V62c0,5-3.68,8-8.43,8S141.15,67.18,141.15,62.19Zm11.5-.09v-.23c0-2.6-1-4-3-4s-3.07,1.38-3.07,4V62c0,2.66,1,4.1,3.07,4.1S152.65,64.67,152.65,62.1Z" fill="#14aa40"/><path d="M159.88,54.29h5.28v3.06a4.87,4.87,0,0,1,5-3.27V59c-3.22-.09-5,.91-5,3.39v7.31h-5.28Z" fill="#14aa40"/><path d="M181.38,64.14c-3.31-.22-4.92-2-5-4.51h3.54a1.82,1.82,0,0,0,1.51,1.8v-2.8c-3.33-.47-4.74-1.68-4.74-4.34,0-2.32,1.81-4,4.74-4.19V48.4h1.5v1.72c2.77.23,4.41,1.51,4.64,4.13h-3.46a1.51,1.51,0,0,0-1.18-1.43v2.64c2.92.42,4.84,1.41,4.84,4.19,0,2.33-1.52,4.28-4.84,4.49v2.4h-1.5Zm0-8.91V52.78c-.86.15-1.3.61-1.3,1.22S180.35,55,181.38,55.23Zm1.5,3.65v2.55c.84-.18,1.28-.67,1.28-1.36S183.89,59.11,182.88,58.88Z" fill="#14aa40"/><path d="M192.92,54.58l-4,2.48V52l4.83-3.4H199V69.71h-6Z" fill="#14aa40"/><path d="M211.38,65.67H201.12V63.4l8.79-14.78h7.29V61.51h2.71v4.16H217.2v4h-5.82Zm.15-4.16V53.17l-4.72,8.34Z" fill="#14aa40"/><path d="M221.33,63.75h5.54c.21,1.07.86,1.8,2.48,1.8,2.51,0,3.54-1.88,3.63-5.48a5,5,0,0,1-4.78,2.48c-4,0-7.14-2.33-7.14-6.82s3.31-7.43,8.67-7.43c6.29,0,9.24,4.22,9.24,10.32v.71c0,6.84-3.31,10.71-9.32,10.71C224.66,70,221.77,67.8,221.33,63.75Zm11.21-8a2.86,2.86,0,0,0-2.89-3.15,2.82,2.82,0,0,0-2.81,3.09,2.76,2.76,0,0,0,2.81,3A2.8,2.8,0,0,0,232.54,55.7Z" fill="#14aa40"/><path d="M239.44,67.06a2.94,2.94,0,0,1,3-3,3,3,0,1,1,0,6A2.94,2.94,0,0,1,239.44,67.06Z" fill="#14aa40"/></g><g id="rect"><rect width="728" height="90" fill="none"/></g></g></g></g></svg>