<svg xmlns="http://www.w3.org/2000/svg" viewBox="0 0 160 600"><title>H2</title><g id="Layer_2" data-name="Layer 2"><g id="rect"><rect width="160" height="600" fill="none"/></g><g id="Your_future_could_take_on_a_whole_new_look." data-name="Your future could take on  a whole new look."><path d="M25.37,46.51,19.21,35.69h5.9l3.2,6.38,3.2-6.38h5.18L30.82,46.51V54.6H25.37Z" fill="#14aa40"/><path d="M34.71,47.86v-.21c0-4.45,3.3-7.25,7.59-7.25s7.53,2.72,7.53,7.11v.22c0,4.49-3.3,7.19-7.56,7.19S34.71,52.33,34.71,47.86ZM45,47.78v-.21c0-2.33-.92-3.63-2.72-3.63s-2.75,1.25-2.75,3.57v.22c0,2.37.92,3.67,2.75,3.67S45,50.08,45,47.78Z" fill="#14aa40"/><path d="M51.4,49.79v-9h4.73V49c0,1.56.61,2.33,1.95,2.33s2.36-.85,2.36-2.62v-8h4.73V54.6H60.44V52.46a4.54,4.54,0,0,1-4.39,2.46C53.38,54.92,51.4,53.28,51.4,49.79Z" fill="#14aa40"/><path d="M67.58,40.77h4.73v2.75a4.36,4.36,0,0,1,4.47-2.93V45c-2.88-.08-4.47.82-4.47,3V54.6H67.58Z" fill="#14aa40"/><path d="M21.12,70H19.37V66.77h1.75V65.55c0-3.44,2.14-5.08,5.42-5.08a8.3,8.3,0,0,1,2.16.29v3.47A4.14,4.14,0,0,0,27.41,64a1.39,1.39,0,0,0-1.59,1.51v1.22h2.81V70H25.82V80.6h-4.7Z" fill="#14aa40"/><path d="M30.11,75.78v-9h4.73V75c0,1.56.61,2.32,2,2.32s2.35-.84,2.35-2.61v-8h4.73V80.6H39.15V78.45a4.54,4.54,0,0,1-4.39,2.46C32.09,80.91,30.11,79.27,30.11,75.78Z" fill="#14aa40"/><path d="M46.93,76.15V70H45.26V66.77h1.67V63.88h4.73v2.89h2.72V70H51.66V75.7c0,1,.5,1.46,1.4,1.46a3.57,3.57,0,0,0,1.35-.24v3.6a10.39,10.39,0,0,1-2.62.39C48.67,80.91,46.93,79.41,46.93,76.15Z" fill="#14aa40"/><path d="M56.08,75.78v-9h4.73V75c0,1.56.61,2.32,2,2.32s2.35-.84,2.35-2.61v-8h4.73V80.6H65.12V78.45a4.54,4.54,0,0,1-4.39,2.46C58.06,80.91,56.08,79.27,56.08,75.78Z" fill="#14aa40"/><path d="M72.26,66.77H77v2.75a4.36,4.36,0,0,1,4.47-2.94V71c-2.88-.08-4.47.82-4.47,3V80.6H72.26Z" fill="#14aa40"/><path d="M82.31,73.85v-.21c0-4.44,3.3-7.24,7.48-7.24,3.78,0,7,2.16,7,7.14v1.24H87.09A2.77,2.77,0,0,0,90,77.66c1.56,0,2.22-.71,2.4-1.64h4.45c-.43,3.12-2.83,4.89-7,4.89C85.48,80.91,82.31,78.37,82.31,73.85Zm9.91-1.74c-.07-1.67-.89-2.59-2.43-2.59s-2.4.92-2.64,2.59Z" fill="#14aa40"/><path d="M19.66,99.85v-.21c0-4.6,3.31-7.25,7.38-7.25,3.38,0,6.5,1.48,6.77,5.69H29.37a2.05,2.05,0,0,0-2.23-2c-1.66,0-2.64,1.19-2.64,3.51v.21c0,2.41.93,3.65,2.72,3.65a2.3,2.3,0,0,0,2.41-2.3h4.26c-.13,3.49-2.49,5.77-7,5.77C22.81,106.91,19.66,104.5,19.66,99.85Z" fill="#14aa40"/><path d="M34.68,99.85v-.21c0-4.45,3.31-7.25,7.59-7.25s7.54,2.72,7.54,7.11v.22c0,4.49-3.31,7.19-7.56,7.19S34.68,104.32,34.68,99.85ZM45,99.77v-.21c0-2.33-.93-3.63-2.73-3.63s-2.75,1.25-2.75,3.57v.22c0,2.38.93,3.67,2.75,3.67S45,102.07,45,99.77Z" fill="#14aa40"/><path d="M51.37,101.78v-9H56.1V101c0,1.56.61,2.33,2,2.33s2.35-.85,2.35-2.62v-8h4.74v13.83H60.41v-2.14A4.54,4.54,0,0,1,56,106.91C53.35,106.91,51.37,105.27,51.37,101.78Z" fill="#14aa40"/><path d="M67.69,86.68h4.7v19.91h-4.7Z" fill="#14aa40"/><path d="M74.24,99.82v-.21c0-4.71,2.59-7.22,5.87-7.22a4.49,4.49,0,0,1,4.26,2.33v-8H89.1v19.91H84.37v-2.25a4.66,4.66,0,0,1-4.31,2.57C76.86,106.91,74.24,104.61,74.24,99.82Zm10.26-.08v-.21c0-2.33-1-3.57-2.72-3.57s-2.72,1.19-2.72,3.6v.21c0,2.33,1,3.52,2.67,3.52S84.5,102.1,84.5,99.74Z" fill="#14aa40"/><path d="M21,128.14V122H19.37v-3.22H21v-2.89h4.73v2.89h2.72V122H25.77v5.71c0,1,.5,1.46,1.4,1.46a3.57,3.57,0,0,0,1.35-.24v3.6a10,10,0,0,1-2.62.39C22.78,132.9,21,131.4,21,128.14Z" fill="#14aa40"/><path d="M29.55,128.75c0-3.25,2.75-4.52,7.35-4.52h1.33v-.32c0-1.32-.32-2.19-1.83-2.19a1.7,1.7,0,0,0-1.88,1.64H30.08c.21-3.33,2.83-5,6.61-5s6.24,1.56,6.24,5.23v9h-4.6V131a4.53,4.53,0,0,1-4.1,1.93C31.75,132.9,29.55,131.69,29.55,128.75Zm8.68-1v-.85H37c-1.9,0-2.75.37-2.75,1.51,0,.79.53,1.29,1.64,1.29C37.22,129.7,38.23,128.94,38.23,127.75Z" fill="#14aa40"/><path d="M45.23,112.67H50v11.56l3.72-5.47h4.92L54.09,125,59,132.59H53.69L50,126.53v6.06H45.23Z" fill="#14aa40"/><path d="M58.64,125.84v-.21c0-4.44,3.31-7.24,7.48-7.24,3.79,0,7,2.16,7,7.14v1.24H63.43a2.76,2.76,0,0,0,2.88,2.88c1.56,0,2.22-.71,2.41-1.64h4.44c-.42,3.12-2.83,4.89-7,4.89C61.81,132.9,58.64,130.36,58.64,125.84Zm9.92-1.74c-.08-1.67-.9-2.59-2.44-2.59a2.63,2.63,0,0,0-2.64,2.59Z" fill="#14aa40"/><path d="M78.87,125.84v-.21c0-4.44,3.31-7.24,7.59-7.24S94,121.11,94,125.5v.21c0,4.5-3.31,7.19-7.57,7.19S78.87,130.31,78.87,125.84Zm10.31-.08v-.21c0-2.32-.92-3.62-2.72-3.62s-2.75,1.24-2.75,3.57v.21c0,2.38.93,3.68,2.75,3.68S89.18,128.06,89.18,125.76Z" fill="#14aa40"/><path d="M95.66,118.76h4.74V121a4.87,4.87,0,0,1,4.55-2.59c2.67,0,4.52,1.66,4.52,5.21v9h-4.74v-8c0-1.56-.61-2.33-2-2.33s-2.35.85-2.35,2.62v7.75H95.66Z" fill="#14aa40"/><path d="M19.61,154.75c0-3.26,2.75-4.52,7.35-4.52h1.32v-.32c0-1.32-.32-2.2-1.82-2.2a1.7,1.7,0,0,0-1.88,1.64H20.14c.21-3.33,2.83-5,6.61-5S33,145.94,33,149.62v9h-4.6V157a4.56,4.56,0,0,1-4.1,1.93C21.8,158.9,19.61,157.68,19.61,154.75Zm8.67-1v-.84H27c-1.91,0-2.75.37-2.75,1.5,0,.8.53,1.3,1.64,1.3A2.08,2.08,0,0,0,28.28,153.74Z" fill="#14aa40"/><path d="M38.94,144.75h4.94l2,8.28,2.33-8.28H52L54.09,153l2.25-8.28h4.49l-4.39,13.83H51.92l-2.06-7.72-2.14,7.72h-4.6Z" fill="#14aa40"/><path d="M62.05,138.67h4.74V147a4.86,4.86,0,0,1,4.54-2.59c2.67,0,4.53,1.67,4.53,5.21v9H71.12v-8c0-1.56-.61-2.32-2-2.32s-2.35.84-2.35,2.61v7.75H62.05Z" fill="#14aa40"/><path d="M77.42,151.84v-.21c0-4.45,3.3-7.25,7.58-7.25s7.54,2.72,7.54,7.11v.22c0,4.49-3.3,7.19-7.56,7.19S77.42,156.31,77.42,151.84Zm10.31-.08v-.21c0-2.33-.93-3.63-2.73-3.63s-2.75,1.25-2.75,3.57v.22c0,2.38.93,3.67,2.75,3.67S87.73,154.06,87.73,151.76Z" fill="#14aa40"/><path d="M94.34,138.67h4.71v19.91H94.34Z" fill="#14aa40"/><path d="M100.85,151.84v-.21c0-4.45,3.3-7.25,7.48-7.25,3.78,0,7,2.17,7,7.14v1.24h-9.73a2.76,2.76,0,0,0,2.88,2.89c1.56,0,2.23-.72,2.41-1.64h4.44c-.42,3.12-2.83,4.89-7,4.89C104,158.9,100.85,156.36,100.85,151.84Zm9.91-1.75c-.08-1.66-.9-2.59-2.43-2.59a2.64,2.64,0,0,0-2.65,2.59Z" fill="#14aa40"/><path d="M20.4,170.75h4.73V173a4.89,4.89,0,0,1,4.55-2.59c2.67,0,4.53,1.66,4.53,5.2v9H29.47v-8c0-1.56-.61-2.33-2-2.33s-2.36.85-2.36,2.62v7.75H20.4Z" fill="#14aa40"/><path d="M35.77,177.83v-.21c0-4.44,3.3-7.24,7.48-7.24,3.78,0,7,2.16,7,7.14v1.24H40.55a2.76,2.76,0,0,0,2.88,2.88c1.56,0,2.23-.71,2.41-1.64h4.44c-.42,3.12-2.83,4.89-7,4.89C38.94,184.89,35.77,182.35,35.77,177.83Zm9.91-1.74c-.08-1.67-.9-2.59-2.43-2.59a2.62,2.62,0,0,0-2.64,2.59Z" fill="#14aa40"/><path d="M50.36,170.75h5l2,8.27,2.33-8.27h3.8L65.52,179l2.24-8.27h4.5l-4.39,13.83H63.35l-2.07-7.73-2.14,7.73h-4.6Z" fill="#14aa40"/><path d="M78.42,164.66h4.71v19.92H78.42Z" fill="#14aa40"/><path d="M84.93,177.83v-.21c0-4.44,3.3-7.24,7.59-7.24s7.53,2.72,7.53,7.11v.21c0,4.5-3.3,7.19-7.56,7.19S84.93,182.3,84.93,177.83Zm10.31-.08v-.21c0-2.33-.93-3.62-2.72-3.62s-2.75,1.24-2.75,3.57v.21c0,2.38.92,3.68,2.75,3.68S95.24,180.05,95.24,177.75Z" fill="#14aa40"/><path d="M101,177.83v-.21c0-4.44,3.3-7.24,7.59-7.24s7.53,2.72,7.53,7.11v.21c0,4.5-3.3,7.19-7.56,7.19S101,182.3,101,177.83Zm10.31-.08v-.21c0-2.33-.92-3.62-2.72-3.62s-2.75,1.24-2.75,3.57v.21c0,2.38.92,3.68,2.75,3.68S111.29,180.05,111.29,177.75Z" fill="#14aa40"/><path d="M117.77,164.66h4.73v11.56l3.73-5.47h4.92L126.63,177l4.89,7.62h-5.29l-3.73-6.06v6.06h-4.73Z" fill="#14aa40"/><path d="M132.45,182.2a2.63,2.63,0,0,1,2.69-2.68,2.68,2.68,0,1,1,0,5.35A2.63,2.63,0,0,1,132.45,182.2Z" fill="#14aa40"/></g></g></svg>