<svg xmlns="http://www.w3.org/2000/svg" viewBox="0 0 160 600"><title>H4</title><g id="Layer_2" data-name="Layer 2"><g id="rect"><rect width="160" height="600" fill="none"/></g><g id="Extra_income._Flexible_hours._Take_our_virtual_tax_course." data-name="Extra income. Flexible hours.  Take our virtual tax course."><path d="M18.05,21.3H30.3v3.92H23.11v3.05h5.73v3.62H23.11v3.23H30.7V39H18.05Z" fill="#14aa40"/><path d="M35.78,32.44l-4-6.38h5.11l2,3.42,2-3.42h4.57l-4.1,6L45.78,39H40.67l-2.3-3.87L36,39H31.47Z" fill="#14aa40"/><path d="M47.45,34.87V29.09H45.88v-3h1.57v-2.7h4.44v2.7h2.55v3H51.89v5.36c0,.94.47,1.36,1.31,1.36a3.38,3.38,0,0,0,1.27-.22V39a9.33,9.33,0,0,1-2.46.37C49.08,39.33,47.45,37.92,47.45,34.87Z" fill="#14aa40"/><path d="M56.13,26.06h4.44v2.58a4.07,4.07,0,0,1,4.19-2.75V30c-2.7-.07-4.19.77-4.19,2.85V39H56.13Z" fill="#14aa40"/><path d="M65.33,35.44c0-3,2.58-4.24,6.9-4.24h1.24v-.3c0-1.24-.3-2.06-1.71-2.06A1.59,1.59,0,0,0,70,30.38H65.83c.2-3.13,2.65-4.67,6.2-4.67s5.86,1.47,5.86,4.91V39H73.57V37.52a4.27,4.27,0,0,1-3.85,1.81C67.39,39.33,65.33,38.19,65.33,35.44Zm8.14-.94v-.8H72.3c-1.78,0-2.58.35-2.58,1.42,0,.74.5,1.21,1.54,1.21C72.53,36.33,73.47,35.61,73.47,34.5Z" fill="#14aa40"/><path d="M17.55,48.54A2.32,2.32,0,0,1,20,46.23a2.3,2.3,0,1,1,0,4.59A2.3,2.3,0,0,1,17.55,48.54Zm.22,3.52h4.44V65H17.77Z" fill="#14aa40"/><path d="M24.6,52.06H29v2.08a4.57,4.57,0,0,1,4.26-2.43c2.51,0,4.25,1.57,4.25,4.89V65H33.11V57.49c0-1.46-.58-2.18-1.87-2.18S29,56.1,29,57.77V65H24.6Z" fill="#14aa40"/><path d="M39,58.71v-.2c0-4.32,3.1-6.8,6.92-6.8,3.18,0,6.11,1.39,6.35,5.34H48.12A1.92,1.92,0,0,0,46,55.16c-1.56,0-2.48,1.12-2.48,3.3v.2c0,2.26.87,3.42,2.56,3.42a2.15,2.15,0,0,0,2.25-2.16h4c-.13,3.28-2.33,5.41-6.53,5.41C42,65.33,39,63.08,39,58.71Z" fill="#14aa40"/><path d="M53.1,58.71v-.2c0-4.17,3.1-6.8,7.12-6.8s7.07,2.56,7.07,6.68v.19c0,4.22-3.1,6.75-7.09,6.75S53.1,62.9,53.1,58.71Zm9.68-.08v-.19c0-2.19-.87-3.4-2.56-3.4s-2.58,1.16-2.58,3.35v.19c0,2.24.87,3.45,2.58,3.45S62.78,60.79,62.78,58.63Z" fill="#14aa40"/><path d="M68.86,52.06H73.3v2a4.53,4.53,0,0,1,4.07-2.33,3.54,3.54,0,0,1,3.52,2.16,5.14,5.14,0,0,1,4.29-2.16c2.46,0,4.24,1.59,4.24,4.84V65H85V57.29c0-1.31-.64-2-1.66-2a1.93,1.93,0,0,0-2,2.19V65H76.94V57.29c0-1.31-.64-2-1.66-2a1.92,1.92,0,0,0-2,2.19V65H68.86Z" fill="#14aa40"/><path d="M90.89,58.71v-.2c0-4.17,3.1-6.8,7-6.8,3.55,0,6.6,2,6.6,6.7v1.17H95.38a2.59,2.59,0,0,0,2.7,2.7c1.47,0,2.09-.67,2.26-1.54h4.17c-.4,2.93-2.66,4.59-6.58,4.59S90.89,63,90.89,58.71Zm9.3-1.64c-.07-1.56-.84-2.43-2.28-2.43a2.47,2.47,0,0,0-2.48,2.43Z" fill="#14aa40"/><path d="M105.75,62.8a2.47,2.47,0,0,1,2.53-2.5,2.51,2.51,0,1,1,0,5A2.48,2.48,0,0,1,105.75,62.8Z" fill="#14aa40"/><path d="M18.05,73.3H30v3.94H23.16V81h5.48v3.75H23.16V91H18.05Z" fill="#14aa40"/><path d="M31.77,72.35h4.41V91H31.77Z" fill="#14aa40"/><path d="M37.87,84.71v-.2c0-4.17,3.1-6.8,7-6.8,3.55,0,6.6,2,6.6,6.7v1.17H42.36a2.59,2.59,0,0,0,2.7,2.7c1.47,0,2.09-.67,2.26-1.54h4.17c-.4,2.93-2.66,4.59-6.58,4.59S37.87,89,37.87,84.71Zm9.3-1.64c-.07-1.56-.84-2.43-2.28-2.43a2.47,2.47,0,0,0-2.48,2.43Z" fill="#14aa40"/><path d="M55.61,84.44l-4-6.38h5.11l2,3.42,2-3.42h4.57l-4.09,6,4.49,7H60.5l-2.31-3.87L55.83,91H51.29Z" fill="#14aa40"/><path d="M66.75,74.54a2.45,2.45,0,1,1,2.43,2.28A2.32,2.32,0,0,1,66.75,74.54ZM67,78.06h4.44V91H67Z" fill="#14aa40"/><path d="M78.23,89v2H73.79V72.35h4.44V80a4.6,4.6,0,0,1,4-2.28c3,0,5.48,2.28,5.48,6.73v.19c0,4.47-2.46,6.7-5.51,6.7A4.21,4.21,0,0,1,78.23,89Zm5-4.4v-.19c0-2.29-1-3.38-2.56-3.38s-2.58,1.17-2.58,3.35v.2c0,2.21,1,3.32,2.58,3.32S83.25,86.77,83.25,84.63Z" fill="#14aa40"/><path d="M89.5,72.35h4.42V91H89.5Z" fill="#14aa40"/><path d="M95.6,84.71v-.2c0-4.17,3.1-6.8,7-6.8,3.55,0,6.6,2,6.6,6.7v1.17h-9.13a2.59,2.59,0,0,0,2.71,2.7c1.46,0,2.08-.67,2.25-1.54h4.17c-.39,2.93-2.65,4.59-6.57,4.59C98.58,91.33,95.6,89,95.6,84.71Zm9.3-1.64c-.07-1.56-.84-2.43-2.28-2.43a2.47,2.47,0,0,0-2.48,2.43Z" fill="#14aa40"/><path d="M17.65,98.35h4.44v7.79a4.58,4.58,0,0,1,4.27-2.43c2.5,0,4.24,1.57,4.24,4.89V117H26.16v-7.55c0-1.46-.57-2.18-1.86-2.18s-2.21.79-2.21,2.46V117H17.65Z" fill="#14aa40"/><path d="M32.06,110.71v-.2c0-4.17,3.1-6.8,7.12-6.8s7.07,2.56,7.07,6.68v.19c0,4.22-3.1,6.75-7.09,6.75S32.06,114.9,32.06,110.71Zm9.68-.08v-.19c0-2.19-.87-3.4-2.56-3.4s-2.58,1.16-2.58,3.35v.19c0,2.24.87,3.45,2.58,3.45S41.74,112.79,41.74,110.63Z" fill="#14aa40"/><path d="M47.72,112.52v-8.46h4.44v7.74c0,1.46.57,2.18,1.84,2.18s2.2-.79,2.2-2.45v-7.47h4.44v13H56.2v-2a4.25,4.25,0,0,1-4.12,2.3C49.58,117.33,47.72,115.79,47.72,112.52Z" fill="#14aa40"/><path d="M62.9,104.06h4.44v2.58a4.08,4.08,0,0,1,4.2-2.75V108c-2.71-.07-4.2.77-4.2,2.85V117H62.9Z" fill="#14aa40"/><path d="M72.33,112.92h4.09c.15.94.57,1.46,1.84,1.46,1.09,0,1.59-.42,1.59-1.07s-.62-.91-2.41-1.16C74,111.7,72.5,110.68,72.5,108c0-2.88,2.56-4.27,5.56-4.27,3.2,0,5.43,1.09,5.73,4.2h-4a1.44,1.44,0,0,0-1.66-1.29c-1,0-1.46.42-1.46,1s.59.87,2.18,1.07c3.6.45,5.33,1.39,5.33,4.17,0,3.07-2.28,4.46-5.88,4.46S72.43,115.79,72.33,112.92Z" fill="#14aa40"/><path d="M85.43,114.8A2.47,2.47,0,0,1,88,112.3a2.51,2.51,0,1,1,0,5A2.48,2.48,0,0,1,85.43,114.8Z" fill="#14aa40"/><path d="M21.44,129.22H16.85V125.3h14.3v3.92H26.56V143H21.44Z" fill="#14aa40"/><path d="M30.25,139.44c0-3.05,2.58-4.24,6.9-4.24h1.24v-.3c0-1.24-.3-2.06-1.71-2.06a1.59,1.59,0,0,0-1.76,1.54H30.75c.2-3.13,2.65-4.67,6.2-4.67s5.86,1.47,5.86,4.91V143H38.49v-1.52a4.27,4.27,0,0,1-3.85,1.81C32.31,143.33,30.25,142.19,30.25,139.44Zm8.14-.94v-.8H37.22c-1.78,0-2.58.35-2.58,1.42,0,.74.5,1.21,1.54,1.21C37.45,140.33,38.39,139.61,38.39,138.5Z" fill="#14aa40"/><path d="M45,124.35h4.45V135.2l3.49-5.14h4.62l-4.24,5.83L57.87,143h-5l-3.49-5.69V143H45Z" fill="#14aa40"/><path d="M57.54,136.71v-.2c0-4.17,3.1-6.8,7-6.8,3.55,0,6.6,2,6.6,6.7v1.17H62a2.59,2.59,0,0,0,2.71,2.7c1.46,0,2.08-.67,2.26-1.54h4.16c-.39,2.93-2.65,4.59-6.57,4.59S57.54,141,57.54,136.71Zm9.31-1.64c-.08-1.56-.85-2.43-2.29-2.43a2.47,2.47,0,0,0-2.48,2.43Z" fill="#14aa40"/><path d="M76.52,136.71v-.2c0-4.17,3.1-6.8,7.12-6.8s7.07,2.56,7.07,6.68v.19c0,4.22-3.1,6.75-7.09,6.75S76.52,140.9,76.52,136.71Zm9.68-.08v-.19c0-2.19-.87-3.4-2.56-3.4s-2.58,1.16-2.58,3.35v.19c0,2.24.87,3.45,2.58,3.45S86.2,138.79,86.2,136.63Z" fill="#14aa40"/><path d="M92.18,138.52v-8.46h4.44v7.74c0,1.46.57,2.18,1.84,2.18s2.2-.79,2.2-2.45v-7.47h4.44v13h-4.44v-2a4.25,4.25,0,0,1-4.12,2.3C94,143.33,92.18,141.79,92.18,138.52Z" fill="#14aa40"/><path d="M107.36,130.06h4.44v2.58a4.07,4.07,0,0,1,4.19-2.75V134c-2.7-.07-4.19.77-4.19,2.85V143h-4.44Z" fill="#14aa40"/><path d="M16.53,156.06h4.74L24,164.42l2.65-8.36h4.24l-4.74,13H21.3Z" fill="#14aa40"/><path d="M31.89,152.54a2.32,2.32,0,0,1,2.43-2.31,2.3,2.3,0,1,1,0,4.59A2.3,2.3,0,0,1,31.89,152.54Zm.22,3.52h4.44v13H32.11Z" fill="#14aa40"/><path d="M38.94,156.06h4.44v2.58a4.06,4.06,0,0,1,4.19-2.75V160c-2.71-.07-4.19.77-4.19,2.85V169H38.94Z" fill="#14aa40"/><path d="M50,164.87v-5.78H48.41v-3H50v-2.7h4.44v2.7H57v3H54.42v5.36c0,.94.47,1.36,1.31,1.36a3.38,3.38,0,0,0,1.27-.22V169a9.33,9.33,0,0,1-2.46.37C51.61,169.33,50,167.92,50,164.87Z" fill="#14aa40"/><path d="M58.56,164.52v-8.46H63v7.74c0,1.46.57,2.18,1.84,2.18s2.2-.79,2.2-2.45v-7.47h4.45v13H67v-2a4.25,4.25,0,0,1-4.11,2.3C60.42,169.33,58.56,167.79,58.56,164.52Z" fill="#14aa40"/><path d="M73,165.44c0-3.05,2.58-4.24,6.9-4.24h1.24v-.3c0-1.24-.3-2.06-1.72-2.06a1.6,1.6,0,0,0-1.76,1.54H73.49c.2-3.13,2.66-4.67,6.21-4.67s5.85,1.47,5.85,4.91V169H81.24v-1.52a4.28,4.28,0,0,1-3.85,1.81C75.06,169.33,73,168.19,73,165.44Zm8.14-.94v-.8H80c-1.79,0-2.58.35-2.58,1.42,0,.74.5,1.21,1.54,1.21A2,2,0,0,0,81.14,164.5Z" fill="#14aa40"/><path d="M87.84,150.35h4.41V169H87.84Z" fill="#14aa40"/><path d="M99.74,164.87v-5.78H98.18v-3h1.56v-2.7h4.44v2.7h2.56v3h-2.56v5.36a1.19,1.19,0,0,0,1.32,1.36,3.3,3.3,0,0,0,1.26-.22V169a9.24,9.24,0,0,1-2.45.37C101.38,169.33,99.74,167.92,99.74,164.87Z" fill="#14aa40"/><path d="M107.73,165.44c0-3.05,2.58-4.24,6.9-4.24h1.24v-.3c0-1.24-.3-2.06-1.71-2.06a1.59,1.59,0,0,0-1.76,1.54h-4.17c.2-3.13,2.65-4.67,6.2-4.67s5.86,1.47,5.86,4.91V169H116v-1.52a4.27,4.27,0,0,1-3.85,1.81C109.79,169.33,107.73,168.19,107.73,165.44Zm8.14-.94v-.8h-1.16c-1.79,0-2.59.35-2.59,1.42,0,.74.5,1.21,1.54,1.21C114.93,166.33,115.87,165.61,115.87,164.5Z" fill="#14aa40"/><path d="M125.72,162.44l-4-6.38h5.11l2,3.42,2-3.42h4.56l-4.09,6,4.49,6.95h-5.11l-2.31-3.87L125.94,169H121.4Z" fill="#14aa40"/><path d="M17,188.71v-.2c0-4.32,3.11-6.8,6.93-6.8,3.17,0,6.1,1.39,6.35,5.34H26.06A1.92,1.92,0,0,0,24,185.16c-1.57,0-2.49,1.12-2.49,3.3v.2c0,2.26.87,3.42,2.56,3.42a2.16,2.16,0,0,0,2.26-2.16h4c-.12,3.28-2.33,5.41-6.52,5.41C19.91,195.33,17,193.08,17,188.71Z" fill="#14aa40"/><path d="M31.05,188.71v-.2c0-4.17,3.1-6.8,7.12-6.8s7.07,2.56,7.07,6.68v.19c0,4.22-3.1,6.75-7.1,6.75S31.05,192.9,31.05,188.71Zm9.67-.08v-.19c0-2.19-.87-3.4-2.55-3.4s-2.58,1.16-2.58,3.35v.19c0,2.24.86,3.45,2.58,3.45S40.72,190.79,40.72,188.63Z" fill="#14aa40"/><path d="M46.7,190.52v-8.46h4.44v7.74c0,1.46.57,2.18,1.84,2.18s2.21-.79,2.21-2.45v-7.47h4.44v13H55.19v-2a4.26,4.26,0,0,1-4.12,2.3C48.56,195.33,46.7,193.79,46.7,190.52Z" fill="#14aa40"/><path d="M61.88,182.06h4.45v2.58a4.06,4.06,0,0,1,4.19-2.75V186c-2.71-.07-4.19.77-4.19,2.85V195H61.88Z" fill="#14aa40"/><path d="M71.31,190.92h4.1c.14.94.57,1.46,1.83,1.46,1.09,0,1.59-.42,1.59-1.07s-.62-.91-2.41-1.16c-3.47-.45-4.93-1.47-4.93-4.17,0-2.88,2.55-4.27,5.55-4.27,3.2,0,5.44,1.09,5.73,4.2h-4a1.44,1.44,0,0,0-1.66-1.29c-1,0-1.46.42-1.46,1s.59.87,2.18,1.07c3.6.45,5.34,1.39,5.34,4.17,0,3.07-2.29,4.46-5.88,4.46S71.41,193.79,71.31,190.92Z" fill="#14aa40"/><path d="M84,188.71v-.2c0-4.17,3.11-6.8,7-6.8,3.54,0,6.6,2,6.6,6.7v1.17H88.46a2.58,2.58,0,0,0,2.7,2.7c1.46,0,2.08-.67,2.26-1.54h4.17c-.4,2.93-2.66,4.59-6.58,4.59C86.94,195.33,84,193,84,188.71Zm9.31-1.64c-.08-1.56-.84-2.43-2.28-2.43a2.47,2.47,0,0,0-2.48,2.43Z" fill="#14aa40"/><path d="M98.83,192.8a2.46,2.46,0,0,1,2.53-2.5,2.51,2.51,0,1,1,0,5A2.47,2.47,0,0,1,98.83,192.8Z" fill="#14aa40"/></g></g></svg>