<svg xmlns="http://www.w3.org/2000/svg" viewBox="0 0 160 600"><title>H4</title><g id="Layer_2" data-name="Layer 2"><g id="Artboard_3" data-name="Artboard 3" style="isolation:isolate"><g id="headline"><g id="Extra_income._Flexible_hours._Take_our_virtual_tax_course." data-name="Extra income. Flexible hours. Take our virtual tax course."><path d="M20.09,25.28h7.82v2.5H23.32v1.95H27V32H23.32V34.1h4.84v2.5H20.09Z" fill="#14aa40"/><path d="M31.4,32.39l-2.58-4.07h3.26l1.28,2.19,1.25-2.19h2.92l-2.62,3.85,2.87,4.43H34.52l-1.47-2.47L31.54,36.6H28.65Z" fill="#14aa40"/><path d="M38.83,33.94V30.25h-1V28.32h1V26.6h2.84v1.72H43.3v1.93H41.67v3.42a.76.76,0,0,0,.84.87,2.24,2.24,0,0,0,.8-.14v2.15a5.67,5.67,0,0,1-1.56.24C39.88,36.79,38.83,35.89,38.83,33.94Z" fill="#14aa40"/><path d="M44.37,28.32H47.2V30a2.63,2.63,0,0,1,2.68-1.76v2.64c-1.73,0-2.68.49-2.68,1.82V36.6H44.37Z" fill="#14aa40"/><path d="M50.24,34.3c0-1.94,1.65-2.7,4.4-2.7h.79v-.19c0-.79-.19-1.32-1.09-1.32a1,1,0,0,0-1.13,1H50.56c.12-2,1.69-3,3.95-3s3.74.93,3.74,3.13V36.6H55.49v-1A2.71,2.71,0,0,1,53,36.79C51.55,36.79,50.24,36.06,50.24,34.3Zm5.19-.6v-.5h-.74c-1.14,0-1.65.22-1.65.9,0,.47.32.77,1,.77S55.43,34.41,55.43,33.7Z" fill="#14aa40"/><path d="M62.43,26.08A1.56,1.56,0,1,1,64,27.53,1.47,1.47,0,0,1,62.43,26.08Zm.15,2.24h2.83V36.6H62.58Z" fill="#14aa40"/><path d="M66.93,28.32h2.83v1.33a2.92,2.92,0,0,1,2.72-1.55c1.6,0,2.71,1,2.71,3.12V36.6H72.35V31.79c0-.94-.36-1.39-1.18-1.39s-1.41.5-1.41,1.56V36.6H66.93Z" fill="#14aa40"/><path d="M76.12,32.56v-.12a4.16,4.16,0,0,1,4.41-4.34c2,0,3.89.89,4,3.4H81.92a1.22,1.22,0,0,0-1.33-1.2c-1,0-1.58.71-1.58,2.1v.13c0,1.44.56,2.19,1.63,2.19a1.38,1.38,0,0,0,1.44-1.38h2.55c-.08,2.09-1.49,3.45-4.16,3.45C78,36.79,76.12,35.35,76.12,32.56Z" fill="#14aa40"/><path d="M85.1,32.56v-.12a4.25,4.25,0,0,1,4.54-4.34,4.19,4.19,0,0,1,4.51,4.26v.12a4.21,4.21,0,0,1-4.53,4.31C87.08,36.79,85.1,35.24,85.1,32.56Zm6.17,0v-.13c0-1.39-.55-2.17-1.63-2.17S88,31,88,32.36v.12c0,1.43.55,2.2,1.64,2.2S91.27,33.89,91.27,32.52Z" fill="#14aa40"/><path d="M95.14,28.32H98v1.27a2.89,2.89,0,0,1,2.59-1.49,2.27,2.27,0,0,1,2.25,1.38,3.27,3.27,0,0,1,2.74-1.38c1.56,0,2.7,1,2.7,3.09V36.6h-2.83V31.66c0-.84-.41-1.25-1.06-1.25a1.23,1.23,0,0,0-1.27,1.39v4.8h-2.8V31.66c0-.84-.41-1.25-1.06-1.25A1.22,1.22,0,0,0,98,31.8v4.8H95.14Z" fill="#14aa40"/><path d="M109.19,32.56v-.12a4.24,4.24,0,0,1,4.48-4.34,3.93,3.93,0,0,1,4.21,4.27v.75h-5.83a1.66,1.66,0,0,0,1.73,1.72c.93,0,1.33-.43,1.44-1h2.66c-.26,1.87-1.7,2.93-4.2,2.93S109.19,35.27,109.19,32.56Zm5.93-1c0-1-.53-1.55-1.45-1.55a1.57,1.57,0,0,0-1.58,1.55Z" fill="#14aa40"/><path d="M118.67,35.17a1.57,1.57,0,0,1,1.61-1.59,1.6,1.6,0,1,1,0,3.19A1.58,1.58,0,0,1,118.67,35.17Z" fill="#14aa40"/><path d="M20.09,43.1h7.64v2.52H23.35V48h3.5v2.38h-3.5v4H20.09Z" fill="#14aa40"/><path d="M28.84,42.5h2.82V54.42H28.84Z" fill="#14aa40"/><path d="M32.73,50.38v-.12a4.24,4.24,0,0,1,4.48-4.34,3.93,3.93,0,0,1,4.21,4.27v.75H35.59a1.66,1.66,0,0,0,1.73,1.72c.93,0,1.33-.43,1.44-1h2.66c-.26,1.87-1.7,2.93-4.2,2.93S32.73,53.09,32.73,50.38Zm5.93-1c0-1-.53-1.55-1.45-1.55a1.58,1.58,0,0,0-1.59,1.55Z" fill="#14aa40"/><path d="M44,50.21l-2.58-4.07h3.26L46,48.33l1.25-2.19h2.91L47.55,50l2.87,4.43H47.16L45.69,52l-1.51,2.47H41.29Z" fill="#14aa40"/><path d="M51.14,43.9a1.56,1.56,0,1,1,1.55,1.45A1.47,1.47,0,0,1,51.14,43.9Zm.14,2.24h2.84v8.28H51.28Z" fill="#14aa40"/><path d="M58.47,53.14v1.28H55.63V42.5h2.84v4.88A2.9,2.9,0,0,1,61,45.92c1.94,0,3.5,1.46,3.5,4.29v.13c0,2.84-1.56,4.27-3.51,4.27A2.68,2.68,0,0,1,58.47,53.14Zm3.19-2.8v-.13c0-1.46-.63-2.15-1.63-2.15s-1.64.74-1.64,2.13v.13c0,1.41.61,2.12,1.64,2.12S61.66,51.7,61.66,50.34Z" fill="#14aa40"/><path d="M65.65,42.5h2.81V54.42H65.65Z" fill="#14aa40"/><path d="M69.54,50.38v-.12A4.23,4.23,0,0,1,74,45.92a3.92,3.92,0,0,1,4.21,4.27v.75H72.4a1.65,1.65,0,0,0,1.73,1.72c.93,0,1.32-.43,1.44-1h2.65C78,53.55,76.53,54.61,74,54.61S69.54,53.09,69.54,50.38Zm5.93-1c0-1-.54-1.55-1.46-1.55a1.57,1.57,0,0,0-1.58,1.55Z" fill="#14aa40"/><path d="M82.08,42.5h2.83v5a2.93,2.93,0,0,1,2.72-1.55c1.6,0,2.71,1,2.71,3.12v5.38H87.51V49.61c0-.94-.37-1.39-1.19-1.39s-1.41.5-1.41,1.56v4.64H82.08Z" fill="#14aa40"/><path d="M91.27,50.38v-.12a4.25,4.25,0,0,1,4.54-4.34,4.19,4.19,0,0,1,4.51,4.26v.12a4.21,4.21,0,0,1-4.53,4.31C93.25,54.61,91.27,53.06,91.27,50.38Zm6.17,0v-.13c0-1.39-.55-2.17-1.63-2.17s-1.65.74-1.65,2.14v.12c0,1.43.56,2.2,1.65,2.2S97.44,51.71,97.44,50.34Z" fill="#14aa40"/><path d="M101.25,51.54v-5.4h2.83v4.94c0,.93.37,1.39,1.17,1.39s1.41-.5,1.41-1.56V46.14h2.83v8.28h-2.83V53.14A2.72,2.72,0,0,1,104,54.61C102.44,54.61,101.25,53.63,101.25,51.54Z" fill="#14aa40"/><path d="M110.93,46.14h2.83v1.65A2.63,2.63,0,0,1,116.44,46v2.64c-1.73,0-2.68.49-2.68,1.82v3.93h-2.83Z" fill="#14aa40"/><path d="M116.94,51.79h2.61c.1.6.37.94,1.17.94s1-.27,1-.69-.4-.58-1.54-.74c-2.21-.28-3.15-.93-3.15-2.66s1.63-2.72,3.55-2.72,3.46.7,3.65,2.67h-2.56a.92.92,0,0,0-1.06-.82c-.62,0-.94.27-.94.65s.38.55,1.4.68c2.29.29,3.4.89,3.4,2.66,0,2-1.46,2.85-3.75,2.85S117,53.63,116.94,51.79Z" fill="#14aa40"/><path d="M125.29,53a1.58,1.58,0,0,1,1.62-1.59,1.6,1.6,0,1,1,0,3.19A1.58,1.58,0,0,1,125.29,53Z" fill="#14aa40"/><path d="M22.26,63.42H19.33v-2.5h9.12v2.5H25.52v8.82H22.26Z" fill="#14aa40"/><path d="M27.87,69.94c0-1.94,1.65-2.7,4.4-2.7h.79v-.19c0-.79-.19-1.32-1.09-1.32a1,1,0,0,0-1.12,1H28.19c.13-2,1.69-3,4-3s3.73.93,3.73,3.13v5.37H33.13v-1a2.74,2.74,0,0,1-2.46,1.16C29.19,72.43,27.87,71.7,27.87,69.94Zm5.19-.6v-.5h-.74c-1.14,0-1.65.22-1.65.9,0,.47.32.77,1,.77A1.24,1.24,0,0,0,33.06,69.34Z" fill="#14aa40"/><path d="M37.25,60.32h2.84v6.92L42.32,64h2.94l-2.71,3.72,2.93,4.56H42.32l-2.23-3.63v3.63H37.25Z" fill="#14aa40"/><path d="M45.27,68.2v-.12a4.24,4.24,0,0,1,4.48-4.34A3.93,3.93,0,0,1,54,68v.75H48.14a1.65,1.65,0,0,0,1.72,1.72c.93,0,1.33-.43,1.44-1H54c-.25,1.87-1.69,2.93-4.19,2.93S45.27,70.91,45.27,68.2Zm5.94-1c-.05-1-.54-1.55-1.46-1.55a1.57,1.57,0,0,0-1.58,1.55Z" fill="#14aa40"/><path d="M57.37,68.2v-.12a4.25,4.25,0,0,1,4.54-4.34A4.19,4.19,0,0,1,66.42,68v.12a4.2,4.2,0,0,1-4.52,4.31C59.35,72.43,57.37,70.88,57.37,68.2Zm6.17,0V68c0-1.39-.55-2.17-1.63-2.17s-1.64.74-1.64,2.14v.12c0,1.43.55,2.2,1.64,2.2S63.54,69.53,63.54,68.16Z" fill="#14aa40"/><path d="M67.35,69.36V64h2.84V68.9c0,.93.36,1.39,1.17,1.39s1.41-.5,1.41-1.56V64H75.6v8.28H72.77V71a2.73,2.73,0,0,1-2.63,1.47C68.54,72.43,67.35,71.45,67.35,69.36Z" fill="#14aa40"/><path d="M77,64h2.84v1.65a2.61,2.61,0,0,1,2.67-1.76v2.64c-1.72,0-2.67.49-2.67,1.82v3.93H77Z" fill="#14aa40"/><path d="M85.73,64h3l1.73,5.33L92.17,64h2.71l-3,8.28H88.77Z" fill="#14aa40"/><path d="M95.52,61.72a1.56,1.56,0,1,1,1.56,1.45A1.47,1.47,0,0,1,95.52,61.72ZM95.67,64H98.5v8.28H95.67Z" fill="#14aa40"/><path d="M100,64h2.83v1.65a2.61,2.61,0,0,1,2.67-1.76v2.64c-1.72,0-2.67.49-2.67,1.82v3.93H100Z" fill="#14aa40"/><path d="M107.06,69.58V65.89h-1V64h1V62.24h2.83V64h1.63v1.93h-1.63v3.42a.76.76,0,0,0,.84.87,2.24,2.24,0,0,0,.8-.14v2.15a5.67,5.67,0,0,1-1.56.24C108.1,72.43,107.06,71.53,107.06,69.58Z" fill="#14aa40"/><path d="M112.53,69.36V64h2.83V68.9c0,.93.37,1.39,1.17,1.39s1.41-.5,1.41-1.56V64h2.83v8.28h-2.83V71a2.72,2.72,0,0,1-2.63,1.47C113.72,72.43,112.53,71.45,112.53,69.36Z" fill="#14aa40"/><path d="M121.74,69.94c0-1.94,1.64-2.7,4.39-2.7h.79v-.19c0-.79-.18-1.32-1.09-1.32a1,1,0,0,0-1.12,1h-2.66c.13-2,1.69-3,4-3s3.73.93,3.73,3.13v5.37H127v-1a2.72,2.72,0,0,1-2.45,1.16C123.05,72.43,121.74,71.7,121.74,69.94Zm5.18-.6v-.5h-.74c-1.14,0-1.64.22-1.64.9,0,.47.31.77,1,.77A1.24,1.24,0,0,0,126.92,69.34Z" fill="#14aa40"/><path d="M131.19,60.32H134V72.24h-2.82Z" fill="#14aa40"/><path d="M20.22,87.4V83.71h-1V81.78h1V80.06h2.83v1.72h1.63v1.93H23.05v3.42a.76.76,0,0,0,.84.87,2.29,2.29,0,0,0,.81-.14V90a5.82,5.82,0,0,1-1.57.24C21.26,90.25,20.22,89.35,20.22,87.4Z" fill="#14aa40"/><path d="M25.31,87.76c0-1.94,1.65-2.7,4.4-2.7h.79v-.19c0-.79-.19-1.32-1.09-1.32a1,1,0,0,0-1.12,1H25.63c.12-2,1.69-3,3.95-3s3.74.93,3.74,3.13v5.37H30.56v-1a2.71,2.71,0,0,1-2.45,1.16C26.62,90.25,25.31,89.52,25.31,87.76Zm5.19-.6v-.5h-.74c-1.14,0-1.65.22-1.65.9,0,.47.32.77,1,.77S30.5,87.87,30.5,87.16Z" fill="#14aa40"/><path d="M36.78,85.85,34.2,81.78h3.26L38.74,84,40,81.78H42.9l-2.61,3.85,2.87,4.43H39.9l-1.48-2.47-1.5,2.47H34Z" fill="#14aa40"/><path d="M46.38,86V85.9a4.16,4.16,0,0,1,4.41-4.34c2,0,3.9.89,4.05,3.4H52.19a1.23,1.23,0,0,0-1.33-1.2c-1,0-1.59.71-1.59,2.1V86c0,1.44.56,2.19,1.63,2.19a1.37,1.37,0,0,0,1.44-1.38h2.55c-.08,2.09-1.49,3.45-4.16,3.45C48.26,90.25,46.38,88.81,46.38,86Z" fill="#14aa40"/><path d="M55.36,86V85.9a4.25,4.25,0,0,1,4.54-4.34,4.19,4.19,0,0,1,4.51,4.26v.12a4.2,4.2,0,0,1-4.52,4.31C57.34,90.25,55.36,88.7,55.36,86Zm6.17,0v-.13c0-1.39-.55-2.17-1.63-2.17s-1.64.74-1.64,2.14v.12c0,1.43.55,2.2,1.64,2.2S61.53,87.35,61.53,86Z" fill="#14aa40"/><path d="M65.34,87.18v-5.4h2.84v4.94c0,.93.36,1.39,1.17,1.39s1.41-.5,1.41-1.56V81.78h2.83v8.28H70.76V88.78a2.73,2.73,0,0,1-2.63,1.47C66.53,90.25,65.34,89.27,65.34,87.18Z" fill="#14aa40"/><path d="M75,81.78h2.84v1.65a2.61,2.61,0,0,1,2.67-1.76v2.64c-1.72,0-2.67.49-2.67,1.82v3.93H75Z" fill="#14aa40"/><path d="M81,87.43h2.61c.09.6.36.94,1.17.94s1-.27,1-.69-.4-.58-1.54-.74c-2.21-.28-3.14-.93-3.14-2.66s1.63-2.72,3.54-2.72,3.47.7,3.66,2.68H85.78a.92.92,0,0,0-1.06-.83c-.62,0-.93.27-.93.65s.38.55,1.39.68c2.29.29,3.4.89,3.4,2.66,0,2-1.45,2.85-3.75,2.85S81.1,89.27,81,87.43Z" fill="#14aa40"/><path d="M89.1,86V85.9a4.24,4.24,0,0,1,4.48-4.34,3.93,3.93,0,0,1,4.21,4.27v.75H92a1.66,1.66,0,0,0,1.73,1.72c.93,0,1.33-.43,1.44-1h2.66c-.26,1.87-1.7,2.93-4.2,2.93S89.1,88.73,89.1,86ZM95,85c0-1-.53-1.55-1.45-1.55A1.57,1.57,0,0,0,92,85Z" fill="#14aa40"/><path d="M98.58,88.63A1.57,1.57,0,0,1,100.19,87a1.6,1.6,0,1,1,0,3.19A1.58,1.58,0,0,1,98.58,88.63Z" fill="#14aa40"/></g><g id="rect"><rect width="160" height="600" fill="none"/></g></g></g></g></svg>