<svg xmlns="http://www.w3.org/2000/svg" viewBox="0 0 160 600"><title>H3</title><g id="Layer_2" data-name="Layer 2"><g id="Artboard_2" data-name="Artboard 2" style="isolation:isolate"><g id="headline"><g id="Virtual_career_training_for_159." data-name="Virtual career training for $159."><path d="M19.19,25.28h3.5L25,33.23l2.31-7.95h3L26.63,36.6H22.94Z" fill="#14aa40"/><path d="M30.9,26.08a1.56,1.56,0,1,1,1.55,1.45A1.46,1.46,0,0,1,30.9,26.08ZM31,28.32h2.83V36.6H31Z" fill="#14aa40"/><path d="M35.39,28.32h2.83V30a2.61,2.61,0,0,1,2.67-1.76v2.64c-1.72,0-2.67.49-2.67,1.82V36.6H35.39Z" fill="#14aa40"/><path d="M42.43,33.94V30.25h-1V28.32h1V26.6h2.83v1.72h1.63v1.93H45.26v3.42a.76.76,0,0,0,.84.87,2.24,2.24,0,0,0,.8-.14v2.15a5.67,5.67,0,0,1-1.56.24C43.47,36.79,42.43,35.89,42.43,33.94Z" fill="#14aa40"/><path d="M47.9,33.72v-5.4h2.83v4.94c0,.93.36,1.39,1.17,1.39s1.41-.5,1.41-1.56V28.32h2.83V36.6H53.31V35.32a2.72,2.72,0,0,1-2.63,1.47C49.08,36.79,47.9,35.81,47.9,33.72Z" fill="#14aa40"/><path d="M57.1,34.3c0-1.94,1.65-2.7,4.4-2.7h.79v-.19c0-.79-.19-1.32-1.09-1.32a1,1,0,0,0-1.12,1H57.42c.13-2,1.69-3,4-3s3.73.93,3.73,3.13V36.6H62.36v-1a2.74,2.74,0,0,1-2.46,1.16C58.42,36.79,57.1,36.06,57.1,34.3Zm5.19-.6v-.5h-.74c-1.14,0-1.65.22-1.65.9,0,.47.32.77,1,.77A1.24,1.24,0,0,0,62.29,33.7Z" fill="#14aa40"/><path d="M66.56,24.68h2.82V36.6H66.56Z" fill="#14aa40"/><path d="M73.33,32.56v-.12a4.17,4.17,0,0,1,4.42-4.34c2,0,3.89.89,4,3.4H79.14a1.23,1.23,0,0,0-1.33-1.2c-1,0-1.58.71-1.58,2.1v.13c0,1.44.55,2.19,1.63,2.19a1.39,1.39,0,0,0,1.44-1.38h2.54c-.07,2.09-1.48,3.45-4.16,3.45C75.21,36.79,73.33,35.35,73.33,32.56Z" fill="#14aa40"/><path d="M82.33,34.3c0-1.94,1.65-2.7,4.4-2.7h.79v-.19c0-.79-.19-1.32-1.09-1.32a1,1,0,0,0-1.12,1H82.65c.12-2,1.69-3,3.95-3s3.74.93,3.74,3.13V36.6H87.58v-1a2.71,2.71,0,0,1-2.45,1.16C83.65,36.79,82.33,36.06,82.33,34.3Zm5.19-.6v-.5h-.74c-1.14,0-1.65.22-1.65.9,0,.47.32.77,1,.77C86.92,34.87,87.52,34.41,87.52,33.7Z" fill="#14aa40"/><path d="M91.71,28.32h2.83V30a2.63,2.63,0,0,1,2.68-1.76v2.64c-1.73,0-2.68.49-2.68,1.82V36.6H91.71Z" fill="#14aa40"/><path d="M97.72,32.56v-.12a4.24,4.24,0,0,1,4.48-4.34,3.93,3.93,0,0,1,4.21,4.27v.75h-5.82a1.65,1.65,0,0,0,1.72,1.72c.93,0,1.33-.43,1.44-1h2.66c-.25,1.87-1.69,2.93-4.19,2.93S97.72,35.27,97.72,32.56Zm5.94-1c0-1-.54-1.55-1.46-1.55a1.57,1.57,0,0,0-1.58,1.55Z" fill="#14aa40"/><path d="M106.94,32.56v-.12a4.24,4.24,0,0,1,4.48-4.34,3.92,3.92,0,0,1,4.21,4.27v.75h-5.82a1.65,1.65,0,0,0,1.72,1.72c.94,0,1.33-.43,1.44-1h2.66c-.25,1.87-1.69,2.93-4.19,2.93S106.94,35.27,106.94,32.56Zm5.94-1c0-1-.54-1.55-1.46-1.55a1.57,1.57,0,0,0-1.58,1.55Z" fill="#14aa40"/><path d="M116.61,28.32h2.83V30a2.61,2.61,0,0,1,2.68-1.76v2.64c-1.73,0-2.68.49-2.68,1.82V36.6h-2.83Z" fill="#14aa40"/><path d="M20.22,51.76V48.07h-1V46.14h1V44.42h2.83v1.72h1.63v1.93H23.05v3.42a.76.76,0,0,0,.84.87,2.29,2.29,0,0,0,.81-.14v2.15a5.82,5.82,0,0,1-1.57.24C21.26,54.61,20.22,53.71,20.22,51.76Z" fill="#14aa40"/><path d="M25.75,46.14h2.84v1.65A2.61,2.61,0,0,1,31.26,46v2.64c-1.72,0-2.67.49-2.67,1.82v3.93H25.75Z" fill="#14aa40"/><path d="M31.62,52.12c0-1.94,1.65-2.7,4.4-2.7h.79v-.19c0-.79-.19-1.32-1.09-1.32a1,1,0,0,0-1.12,1H31.94c.13-2,1.69-3,4-3s3.73.93,3.73,3.13v5.37H36.88v-1a2.74,2.74,0,0,1-2.46,1.16C32.94,54.61,31.62,53.88,31.62,52.12Zm5.19-.6V51h-.74c-1.14,0-1.65.22-1.65.9,0,.47.32.77,1,.77C36.21,52.69,36.81,52.23,36.81,51.52Z" fill="#14aa40"/><path d="M40.94,43.9a1.48,1.48,0,0,1,1.55-1.48,1.5,1.5,0,0,1,1.57,1.48,1.48,1.48,0,0,1-1.57,1.45A1.46,1.46,0,0,1,40.94,43.9Zm.14,2.24h2.83v8.28H41.08Z" fill="#14aa40"/><path d="M45.43,46.14h2.83v1.33A2.94,2.94,0,0,1,51,45.92c1.6,0,2.71,1,2.71,3.12v5.38H50.86V49.61c0-.94-.37-1.39-1.19-1.39s-1.41.5-1.41,1.56v4.64H45.43Z" fill="#14aa40"/><path d="M55,43.9a1.48,1.48,0,0,1,1.55-1.48,1.5,1.5,0,0,1,1.57,1.48,1.48,1.48,0,0,1-1.57,1.45A1.46,1.46,0,0,1,55,43.9Zm.14,2.24H58v8.28H55.14Z" fill="#14aa40"/><path d="M59.49,46.14h2.83v1.33a3,3,0,0,1,2.73-1.55c1.59,0,2.7,1,2.7,3.12v5.38H64.92V49.61c0-.94-.36-1.39-1.19-1.39s-1.41.5-1.41,1.56v4.64H59.49Z" fill="#14aa40"/><path d="M68.67,54.42h2.81c.13.6.49,1.07,1.52,1.07a1.57,1.57,0,0,0,1.76-1.74V52.49A2.91,2.91,0,0,1,72.19,54c-1.93,0-3.51-1.43-3.51-4v-.12c0-2.44,1.57-4,3.51-4a2.7,2.7,0,0,1,2.57,1.39V46.14h2.83v7.58c0,2.47-1.63,3.77-4.59,3.77S68.89,56.3,68.67,54.42ZM74.84,50v-.11c0-1.14-.59-1.87-1.63-1.87s-1.63.74-1.63,1.88v.13c0,1.14.6,1.87,1.61,1.87S74.84,51.19,74.84,50Z" fill="#14aa40"/><path d="M82.33,48.07h-1V46.14h1v-.73c0-2,1.29-3,3.25-3a5.33,5.33,0,0,1,1.3.17v2.07a2.76,2.76,0,0,0-.78-.11.83.83,0,0,0-.95.9v.73h1.68v1.93H85.15v6.35H82.33Z" fill="#14aa40"/><path d="M87.05,50.38v-.12a4.25,4.25,0,0,1,4.54-4.34,4.19,4.19,0,0,1,4.51,4.26v.12a4.21,4.21,0,0,1-4.53,4.31C89,54.61,87.05,53.06,87.05,50.38Zm6.17,0v-.13c0-1.39-.56-2.17-1.63-2.17s-1.65.74-1.65,2.14v.12c0,1.43.56,2.2,1.65,2.2S93.22,51.71,93.22,50.34Z" fill="#14aa40"/><path d="M97.09,46.14h2.83v1.65A2.61,2.61,0,0,1,102.6,46v2.64c-1.73,0-2.68.49-2.68,1.82v3.93H97.09Z" fill="#14aa40"/><path d="M22,69.48c-1.81-.12-2.69-1.09-2.77-2.48h1.94A1,1,0,0,0,22,68V66.46c-1.82-.26-2.6-.93-2.6-2.38,0-1.28,1-2.19,2.6-2.3v-.94h.82v.95c1.52.12,2.43.83,2.55,2.26h-1.9a.83.83,0,0,0-.65-.78v1.45c1.61.23,2.66.77,2.66,2.29,0,1.28-.83,2.36-2.66,2.47v1.31H22Zm0-4.89V63.25c-.47.08-.71.33-.71.67S21.46,64.47,22,64.59Zm.82,2V68a.76.76,0,0,0,.71-.74C23.55,66.9,23.4,66.72,22.84,66.59Z" fill="#14aa40"/><path d="M28.3,64.12l-2.16,1.33V62.74l2.6-1.82h2.8V72.24H28.3Z" fill="#14aa40"/><path d="M38.2,70.07H32.69V68.85l4.72-7.93h3.91v6.92h1.45v2.23H41.32v2.17H38.2Zm.08-2.23V63.36l-2.53,4.48Z" fill="#14aa40"/><path d="M43.53,69h3c.11.57.46,1,1.33,1,1.35,0,1.9-1,2-3a2.69,2.69,0,0,1-2.57,1.33,3.49,3.49,0,0,1-3.82-3.65c0-2.38,1.77-4,4.65-4,3.37,0,5,2.26,5,5.54v.38c0,3.67-1.77,5.74-5,5.74C45.32,72.41,43.77,71.21,43.53,69Zm6-4.32A1.53,1.53,0,0,0,48,63a1.51,1.51,0,0,0-1.5,1.66A1.47,1.47,0,0,0,48,66.3,1.5,1.5,0,0,0,49.54,64.72Z" fill="#14aa40"/><path d="M53.24,70.81a1.57,1.57,0,0,1,1.61-1.59,1.6,1.6,0,1,1,0,3.19A1.58,1.58,0,0,1,53.24,70.81Z" fill="#14aa40"/></g><g id="rect"><rect width="160" height="600" fill="none"/></g></g></g></g></svg>