<svg xmlns="http://www.w3.org/2000/svg" viewBox="0 0 160 600"><title>H3</title><g id="Layer_2" data-name="Layer 2"><g id="rect"><rect width="160" height="600" fill="none"/></g><g id="Virtual_career_training_for_149." data-name="Virtual career training for $149."><path d="M19.35,45.8h6.48l4.25,14.71L34.36,45.8H40l-6.86,21H26.3Z" fill="#14aa40"/><path d="M41,47.26A2.89,2.89,0,1,1,43.91,50,2.73,2.73,0,0,1,41,47.26Zm.26,4.16h5.25V66.75H41.3Z" fill="#14aa40"/><path d="M49.36,51.42h5.25v3a4.84,4.84,0,0,1,5-3.25v4.89c-3.19-.08-5,.91-5,3.38v7.26H49.36Z" fill="#14aa40"/><path d="M62.4,61.83V55H60.56V51.42H62.4V48.23h5.25v3.19h3V55h-3v6.33c0,1.12.56,1.61,1.55,1.61a3.93,3.93,0,0,0,1.5-.26v4a11.29,11.29,0,0,1-2.9.44C64.34,67.11,62.4,65.44,62.4,61.83Z" fill="#14aa40"/><path d="M72.54,61.42v-10h5.25v9.15c0,1.73.67,2.58,2.17,2.58s2.61-.94,2.61-2.9V51.42h5.24V66.75H82.57V64.38a5.05,5.05,0,0,1-4.87,2.73C74.74,67.11,72.54,65.29,72.54,61.42Z" fill="#14aa40"/><path d="M89.6,62.5c0-3.6,3.05-5,8.15-5h1.46v-.35c0-1.47-.35-2.43-2-2.43a1.88,1.88,0,0,0-2.08,1.81H90.18c.24-3.69,3.14-5.51,7.33-5.51s6.92,1.73,6.92,5.81v9.93h-5.1V65a5,5,0,0,1-4.54,2.14C92,67.11,89.6,65.76,89.6,62.5Zm9.61-1.11v-.94H97.83c-2.11,0-3,.41-3,1.67,0,.88.58,1.44,1.81,1.44C98.1,63.56,99.21,62.71,99.21,61.39Z" fill="#14aa40"/><path d="M107.12,44.68h5.22V66.75h-5.22Z" fill="#14aa40"/><path d="M19.73,89v-.23c0-5.1,3.67-8,8.18-8,3.75,0,7.21,1.64,7.51,6.3H30.49A2.26,2.26,0,0,0,28,84.76c-1.85,0-2.93,1.32-2.93,3.9v.24c0,2.66,1,4,3,4a2.55,2.55,0,0,0,2.66-2.55H35.5c-.14,3.87-2.75,6.39-7.71,6.39C23.22,96.78,19.73,94.11,19.73,89Z" fill="#14aa40"/><path d="M36.41,92.18c0-3.61,3.05-5,8.15-5H46v-.36c0-1.46-.35-2.43-2-2.43a1.88,1.88,0,0,0-2.08,1.82H37c.24-3.69,3.14-5.51,7.33-5.51s6.92,1.73,6.92,5.8v9.94h-5.1V94.64a5,5,0,0,1-4.54,2.14C38.84,96.78,36.41,95.43,36.41,92.18ZM46,91.06v-.93H44.64c-2.11,0-3,.41-3,1.67,0,.88.58,1.43,1.81,1.43C44.91,93.23,46,92.38,46,91.06Z" fill="#14aa40"/><path d="M53.79,81.1H59v3.05a4.84,4.84,0,0,1,5-3.26v4.9c-3.2-.09-5,.91-5,3.37v7.27H53.79Z" fill="#14aa40"/><path d="M64.92,89v-.23c0-4.92,3.67-8,8.3-8,4.19,0,7.79,2.4,7.79,7.91V90H70.23c.15,2,1.32,3.2,3.19,3.2s2.47-.8,2.67-1.82H81c-.46,3.46-3.13,5.42-7.76,5.42C68.44,96.78,64.92,94,64.92,89Zm11-1.93c-.09-1.85-1-2.87-2.7-2.87s-2.67,1-2.93,2.87Z" fill="#14aa40"/><path d="M82,89v-.23c0-4.92,3.66-8,8.29-8,4.2,0,7.8,2.4,7.8,7.91V90H87.31c.15,2,1.32,3.2,3.2,3.2,1.73,0,2.46-.8,2.67-1.82H98.1c-.47,3.46-3.14,5.42-7.77,5.42C85.53,96.78,82,94,82,89ZM93,87c-.09-1.85-1-2.87-2.7-2.87s-2.66,1-2.93,2.87Z" fill="#14aa40"/><path d="M99.92,81.1h5.24v3.05a4.84,4.84,0,0,1,5-3.26v4.9c-3.2-.09-5,.91-5,3.37v7.27H99.92Z" fill="#14aa40"/><path d="M21.26,121.18v-6.83H19.41v-3.58h1.85v-3.19H26.5v3.19h3v3.58h-3v6.33a1.4,1.4,0,0,0,1.56,1.61,4.12,4.12,0,0,0,1.49-.26v4a10.8,10.8,0,0,1-2.9.44C23.19,126.45,21.26,124.78,21.26,121.18Z" fill="#14aa40"/><path d="M31.51,110.77h5.25v3a4.82,4.82,0,0,1,5-3.25v4.89c-3.19-.09-5,.91-5,3.37v7.27H31.51Z" fill="#14aa40"/><path d="M42.39,121.85c0-3.6,3-5,8.14-5H52v-.35c0-1.47-.35-2.43-2-2.43a1.87,1.87,0,0,0-2.08,1.81H43c.24-3.69,3.14-5.51,7.33-5.51s6.92,1.73,6.92,5.81v9.93h-5.1v-1.79a5,5,0,0,1-4.55,2.14C44.82,126.45,42.39,125.11,42.39,121.85ZM52,120.74v-.94H50.62c-2.11,0-3,.41-3,1.67,0,.88.59,1.44,1.82,1.44C50.89,122.91,52,122.06,52,120.74Z" fill="#14aa40"/><path d="M59.65,106.61a2.89,2.89,0,1,1,2.87,2.7A2.74,2.74,0,0,1,59.65,106.61Zm.26,4.16h5.25V126.1H59.91Z" fill="#14aa40"/><path d="M68,110.77h5.25v2.46a5.41,5.41,0,0,1,5-2.87c3,0,5,1.85,5,5.78v10H78v-8.91c0-1.73-.67-2.58-2.19-2.58s-2.61.94-2.61,2.9v8.59H68Z" fill="#14aa40"/><path d="M85.7,106.61a2.74,2.74,0,0,1,2.87-2.73,2.72,2.72,0,1,1,0,5.43A2.72,2.72,0,0,1,85.7,106.61Zm.26,4.16h5.25V126.1H86Z" fill="#14aa40"/><path d="M94,110.77h5.25v2.46a5.41,5.41,0,0,1,5-2.87c3,0,5,1.85,5,5.78v10h-5.25v-8.91c0-1.73-.68-2.58-2.2-2.58s-2.61.94-2.61,2.9v8.59H94Z" fill="#14aa40"/><path d="M111,126.1h5.22c.23,1.12.91,2,2.81,2a2.91,2.91,0,0,0,3.26-3.23v-2.34a5.39,5.39,0,0,1-4.75,2.81c-3.58,0-6.51-2.64-6.51-7.36v-.23c0-4.52,2.9-7.39,6.51-7.39a5,5,0,0,1,4.75,2.58v-2.17h5.24v14c0,4.58-3,7-8.5,7C113.84,131.79,111.43,129.59,111,126.1ZM122.45,118v-.2c0-2.11-1.08-3.46-3-3.46s-3,1.38-3,3.49V118c0,2.11,1.11,3.46,3,3.46S122.45,120.12,122.45,118Z" fill="#14aa40"/><path d="M21.34,144H19.41v-3.57h1.93V139.1c0-3.81,2.38-5.63,6-5.63a9.7,9.7,0,0,1,2.41.32v3.84a5.09,5.09,0,0,0-1.44-.2,1.54,1.54,0,0,0-1.76,1.67v1.35h3.11V144H26.56v11.76H21.34Z" fill="#14aa40"/><path d="M30.08,148.3v-.23c0-4.93,3.66-8,8.41-8s8.35,3,8.35,7.88v.24c0,5-3.66,8-8.38,8S30.08,153.26,30.08,148.3Zm11.43-.09V148c0-2.58-1-4-3-4s-3.05,1.38-3.05,4v.24c0,2.63,1,4.07,3.05,4.07S41.51,150.76,41.51,148.21Z" fill="#14aa40"/><path d="M48.69,140.45h5.24v3a4.84,4.84,0,0,1,5-3.25v4.9c-3.2-.09-5,.9-5,3.37v7.27H48.69Z" fill="#14aa40"/><path d="M69.47,148c-2.94-.21-4.37-1.77-4.49-4h3.14a1.61,1.61,0,0,0,1.35,1.6v-2.48c-3-.42-4.22-1.49-4.22-3.86,0-2.05,1.62-3.53,4.22-3.72V134h1.32v1.53c2.47.2,3.93,1.34,4.13,3.67H71.85a1.37,1.37,0,0,0-1.06-1.28v2.35c2.6.37,4.3,1.26,4.3,3.72,0,2.08-1.34,3.81-4.3,4v2.12H69.47Zm0-7.92v-2.18c-.77.14-1.16.54-1.16,1.09S68.55,139.84,69.47,140Zm1.32,3.24v2.26a1.22,1.22,0,0,0,1.14-1.2C71.93,143.76,71.69,143.48,70.79,143.27Z" fill="#14aa40"/><path d="M80.24,140.74l-4,2.46v-5l4.81-3.37h5.19v21h-6Z" fill="#14aa40"/><path d="M98.59,151.76H88.39V149.5l8.73-14.68h7.24v12.81h2.7v4.13h-2.7v4H98.59Zm.14-4.13v-8.3L94,147.63Z" fill="#14aa40"/><path d="M108.46,149.86H114c.21,1,.85,1.78,2.46,1.78,2.49,0,3.52-1.87,3.61-5.45a5,5,0,0,1-4.75,2.46c-4,0-7.09-2.31-7.09-6.77s3.28-7.38,8.61-7.38c6.25,0,9.18,4.19,9.18,10.25v.71c0,6.8-3.28,10.64-9.26,10.64C111.77,156.1,108.9,153.87,108.46,149.86Zm11.14-8a2.84,2.84,0,0,0-2.87-3.13,2.81,2.81,0,0,0-2.79,3.07,2.74,2.74,0,0,0,2.79,3A2.78,2.78,0,0,0,119.6,141.85Z" fill="#14aa40"/><path d="M126.46,153.14a2.91,2.91,0,0,1,3-3,3,3,0,1,1,0,5.92A2.91,2.91,0,0,1,126.46,153.14Z" fill="#14aa40"/></g></g></svg>