<svg xmlns="http://www.w3.org/2000/svg" viewBox="0 0 160 600"><title>txt</title><g id="Layer_2" data-name="Layer 2"><g id="Artboard_1" data-name="Artboard 1" style="isolation:isolate"><g id="headline"><g id="Your_future_could_take_on_a_whole_new_look." data-name="Your future could take on a whole new look."><path d="M22.81,31.76l-3.68-6.48h3.53l1.91,3.82,1.91-3.82h3.11l-3.52,6.48V36.6H22.81Z" fill="#14aa40"/><path d="M28.4,32.56v-.12a4.25,4.25,0,0,1,4.54-4.34,4.19,4.19,0,0,1,4.51,4.26v.12a4.21,4.21,0,0,1-4.53,4.31C30.37,36.79,28.4,35.24,28.4,32.56Zm6.17,0v-.13c0-1.39-.56-2.17-1.63-2.17s-1.65.74-1.65,2.14v.12c0,1.43.56,2.2,1.65,2.2S34.57,33.89,34.57,32.52Z" fill="#14aa40"/><path d="M38.38,33.72v-5.4h2.83v4.94c0,.93.36,1.39,1.17,1.39s1.41-.5,1.41-1.56V28.32h2.83V36.6H43.79V35.32a2.73,2.73,0,0,1-2.63,1.47C39.56,36.79,38.38,35.81,38.38,33.72Z" fill="#14aa40"/><path d="M48.06,28.32h2.83V30a2.61,2.61,0,0,1,2.67-1.76v2.64c-1.72,0-2.67.49-2.67,1.82V36.6H48.06Z" fill="#14aa40"/><path d="M57.89,30.25h-1V28.32h1v-.73c0-2.05,1.29-3,3.25-3a5.33,5.33,0,0,1,1.3.17V26.8a2.76,2.76,0,0,0-.78-.11.84.84,0,0,0-.95.9v.73h1.68v1.93H60.71V36.6H57.89Z" fill="#14aa40"/><path d="M63.27,33.72v-5.4h2.84v4.94c0,.93.36,1.39,1.17,1.39s1.4-.5,1.4-1.56V28.32h2.84V36.6H68.68V35.32a2.72,2.72,0,0,1-2.62,1.47C64.46,36.79,63.27,35.81,63.27,33.72Z" fill="#14aa40"/><path d="M73.33,33.94V30.25h-1V28.32h1V26.6h2.84v1.72h1.62v1.93H76.17v3.42c0,.6.3.87.83.87a2.25,2.25,0,0,0,.81-.14v2.15a5.69,5.69,0,0,1-1.57.24C74.38,36.79,73.33,35.89,73.33,33.94Z" fill="#14aa40"/><path d="M78.81,33.72v-5.4h2.83v4.94c0,.93.36,1.39,1.17,1.39s1.41-.5,1.41-1.56V28.32h2.83V36.6H84.22V35.32a2.73,2.73,0,0,1-2.63,1.47C80,36.79,78.81,35.81,78.81,33.72Z" fill="#14aa40"/><path d="M88.49,28.32h2.83V30A2.61,2.61,0,0,1,94,28.21v2.64c-1.72,0-2.67.49-2.67,1.82V36.6H88.49Z" fill="#14aa40"/><path d="M94.5,32.56v-.12A4.23,4.23,0,0,1,99,28.1a3.92,3.92,0,0,1,4.21,4.27v.75H97.36a1.65,1.65,0,0,0,1.72,1.72c.94,0,1.33-.43,1.44-1h2.66c-.25,1.87-1.69,2.93-4.19,2.93S94.5,35.27,94.5,32.56Zm5.93-1c-.05-1-.54-1.55-1.46-1.55a1.57,1.57,0,0,0-1.58,1.55Z" fill="#14aa40"/><path d="M19.4,50.38v-.12a4.16,4.16,0,0,1,4.41-4.34c2,0,3.89.89,4.05,3.4H25.2a1.22,1.22,0,0,0-1.33-1.2c-1,0-1.58.71-1.58,2.1v.13c0,1.44.56,2.19,1.63,2.19a1.38,1.38,0,0,0,1.44-1.38h2.55c-.08,2.09-1.49,3.45-4.16,3.45C21.28,54.61,19.4,53.17,19.4,50.38Z" fill="#14aa40"/><path d="M28.38,50.38v-.12a4.25,4.25,0,0,1,4.54-4.34,4.19,4.19,0,0,1,4.51,4.26v.12a4.21,4.21,0,0,1-4.52,4.31C30.36,54.61,28.38,53.06,28.38,50.38Zm6.17,0v-.13c0-1.39-.55-2.17-1.63-2.17s-1.64.74-1.64,2.14v.12c0,1.43.55,2.2,1.64,2.2S34.55,51.71,34.55,50.34Z" fill="#14aa40"/><path d="M38.36,51.54v-5.4h2.83v4.94c0,.93.37,1.39,1.17,1.39s1.41-.5,1.41-1.56V46.14H46.6v8.28H43.77V53.14a2.72,2.72,0,0,1-2.62,1.47C39.55,54.61,38.36,53.63,38.36,51.54Z" fill="#14aa40"/><path d="M48.12,42.5h2.82V54.42H48.12Z" fill="#14aa40"/><path d="M52,50.37v-.13c0-2.82,1.55-4.32,3.52-4.32a2.67,2.67,0,0,1,2.54,1.39V42.5h2.84V54.42H58.1V53.07a2.78,2.78,0,0,1-2.58,1.54C53.61,54.61,52,53.23,52,50.37Zm6.14,0v-.13c0-1.39-.58-2.13-1.63-2.13s-1.63.71-1.63,2.15v.13c0,1.39.62,2.1,1.6,2.1S58.18,51.73,58.18,50.32Z" fill="#14aa40"/><path d="M65.63,51.76V48.07h-1V46.14h1V44.42h2.83v1.72h1.63v1.93H68.46v3.42a.76.76,0,0,0,.84.87,2.29,2.29,0,0,0,.81-.14v2.15a5.76,5.76,0,0,1-1.57.24C66.67,54.61,65.63,53.71,65.63,51.76Z" fill="#14aa40"/><path d="M70.72,52.12c0-1.94,1.65-2.7,4.4-2.7h.79v-.19c0-.79-.19-1.32-1.09-1.32a1,1,0,0,0-1.12,1H71c.13-2,1.69-3,4-3s3.73.93,3.73,3.13v5.37H76v-1a2.74,2.74,0,0,1-2.46,1.16C72,54.61,70.72,53.88,70.72,52.12Zm5.19-.6V51h-.74c-1.14,0-1.65.22-1.65.9,0,.47.32.77,1,.77C75.31,52.69,75.91,52.23,75.91,51.52Z" fill="#14aa40"/><path d="M80.1,42.5h2.83v6.92l2.24-3.28h2.94L85.4,49.86l2.93,4.56H85.17l-2.24-3.63v3.63H80.1Z" fill="#14aa40"/><path d="M88.12,50.38v-.12a4.24,4.24,0,0,1,4.48-4.34,3.93,3.93,0,0,1,4.21,4.27v.75H91a1.64,1.64,0,0,0,1.72,1.72c.93,0,1.33-.43,1.44-1h2.66c-.26,1.87-1.69,2.93-4.19,2.93S88.12,53.09,88.12,50.38Zm5.93-1c0-1-.53-1.55-1.45-1.55A1.57,1.57,0,0,0,91,49.34Z" fill="#14aa40"/><path d="M100.22,50.38v-.12a4.25,4.25,0,0,1,4.54-4.34,4.19,4.19,0,0,1,4.51,4.26v.12a4.21,4.21,0,0,1-4.52,4.31C102.2,54.61,100.22,53.06,100.22,50.38Zm6.17,0v-.13c0-1.39-.55-2.17-1.63-2.17s-1.64.74-1.64,2.14v.12c0,1.43.55,2.2,1.64,2.2S106.39,51.71,106.39,50.34Z" fill="#14aa40"/><path d="M110.27,46.14h2.83v1.33a2.92,2.92,0,0,1,2.72-1.55c1.6,0,2.71,1,2.71,3.12v5.38h-2.84V49.61c0-.94-.36-1.39-1.18-1.39s-1.41.5-1.41,1.56v4.64h-2.83Z" fill="#14aa40"/><path d="M122.3,52.12c0-1.94,1.65-2.7,4.4-2.7h.79v-.19c0-.79-.19-1.32-1.09-1.32a1,1,0,0,0-1.12,1h-2.66c.13-2,1.69-3,4-3s3.73.93,3.73,3.13v5.37h-2.75v-1a2.74,2.74,0,0,1-2.46,1.16C123.62,54.61,122.3,53.88,122.3,52.12Zm5.19-.6V51h-.74c-1.14,0-1.65.22-1.65.9,0,.47.32.77,1,.77C126.89,52.69,127.49,52.23,127.49,51.52Z" fill="#14aa40"/><path d="M19.14,64h3l1.2,5,1.4-5H27l1.23,5,1.34-5h2.69l-2.62,8.28H26.91l-1.23-4.62L24.4,72.24H21.64Z" fill="#14aa40"/><path d="M33,60.32H35.8v5a2.92,2.92,0,0,1,2.72-1.55c1.6,0,2.71,1,2.71,3.12v5.38H38.39V67.43c0-.94-.36-1.39-1.18-1.39s-1.41.5-1.41,1.56v4.64H33Z" fill="#14aa40"/><path d="M42.16,68.2v-.12a4.25,4.25,0,0,1,4.54-4.34A4.19,4.19,0,0,1,51.21,68v.12a4.21,4.21,0,0,1-4.53,4.31C44.13,72.43,42.16,70.88,42.16,68.2Zm6.17,0V68c0-1.39-.56-2.17-1.63-2.17s-1.65.74-1.65,2.14v.12c0,1.43.56,2.2,1.65,2.2S48.33,69.53,48.33,68.16Z" fill="#14aa40"/><path d="M52.28,60.32H55.1V72.24H52.28Z" fill="#14aa40"/><path d="M56.17,68.2v-.12a4.24,4.24,0,0,1,4.48-4.34A3.93,3.93,0,0,1,64.86,68v.75H59a1.64,1.64,0,0,0,1.72,1.72c.93,0,1.33-.43,1.44-1h2.66c-.26,1.87-1.69,2.93-4.19,2.93S56.17,70.91,56.17,68.2Zm5.93-1c0-1-.53-1.55-1.45-1.55a1.57,1.57,0,0,0-1.58,1.55Z" fill="#14aa40"/><path d="M68.71,64h2.84v1.33a2.92,2.92,0,0,1,2.72-1.55c1.6,0,2.7,1,2.7,3.12v5.38H74.14V67.43c0-.94-.36-1.39-1.18-1.39s-1.41.5-1.41,1.56v4.64H68.71Z" fill="#14aa40"/><path d="M77.9,68.2v-.12a4.24,4.24,0,0,1,4.48-4.34A3.92,3.92,0,0,1,86.59,68v.75H80.77a1.65,1.65,0,0,0,1.72,1.72c.94,0,1.33-.43,1.44-1h2.66c-.25,1.87-1.69,2.93-4.19,2.93S77.9,70.91,77.9,68.2Zm5.94-1c0-1-.54-1.55-1.46-1.55a1.57,1.57,0,0,0-1.58,1.55Z" fill="#14aa40"/><path d="M86.63,64h3l1.21,5,1.39-5h2.28l1.23,5,1.35-5h2.69l-2.63,8.28H94.4l-1.23-4.62-1.28,4.62H89.13Z" fill="#14aa40"/><path d="M103.42,60.32h2.81V72.24h-2.81Z" fill="#14aa40"/><path d="M107.31,68.2v-.12a4.25,4.25,0,0,1,4.54-4.34A4.19,4.19,0,0,1,116.36,68v.12a4.21,4.21,0,0,1-4.53,4.31C109.29,72.43,107.31,70.88,107.31,68.2Zm6.17,0V68c0-1.39-.56-2.17-1.63-2.17s-1.65.74-1.65,2.14v.12c0,1.43.56,2.2,1.65,2.2S113.48,69.53,113.48,68.16Z" fill="#14aa40"/><path d="M116.91,68.2v-.12a4.25,4.25,0,0,1,4.54-4.34A4.19,4.19,0,0,1,126,68v.12a4.21,4.21,0,0,1-4.53,4.31C118.89,72.43,116.91,70.88,116.91,68.2Zm6.17,0V68c0-1.39-.55-2.17-1.63-2.17s-1.65.74-1.65,2.14v.12c0,1.43.56,2.2,1.65,2.2S123.08,69.53,123.08,68.16Z" fill="#14aa40"/><path d="M127,60.32h2.84v6.92L132,64H135l-2.71,3.72,2.93,4.56H132l-2.23-3.63v3.63H127Z" fill="#14aa40"/><path d="M135.73,70.81a1.58,1.58,0,0,1,1.62-1.59,1.6,1.6,0,1,1,0,3.19A1.58,1.58,0,0,1,135.73,70.81Z" fill="#14aa40"/></g><g id="rect"><rect width="160" height="600" fill="none"/></g></g></g></g></svg>