<svg xmlns="http://www.w3.org/2000/svg" viewBox="0 0 300 250"><title>glasses_base</title><g id="Layer_2" data-name="Layer 2"><g id="rect"><rect width="300" height="250" fill="none"/></g><g id="Layer_13" data-name="Layer 13"><path d="M249.27,41.2v0a1.12,1.12,0,0,0-.08-.26c-.13-.31-.61-.29-.89-.34a1.63,1.63,0,0,1-.56-.16l-.2-.14c-.21-.12-.42-.27-.63-.4a5.16,5.16,0,0,0-1.68-.74c-.45-.09-.89-.22-1.34-.33-.29-.06-.58-.13-.87-.17-.94-.1-1.89-.2-2.83-.26-.69-.05-1.39,0-2.08,0-.52,0-1-.05-1.55-.05a13.53,13.53,0,0,0-2.84.34c-.49.11-1,.2-1.47.35a9.85,9.85,0,0,0-1.12.47c-.29.14-.58.28-.86.45s-.47.35-.72.51a4.48,4.48,0,0,1-.68.37c-.6,0-1.2-.1-1.81-.09s-1.08.1-1.62.13h-.06a5.29,5.29,0,0,1-.74-.4c-.24-.16-.47-.35-.72-.51a7.76,7.76,0,0,0-.86-.45,8.53,8.53,0,0,0-1.12-.47c-.47-.15-1-.24-1.46-.35a13.61,13.61,0,0,0-2.84-.34c-.52,0-1,0-1.55.05-.69,0-1.39,0-2.08,0-.95.06-1.89.16-2.83.26-.3,0-.59.11-.88.17-.44.11-.88.24-1.33.33a5.21,5.21,0,0,0-1.69.74c-.21.13-.41.28-.63.4a1,1,0,0,1-.2.14,1.51,1.51,0,0,1-.56.16c-.27.05-.75,0-.88.34a1.12,1.12,0,0,0-.08.26s0,0,0,0a3.75,3.75,0,0,0,.14,1.49c.06.18.14.3.34.28s.67-.08,1-.1c.11,0,.31,0,.33.09a9.48,9.48,0,0,1,.49,1.35,10.87,10.87,0,0,0,1,2.28,8.69,8.69,0,0,0,1.7,2.21,5.34,5.34,0,0,0,.89.76c.64.39,1.3.73,2,1.07a5.25,5.25,0,0,0,1.71.58c.58.07,1.16.1,1.74.12.41,0,.82,0,1.23,0a5,5,0,0,0,1.16-.15,10.31,10.31,0,0,0,2.19-.87c.42-.26.86-.49,1.26-.77A7.57,7.57,0,0,0,223.48,48a10.31,10.31,0,0,0,.78-1.09,7.29,7.29,0,0,0,.52-1.18c.16-.43.31-.86.44-1.3a2.55,2.55,0,0,1,.85-1.54,1.58,1.58,0,0,1,.68-.29l.35,0,.35,0a1.59,1.59,0,0,1,.67.29,2.57,2.57,0,0,1,.86,1.54c.13.44.27.87.44,1.3a8.24,8.24,0,0,0,.51,1.18,9.14,9.14,0,0,0,.79,1.09,7.57,7.57,0,0,0,1.45,1.54c.4.28.84.51,1.26.77a10.31,10.31,0,0,0,2.19.87,4.9,4.9,0,0,0,1.15.15c.41,0,.83.06,1.24,0,.58,0,1.16,0,1.73-.12a5.22,5.22,0,0,0,1.72-.58c.66-.34,1.33-.68,2-1.07a5.41,5.41,0,0,0,.9-.76A8.44,8.44,0,0,0,246,46.59a10.4,10.4,0,0,0,1-2.28,9.43,9.43,0,0,1,.48-1.35c0-.07.22-.1.33-.09.34,0,.68.07,1,.1s.28-.1.33-.28a3.75,3.75,0,0,0,.14-1.49m-.4.79c-.05.35-.18.57-.56.57s-.89-.07-1.33-.1a.43.43,0,0,0-.32.34c-.18.66-.32,1.34-.55,2a11,11,0,0,1-.78,1.62,7.66,7.66,0,0,1-1.2,1.58c-.54.58-1.16,1.08-1.75,1.61a9.48,9.48,0,0,1-2,1.19,2.45,2.45,0,0,1-.93.23,11.57,11.57,0,0,1-1.56.1c-.61,0-1.22-.11-1.83-.14a5,5,0,0,1-1.62-.48,18,18,0,0,1-1.9-1l0,0a3,3,0,0,1-.46-.42h0A.09.09,0,0,1,232,49s0,0-.05,0v0s0,0,0,0l0,0a3.38,3.38,0,0,1-.45-.55,5.44,5.44,0,0,1-.74-1.14c-.08-.18-.19-.36-.29-.54a9.65,9.65,0,0,1-.64-2,5.44,5.44,0,0,0-1-2,1.92,1.92,0,0,0-.63-.48,3.47,3.47,0,0,0-1-.19,3.37,3.37,0,0,0-1.19.25,1.75,1.75,0,0,0-.52.42,5.3,5.3,0,0,0-1,2,9.68,9.68,0,0,1-.65,2c-.1.18-.2.36-.29.54a5,5,0,0,1-.73,1.14c-.08.12-.18.24-.27.35s-.35.35-.53.5-.55.39-.79.61a12.3,12.3,0,0,1-1.45.73,5.05,5.05,0,0,1-1.62.48c-.61,0-1.22.13-1.84.14a11.67,11.67,0,0,1-1.56-.1,2.4,2.4,0,0,1-.92-.23,9.23,9.23,0,0,1-2-1.19c-.59-.53-1.21-1-1.76-1.61a8,8,0,0,1-1.2-1.58,10.91,10.91,0,0,1-.77-1.62c-.23-.64-.38-1.32-.55-2a.45.45,0,0,0-.32-.34c-.45,0-.89.09-1.34.1s-.51-.22-.56-.57a1,1,0,0,1,.38-1,1.28,1.28,0,0,1,.51-.13,2.61,2.61,0,0,0,.6-.09,6.6,6.6,0,0,1,1.4-.78,12.22,12.22,0,0,1,2.18-.68c.74-.14,1.48-.24,2.22-.36l1.3-.2c.36,0,.72-.08,1.08-.1h1a14.86,14.86,0,0,1,2.11,0c.29,0,.65.07,1,.13,0,0,0,0,.06,0,.8.14,1.55.41,2.34.61a4.55,4.55,0,0,1,1.1.4c.31.12.6.3.9.44s.75.57,1.2.75a2.73,2.73,0,0,0,.92.21,5.47,5.47,0,0,0,1.27-.09l.48,0h0a5.12,5.12,0,0,1,.81.1l.12,0a2.34,2.34,0,0,0,1.11-.2c.46-.18.77-.55,1.21-.75s.58-.32.89-.44a4.47,4.47,0,0,1,1.11-.4c.78-.2,1.53-.47,2.34-.61,0,0,0,0,0,0,.37-.06.74-.1,1-.13a14.85,14.85,0,0,1,2.11,0h1c.37,0,.73.05,1.09.1l1.3.2c.74.12,1.48.22,2.21.36A12,12,0,0,1,246,40a6.15,6.15,0,0,1,1.4.78,2.79,2.79,0,0,0,.61.09,1.24,1.24,0,0,1,.5.13.93.93,0,0,1,.38,1m-4.16-1.1a1.88,1.88,0,0,0-.34-.28,3.21,3.21,0,0,0-.45-.24,4.53,4.53,0,0,0-1-.29l-.24,0a6.45,6.45,0,0,0-1.19-.29,10.53,10.53,0,0,0-1.67-.18,20.21,20.21,0,0,0-2.91.08,7.43,7.43,0,0,0-.81.09,4.36,4.36,0,0,0-.8.09h0a11.67,11.67,0,0,0-1.31.26c-.2,0-.42.08-.62.14l-.78.2a12.08,12.08,0,0,0-1.17.35q-.34.13-.69.3l-.15.07-.06,0a.9.9,0,0,0-.26.22l0,.07a1.71,1.71,0,0,0-.14.55,5.47,5.47,0,0,0,0,1.07.41.41,0,0,0,0,.11c.06.28.13.56.18.84v.07a2,2,0,0,1,0,.24c0,.13.08.27.1.4s.09.38.15.57.19.5.3.74.37.7.52,1.06a6.77,6.77,0,0,0,.83,1.27,4.17,4.17,0,0,0,1.65,1.26,11.84,11.84,0,0,0,1.22.53,5.83,5.83,0,0,0,3.2.32c.49-.11,1-.18,1.46-.33a6.71,6.71,0,0,0,3.88-3.29,6.68,6.68,0,0,0,.89-2.41c.09-.69.17-1.38.25-2.08,0-.25,0-.51.07-.77l0-.21a4.36,4.36,0,0,0-.11-.52m-.47,2a11,11,0,0,1-.36,2.14,13.34,13.34,0,0,1-.85,2.2,4.55,4.55,0,0,1-1.17,1.49A6.7,6.7,0,0,1,240,49.84a6.49,6.49,0,0,1-1.14.34,4,4,0,0,0-.76.11l-.64.08h0a8.27,8.27,0,0,1-.86,0,7.06,7.06,0,0,1-1.67-.53,5.74,5.74,0,0,1-2-1.26,6.56,6.56,0,0,1-1.32-1.93,13.05,13.05,0,0,1-.54-1.29,19.18,19.18,0,0,1-.42-2,9.94,9.94,0,0,1-.11-1.33s.06-.12.11-.15c.42-.2.84-.4,1.27-.58a13.4,13.4,0,0,1,1.61-.57c.88-.22,1.78-.39,2.68-.53.74-.11,1.5-.15,2.25-.22a4.42,4.42,0,0,1,.63,0c.52,0,1,.09,1.55.1a11.62,11.62,0,0,1,2.11.35,5.64,5.64,0,0,1,1.35.66.27.27,0,0,1,.09.2,10.82,10.82,0,0,1,0,1.61M224,41.47a.43.43,0,0,1,0-.07.93.93,0,0,0-.27-.22l-.05,0a.69.69,0,0,1-.15-.07q-.34-.16-.69-.3a12.27,12.27,0,0,0-1.18-.35l-.11,0a7.84,7.84,0,0,0-1.45-.34L219.5,40l-.44-.09a7.49,7.49,0,0,0-.79-.11l-.93-.11a18.21,18.21,0,0,0-2.56-.08h-.17a7.87,7.87,0,0,0-1.82.19l-.09,0c-.49.09-1,.23-1.45.3a4.62,4.62,0,0,0-1,.29c-.13.07-.26.13-.39.21a.79.79,0,0,0-.46.35,1.66,1.66,0,0,0,0,1.24,1.64,1.64,0,0,0,0,.22c.07.7.15,1.39.25,2.08a6.68,6.68,0,0,0,.89,2.41,7.06,7.06,0,0,0,1.08,1.53,6.84,6.84,0,0,0,2.79,1.76c.48.15,1,.22,1.47.33a5.15,5.15,0,0,0,1.41.09,3.28,3.28,0,0,0,.84-.13,7.79,7.79,0,0,0,.94-.28,11,11,0,0,0,1.22-.53A4.1,4.1,0,0,0,222,48.39a7.36,7.36,0,0,0,.84-1.27c.15-.36.36-.7.51-1.06s.21-.49.31-.74.11-.38.14-.57.07-.27.11-.4l0-.24a.17.17,0,0,1,0-.07c.05-.28.12-.56.18-.84,0,0,0-.07,0-.11a6.38,6.38,0,0,0,0-1.07,2.46,2.46,0,0,0-.14-.55m-1.42,5.13a6.75,6.75,0,0,1-1.32,1.93,5.79,5.79,0,0,1-2,1.26,4.87,4.87,0,0,1-.53.21c-.43.07-.86.24-1.31.29s-.89,0-1.33,0l-.31,0a6,6,0,0,1-1.61-.41,6.75,6.75,0,0,1-1.87-1.14,4.69,4.69,0,0,1-1.17-1.49,14.25,14.25,0,0,1-.84-2.2,11.83,11.83,0,0,1-.37-2.14,10.83,10.83,0,0,1,0-1.61.27.27,0,0,1,.09-.2,5.39,5.39,0,0,1,1.34-.66,11.62,11.62,0,0,1,2.11-.35c.52,0,1-.07,1.55-.1h.64c.75.07,1.5.11,2.24.22.9.14,1.8.31,2.69.53a13.4,13.4,0,0,1,1.61.57c.4.16.79.35,1.18.54a4.71,4.71,0,0,1,.05.54c0,.33,0,.65,0,1s-.09.74-.14,1.11a1.16,1.16,0,0,1,0,.18c-.05.23-.1.46-.17.68a10.94,10.94,0,0,1-.53,1.29m-14.74-5.18a1.66,1.66,0,0,0-.8-.12c-.34,0-1,0-1.22.25-.06.06,0,.11,0,.14s.32.17.37.18a3.53,3.53,0,0,0,1.48-.14l.14-.09h0a.1.1,0,0,0,.06-.12s0-.07-.08-.1m-1.63.2h-.09l.07-.07a3.5,3.5,0,0,1,.43-.08,4.45,4.45,0,0,1,.73,0s.18,0,.27,0a8.3,8.3,0,0,1-1.41.12m41-.32a1.68,1.68,0,0,0-.8.12c-.06,0-.08.07-.07.1a.09.09,0,0,0,.05.12h0l.15.09a3.52,3.52,0,0,0,1.48.14c.05,0,.3-.07.36-.18s.08-.08,0-.14c-.26-.26-.89-.25-1.23-.25m.83.32a8.39,8.39,0,0,1-1.41-.12c.09,0,.25,0,.28,0a4.36,4.36,0,0,1,.72,0l.44.08.06.07H248" fill="#14aa40" fill-rule="evenodd"/></g></g></svg>